<svg id="Layer_1" data-name="Layer 1" xmlns="http://www.w3.org/2000/svg" viewBox="0 0 447.01 775.38"><defs><style>.cls-1{fill:#ef5050;}.cls-1,.cls-3,.cls-4,.cls-5,.cls-6{fill-rule:evenodd;}.cls-2,.cls-5{fill:#111;}.cls-3{fill:#3b3b3b;}.cls-4{fill:#4a4a4a;}.cls-7{fill:none;stroke:#222;stroke-width:1.53px;}</style></defs><path class="cls-1" d="M212.24,0c10.3,0,107.1,1.4,116.3,20.2,6,12.3,9.6,72.8,10.2,76.1,6.1,34.9,14.6,49,46.7,66.8H39.14c32.1-17.7,40.6-31.8,46.7-66.8C86.44,93,90,32.5,96,20.2,105.14,1.4,201.94,0,212.24,0Z"/><path class="cls-1" d="M212.24,771.9c10.3,0,107.1-1.4,116.3-20.2,6-12.3,9.6-72.8,10.2-76.1,6.1-34.9,14.6-49,46.7-66.8H39.14c32.1,17.7,40.6,31.8,46.7,66.8.6,3.3,4.2,63.8,10.2,76.1C105.14,770.5,201.94,771.9,212.24,771.9Z"/><rect class="cls-2" x="416.61" y="250.77" width="12.3" height="80.9"/><path class="cls-3" d="M447,315.17c0,14.2-5.6,18.8-10.8,18.8h-8.3c-2.1-1.2-4.7-5.3-6.7-10.6V260c1.9-5.3,4.5-9.4,6.7-10.6h8.3c5.2,0,10.8,4.5,10.8,18.8Z"/><path class="cls-4" d="M427.9,333.32c-4-2.2-9.5-14.5-9.5-25.3v-33.5c0-10.7,5.5-23.1,9.5-25.3h.7c-2.2-30.6-8.4-55.5-25-73.3-24-25.7-51-38.8-109.2-38.8H135.3c-58.2,0-85.2,13.1-109.2,38.8S0,242.22,0,293.12v186.4c0,50.9,2.2,91.4,26.2,117.1s51,38.8,109.2,38.8H294.5c58.2,0,85.2-13.1,109.2-38.8s26.2-66.2,26.2-117.1V333.32Zm-50.8,194.6a54.73,54.73,0,0,1-54.8,54.7H107.9a54.8,54.8,0,0,1-54.8-54.7V243.32a54.8,54.8,0,0,1,54.8-54.7H322.4a54.8,54.8,0,0,1,54.8,54.7v284.6Z"/><path class="cls-5" d="M431,402c-3.9,4-4.3,10-4.7,15.8-.2,2.8-.3,5.7-.3,8.5,0,27-.1,53.9,0,80.9.1,7.2.1,14.9,2.8,21l.4,1-1.5.7-.5-1c-3-6.6-2.9-14.3-3-21.7q-.15-40.65,0-81.4c.1-7,.1-14.3,2.6-20.6a18.76,18.76,0,0,1,2.2-3.7l.7-.7A13.1,13.1,0,0,0,431,402Z"/><path class="cls-5" d="M428.7,250.12a1,1,0,0,0-.8.2c-2.2,1.7-3.5,4.4-4.7,7a43.12,43.12,0,0,0-3.9,17q-.15,17.1,0,34.2c.2,8.3,2.3,17.1,7.7,22.9a5.8,5.8,0,0,0,1.2,1h1.7V334h-2c-.1,0-.2-.1-.4-.1s-.2-.1-.4-.2c-1.9-1.3-3.2-3.5-4.3-5.6a43.31,43.31,0,0,1-5.1-19.6q-.15-17.1,0-34.2c.1-8.3,2.4-16.8,7.2-23.2a16.33,16.33,0,0,1,2.6-2.5,3.52,3.52,0,0,1,1.2-.2Z"/><path class="cls-6" d="M415.1,293.62c-.6-45.2.4-83-21.2-109.6-23.4-29-55.1-32.4-114.6-32.4H150.9c-59.5,0-91.2,3.4-114.6,32.4-21.5,26.6-20.5,64.4-21.2,109.6v183.5c.6,45.2-.3,83,21.2,109.6,23.4,29,55.1,32.4,114.6,32.4H279.4c59.5,0,91.2-3.4,114.6-32.4,21.5-26.6,20.5-64.4,21.2-109.6C415.1,476.22,415.1,294.32,415.1,293.62Zm-38,234.3a54.73,54.73,0,0,1-54.8,54.7H107.9a54.8,54.8,0,0,1-54.8-54.7V243.32a54.8,54.8,0,0,1,54.8-54.7H322.4a54.8,54.8,0,0,1,54.8,54.7v284.6Z"/><path class="cls-7" d="M15,477.32V293.82c.6-45.2-.3-83,21.2-109.6,23.4-29,55.1-32.4,114.6-32.4H279.3c59.5,0,91.2,3.4,114.6,32.4,21.5,26.6,20.5,64.4,21.2,109.6v183.5c-.6,45.2.4,83-21.2,109.6-23.4,29-55.1,32.4-114.6,32.4H150.8c-59.5,0-91.2-3.4-114.6-32.4C14.7,560.32,15.7,522.62,15,477.32Z"/><path class="cls-3" d="M429.8,479.52c0,17.8-.3,34.2-1.6,49.3-2.3-4.6-3-13.1-3-22.4V427c0-11.3,1.1-21.3,4.6-24.8Z"/></svg>