<svg id="Layer_1" data-name="Layer 1" xmlns="http://www.w3.org/2000/svg" viewBox="0 0 66.04 66.04"><defs><style>.cls-1{fill:#fff;}</style></defs><g id="Group_4" data-name="Group 4"><path id="Combined_Shape_Copy-2" data-name="Combined Shape Copy-2" class="cls-1" d="M35.27,66H3.65A3.65,3.65,0,0,1,0,62.39V3.64A3.64,3.64,0,0,1,3.64,0H62.39A3.66,3.66,0,0,1,66,3.64V62.39A3.67,3.67,0,0,1,62.39,66H45.56V40.46h8.59l1.28-10H45.56V24.13c0-2.91.84-4.85,4.94-4.85h5.28V10.36A70.6,70.6,0,0,0,48.09,10a12.81,12.81,0,0,0-9.26,3.39c-2.33,2.3-3.56,5.68-3.56,9.79V30.5h-8.6v10h8.6Z"/></g></svg>