<?xml version="1.0" encoding="UTF-8"?>
<svg width="309px" height="309px" viewBox="0 0 309 309" version="1.1" xmlns="http://www.w3.org/2000/svg" xmlns:xlink="http://www.w3.org/1999/xlink">
    <!-- Generator: Sketch 54.1 (76490) - https://sketchapp.com -->
    <title>Group 4 Copy</title>
    <desc>Created with Sketch.</desc>
    <defs>
        <polygon id="path-1" points="0 0.390893005 308.609107 0.390893005 308.609107 309 0 309"></polygon>
    </defs>
    <g id="Page-1" stroke="none" stroke-width="1" fill="none" fill-rule="evenodd">
        <g id="Artboard-Copy-5" transform="translate(-1207.000000, -1701.000000)">
            <g id="Group-4-Copy" transform="translate(1207.000000, 1701.000000)">
                <g id="Group-106">
                    <mask id="mask-2" fill="white">
                        <use xlink:href="#path-1"></use>
                    </mask>
                    <g id="Clip-105"></g>
                    <path d="M154.304433,309.00024 C69.220563,309.00024 -0.00024015544,239.778637 -0.00024015544,154.695567 L-0.00024015544,142.350776 L24.6885396,142.350776 L24.6885396,154.695567 C24.6885396,226.165826 82.8341744,284.31146 154.304433,284.31146 C225.774692,284.31146 283.920327,226.165826 283.920327,154.695567 C283.920327,83.224507 225.774692,25.0796728 154.304433,25.0796728 L141.960444,25.0796728 L141.960444,0.390893005 L154.304433,0.390893005 C239.388304,0.390893005 308.609107,69.6124966 308.609107,154.695567 C308.609107,239.778637 239.388304,309.00024 154.304433,309.00024" id="Fill-104" fill="#242424" mask="url(#mask-2)"></path>
                </g>
                <path d="M154.304433,278.138825 C143.771216,278.138825 133.305242,276.808364 123.199501,274.184266 L111.251768,271.081457 L117.457384,247.18519 L129.405117,250.287999 C137.486348,252.386157 145.86297,253.450045 154.304433,253.450045 C208.758078,253.450045 253.059553,209.149372 253.059553,154.695727 C253.059553,100.241281 208.758078,55.9406075 154.304433,55.9406075 L141.960444,55.9406075 L141.960444,31.2518277 L154.304433,31.2518277 C222.37169,31.2518277 277.748332,86.6284702 277.748332,154.695727 C277.748332,222.762983 222.37169,278.138825 154.304433,278.138825" id="Fill-107" fill="#575757"></path>
                <path d="M225.997717,214.560954 L205.133813,201.362812 L211.732484,190.93046 C218.579315,180.106654 222.198458,167.576144 222.198458,154.695807 C222.198458,117.257975 191.741945,86.8014622 154.304113,86.8014622 L141.960124,86.8014622 L141.960124,62.1118819 L154.304113,62.1118819 C205.354756,62.1118819 246.887238,103.644364 246.887238,154.695807 C246.887238,172.255973 241.945639,189.350237 232.597188,204.128602 L225.997717,214.560954 Z" id="Fill-109" fill="#8A8A8A"></path>
                <path d="M131.805471,133.990805 L136.380432,133.990805 C138.557841,133.990805 140.172487,133.446453 141.222766,132.356948 C142.271445,131.269844 142.796585,129.823308 142.796585,128.019741 C142.796585,126.278614 142.277049,124.921735 141.237176,123.950707 C140.197303,122.98128 138.765976,122.495365 136.944797,122.495365 C135.300533,122.495365 133.923642,122.946057 132.815725,123.84664 C131.706207,124.748824 131.152248,125.922383 131.152248,127.366518 L122.566691,127.366518 C122.566691,125.109057 123.175885,123.085347 124.393474,121.292186 C125.611862,119.499826 127.314564,118.098119 129.503181,117.088666 C131.690997,116.078412 134.102158,115.573285 136.736663,115.573285 C141.311624,115.573285 144.895544,116.668394 147.490023,118.85621 C150.083702,121.044826 151.382142,124.060378 151.382142,127.901264 C151.382142,129.882546 150.777751,131.703725 149.569769,133.367202 C148.360987,135.030678 146.777562,136.308305 144.816292,137.199282 C147.252269,138.072647 149.069445,139.378292 150.267821,141.12022 C151.465396,142.863748 152.064984,144.922681 152.064984,147.299419 C152.064984,151.142707 150.663277,154.220699 147.861463,156.538199 C145.058849,158.855699 141.350049,160.014049 136.736663,160.014049 C132.419468,160.014049 128.888383,158.875712 126.146608,156.597438 C123.403233,154.320764 122.031945,151.310015 122.031945,147.566792 L130.617502,147.566792 C130.617502,149.191044 131.225896,150.518303 132.444284,151.547769 C133.661873,152.578036 135.162044,153.091969 136.944797,153.091969 C138.984518,153.091969 140.583953,152.55322 141.742303,151.473321 C142.900652,150.394223 143.480227,148.962896 143.480227,147.180943 C143.480227,142.863748 141.103489,140.704751 136.350813,140.704751 L131.805471,140.704751 L131.805471,133.990805 Z" id="Fill-111" fill="#242424"></path>
                <polygon id="Fill-113" fill="#242424" points="187.386005 120.958931 170.661581 159.419824 161.601316 159.419824 178.35536 123.089109 156.84784 123.089109 156.84784 116.16783 187.386005 116.16783"></polygon>
                <path d="M134.632341,182.376843 L134.701986,184.048325 C135.806701,182.748284 137.296465,182.098263 139.171278,182.098263 C141.279043,182.098263 142.713571,182.905986 143.474063,184.521431 C143.975988,183.796962 144.62761,183.212584 145.43053,182.766696 C146.233449,182.321608 147.182864,182.098263 148.278773,182.098263 C151.583312,182.098263 153.2636,183.849797 153.319636,187.34726 L153.319636,197.443395 L150.742768,197.443395 L150.742768,187.50096 C150.742768,186.425063 150.497009,185.618942 150.005491,185.085797 C149.513172,184.551051 148.687038,184.283677 147.526286,184.283677 C146.570468,184.283677 145.776354,184.569462 145.145545,185.141833 C144.513937,185.711802 144.147299,186.480299 144.045633,187.445724 L144.045633,197.443395 L141.455157,197.443395 L141.455157,187.569804 C141.455157,185.381188 140.383263,184.283677 138.238675,184.283677 C136.549582,184.283677 135.393633,185.004144 134.771631,186.442675 L134.771631,197.443395 L132.195563,197.443395 L132.195563,182.376843 L134.632341,182.376843 Z" id="Fill-115" fill="#242424"></path>
                <path d="M157.427495,197.443795 L160.003562,197.443795 L160.003562,182.377244 L157.427495,182.377244 L157.427495,197.443795 Z M157.21856,178.379456 C157.21856,177.963987 157.345842,177.610959 157.602008,177.321171 C157.855772,177.036187 158.234417,176.890492 158.736342,176.890492 C159.237466,176.890492 159.617712,177.036187 159.877881,177.321171 C160.138049,177.610959 160.267733,177.963987 160.267733,178.379456 C160.267733,178.799728 160.138049,179.146352 159.877881,179.424933 C159.617712,179.703513 159.237466,179.842003 158.736342,179.842003 C158.234417,179.842003 157.855772,179.703513 157.602008,179.424933 C157.345842,179.146352 157.21856,178.799728 157.21856,178.379456 L157.21856,178.379456 Z" id="Fill-117" fill="#242424"></path>
                <path d="M166.561967,182.376843 L166.645221,184.270869 C167.796366,182.822732 169.30054,182.098263 171.156941,182.098263 C174.341402,182.098263 175.947242,183.894626 175.97526,187.488952 L175.97526,197.443395 L173.399192,197.443395 L173.399192,187.473742 C173.389586,186.387439 173.140625,185.58532 172.654711,185.063382 C172.165594,184.545447 171.407503,184.283677 170.377237,184.283677 C169.541496,184.283677 168.808221,184.506222 168.177413,184.95211 C167.545804,185.397198 167.053485,185.984778 166.701257,186.708447 L166.701257,197.443395 L164.12519,197.443395 L164.12519,182.376843 L166.561967,182.376843 Z" id="Fill-119" fill="#242424"></path>
            </g>
        </g>
    </g>
</svg>