<?xml version="1.0" encoding="UTF-8"?>
<svg width="184px" height="237px" viewBox="0 0 184 237" version="1.1" xmlns="http://www.w3.org/2000/svg" xmlns:xlink="http://www.w3.org/1999/xlink">
    <!-- Generator: Sketch 54.1 (76490) - https://sketchapp.com -->
    <title>Fill 120 Copy</title>
    <desc>Created with Sketch.</desc>
    <g id="Page-1" stroke="none" stroke-width="1" fill="none" fill-rule="evenodd">
        <g id="Artboard-Copy-5" transform="translate(-1287.000000, -2797.000000)" fill="#242424">
            <path d="M1413.46546,2908.29339 C1421.015,2889.8969 1428.28338,2863.53736 1431.01253,2824.06185 C1435.69321,2823.57252 1443.02837,2821.9954 1448.13784,2816.77472 C1450.71059,2814.15997 1452.36689,2810.92301 1453.06895,2807.24247 L1460.54556,2807.24247 C1457.957,2882.564 1428.32819,2902.843 1413.46546,2908.29339 L1413.46546,2908.29339 Z M1297.44828,2807.24247 L1304.92402,2807.24247 C1305.62696,2810.92301 1307.29029,2814.15997 1309.84898,2816.77472 C1314.96548,2821.9954 1322.30854,2823.57252 1326.98132,2824.06185 C1329.71047,2863.53736 1336.97797,2889.8969 1344.52839,2908.29339 C1329.67357,2902.843 1300.05179,2882.564 1297.44828,2807.24247 L1297.44828,2807.24247 Z M1442.96862,2797 L1443.21992,2802.36942 C1443.37544,2805.45061 1442.5987,2807.80485 1440.87562,2809.59055 C1438.55505,2811.97559 1434.78379,2813.17515 1431.61881,2813.71553 C1431.73656,2810.96789 1431.84815,2808.19825 1431.93601,2805.3318 L1379.03031,2805.3318 L1378.97056,2805.3318 L1326.07189,2805.3318 C1326.16064,2808.19825 1326.27838,2810.96789 1326.397,2813.71553 C1323.225,2813.17515 1319.46165,2811.96767 1317.13229,2809.58263 C1315.39428,2807.80485 1314.61841,2805.44269 1314.77393,2802.3615 L1315.03226,2797 L1287,2797 L1287.09665,2802.21365 C1288.64927,2891.91142 1326.56043,2913.62673 1343.91508,2918.86238 L1341.0673,2922.91343 L1349.42259,2928.81618 L1352.2774,2924.73521 C1357.98525,2935.38517 1362.96205,2942.18473 1365.08404,2947.62104 L1361.2091,2947.62104 L1361.2091,2955.74514 L1365.9425,2955.74514 C1364.027,2968.29169 1338.70104,2982.82283 1338.70104,2982.82283 L1338.70104,2990.48049 L1332.49059,2990.48049 L1332.49059,3034 L1378.96354,3034 L1379.02328,3034 L1425.49535,3034 L1425.49535,2990.48049 L1419.29984,2990.48049 L1419.29984,2982.82283 C1419.29984,2982.82283 1393.96685,2968.29169 1392.05135,2955.74514 L1396.78388,2955.74514 L1396.78388,2947.62104 L1392.91684,2947.62104 C1395.03883,2942.19265 1400.01475,2935.40805 1405.72348,2924.73521 L1408.57038,2928.81618 L1416.9406,2922.91343 L1414.08668,2918.86238 C1431.44835,2913.62585 1469.35864,2891.91142 1470.91213,2802.21365 L1471,2797 L1442.96862,2797 Z" id="Fill-120-Copy"></path>
        </g>
    </g>
</svg>