<?xml version="1.0" encoding="UTF-8"?>
<svg width="484px" height="266px" viewBox="0 0 484 266" version="1.1" xmlns="http://www.w3.org/2000/svg" xmlns:xlink="http://www.w3.org/1999/xlink">
    <!-- Generator: Sketch 54.1 (76490) - https://sketchapp.com -->
    <title>Group 5 Copy</title>
    <desc>Created with Sketch.</desc>
    <g id="Page-1" stroke="none" stroke-width="1" fill="none" fill-rule="evenodd">
        <g id="Artboard-Copy-5" transform="translate(-336.000000, -2252.000000)">
            <g id="Group-5-Copy" transform="translate(336.000000, 2253.000000)">
                <g id="Group-9" transform="translate(45.500000, 0.000000)" stroke="#707070" stroke-linecap="square">
                    <path d="M0.88886,243.186095 L0.88886,0.341912929" id="Stroke-1" stroke-width="1.4"></path>
                    <path d="M110.36606,243.186095 L110.36606,0.341912929" id="Stroke-3" stroke-width="0.7"></path>
                    <path d="M218.3223,243.186095 L218.3223,0.341912929" id="Stroke-5" stroke-width="0.7"></path>
                    <path d="M327.79915,243.186095 L327.79915,0.341912929" id="Stroke-7" stroke-width="0.7"></path>
                </g>
                <path d="M47.14941,243.186095 L482.82731,243.186095" id="Stroke-10" stroke="#707070" stroke-width="1.4" stroke-linecap="square"></path>
                <g id="Group-17" transform="translate(0.700000, 6.292876)" fill="#242424">
                    <path d="M8.17432,9.51937335 C8.17432,7.83777704 6.96332,6.62674802 5.26162,6.62674802 C3.55992,6.62674802 2.30412,7.83777704 2.30412,9.47462401 C2.30412,11.1205607 3.58652,12.4287797 5.23502,12.4287797 C6.87442,12.4287797 8.17432,11.1380409 8.17432,9.51937335 M0.37142,7.4280409 C0.37142,3.10343668 2.21452,0.567407652 5.35962,0.567407652 C7.54222,0.567407652 9.22572,1.84066623 9.62612,3.80684037 L7.99652,3.80684037 C7.62202,2.6496504 6.66022,1.98260554 5.34142,1.98260554 C3.19522,1.98260554 1.97442,3.88655013 1.92052,7.30358179 L1.94712,7.30358179 C2.47282,6.14709103 3.79162,5.22133905 5.53742,5.22133905 C7.98742,5.22133905 9.80462,7.02809367 9.80462,9.4655343 C9.80462,12.0015633 7.88942,13.8523681 5.25252,13.8523681 C2.88302,13.8523681 0.37142,12.2064314 0.37142,7.4280409" id="Fill-11"></path>
                    <path d="M15.7745,0.576497361 C18.1524,0.576497361 19.7918,2.19586412 19.7918,4.14525726 C19.7918,5.55975594 19.1415,6.61835752 16.7804,9.03901715 L13.7249,12.1707718 L13.7249,12.2064314 L20.0053,12.2064314 L20.0053,13.6300198 L11.5255,13.6300198 L11.5255,12.5266689 L16.051,7.81120712 C17.7877,6.00445251 18.1881,5.31083773 18.1881,4.24244723 C18.1881,2.97967678 17.2445,1.97351583 15.7745,1.97351583 C14.1883,1.97351583 12.9948,3.05938654 12.9948,4.50045515 L11.4443,4.50045515 C11.4443,2.24970317 13.2979,0.576497361 15.7745,0.576497361" id="Fill-13"></path>
                    <path d="M33.47617,10.7559934 C33.47617,9.58132322 32.86157,8.79820976 31.93547,8.79820976 C31.00937,8.79820976 30.38567,9.58132322 30.38567,10.7559934 C30.38567,11.9306636 31.00937,12.713777 31.93547,12.713777 C32.86157,12.713777 33.47617,11.9306636 33.47617,10.7559934 L33.47617,10.7559934 Z M29.22787,10.7559934 C29.22787,8.94084828 30.31357,7.73051847 31.93547,7.73051847 C33.55667,7.73051847 34.63467,8.94084828 34.63467,10.7559934 C34.63467,12.5620488 33.55667,13.7716794 31.93547,13.7716794 C30.31357,13.7716794 29.22787,12.5620488 29.22787,10.7559934 L29.22787,10.7559934 Z M22.72487,13.6297401 L31.68557,0.790175462 L33.12897,0.790175462 L24.18577,13.6297401 L22.72487,13.6297401 Z M25.46817,3.66392216 C25.46817,2.48995119 24.85357,1.70683773 23.92677,1.70683773 C23.00067,1.70683773 22.37697,2.48995119 22.37697,3.66392216 C22.37697,4.83859235 23.00067,5.6217058 23.92677,5.6217058 C24.85357,5.6217058 25.46817,4.83859235 25.46817,3.66392216 L25.46817,3.66392216 Z M21.21847,3.66392216 C21.21847,1.84947625 22.30557,0.63844723 23.92677,0.63844723 C25.54867,0.63844723 26.62597,1.84947625 26.62597,3.66392216 C26.62597,5.46997757 25.54867,6.6810066 23.92677,6.6810066 C22.30557,6.6810066 21.21847,5.46997757 21.21847,3.66392216 L21.21847,3.66392216 Z" id="Fill-15"></path>
                </g>
                <polygon id="Fill-18" fill="#242424" points="7.76006 162.18035 7.72436 162.18035 4.32166 164.54717 4.32166 162.936893 7.74256 160.480574 9.31056 160.480574 9.31056 173.320838 7.76006 173.320838"></polygon>
                <polygon id="Fill-19" fill="#242424" points="19.1282 161.940032 19.1282 161.904372 12.2059 161.904372 12.2059 160.480784 20.7137 160.480784 20.7137 161.966602 14.9947 173.320348 13.3105 173.320348"></polygon>
                <g id="Group-38" transform="translate(11.200000, 160.118734)" fill="#242424">
                    <path d="M22.97477,10.3278681 C22.97477,9.15319789 22.36017,8.37008443 21.43407,8.37008443 C20.50797,8.37008443 19.88427,9.15319789 19.88427,10.3278681 C19.88427,11.5025383 20.50797,12.2856517 21.43407,12.2856517 C22.36017,12.2856517 22.97477,11.5025383 22.97477,10.3278681 L22.97477,10.3278681 Z M18.72647,10.3278681 C18.72647,8.51272296 19.81217,7.30239314 21.43407,7.30239314 C23.05527,7.30239314 24.13327,8.51272296 24.13327,10.3278681 C24.13327,12.1339235 23.05527,13.3442533 21.43407,13.3442533 C19.81217,13.3442533 18.72647,12.1339235 18.72647,10.3278681 L18.72647,10.3278681 Z M12.22347,13.2016148 L21.18417,0.362050132 L22.62757,0.362050132 L13.68437,13.2016148 L12.22347,13.2016148 Z M14.96677,3.23579683 C14.96677,2.06182586 14.35217,1.2787124 13.42537,1.2787124 C12.49927,1.2787124 11.87557,2.06182586 11.87557,3.23579683 C11.87557,4.41046702 12.49927,5.19358047 13.42537,5.19358047 C14.35217,5.19358047 14.96677,4.41046702 14.96677,3.23579683 L14.96677,3.23579683 Z M10.71707,3.23579683 C10.71707,1.42135092 11.80417,0.2103219 13.42537,0.2103219 C15.04727,0.2103219 16.12457,1.42135092 16.12457,3.23579683 C16.12457,5.04185224 15.04727,6.25288127 13.42537,6.25288127 C11.80417,6.25288127 10.71707,5.04185224 10.71707,3.23579683 L10.71707,3.23579683 Z" id="Fill-20"></path>
                    <path d="M7.89334,82.7177573 C7.89334,79.5587335 6.77054,77.4946702 4.78464,77.4946702 C2.79804,77.4946702 1.65774,79.5769129 1.65774,82.7086675 C1.65774,85.9124406 2.77144,87.9590237 4.78464,87.9590237 C6.78874,87.9590237 7.89334,85.9215303 7.89334,82.7177573 M0.04564,82.7177573 C0.04564,78.6959103 1.80054,76.0892612 4.78464,76.0892612 C7.76874,76.0892612 9.50614,78.6784301 9.50614,82.7086675 C9.50614,86.7668734 7.77784,89.3560422 4.78464,89.3560422 C1.78304,89.3560422 0.04564,86.7759631 0.04564,82.7177573" id="Fill-22"></path>
                    <path d="M22.97617,86.2684077 C22.97617,85.0937375 22.36157,84.310624 21.43547,84.310624 C20.50937,84.310624 19.88567,85.0937375 19.88567,86.2684077 C19.88567,87.4430778 20.50937,88.2261913 21.43547,88.2261913 C22.36157,88.2261913 22.97617,87.4430778 22.97617,86.2684077 L22.97617,86.2684077 Z M18.72787,86.2684077 C18.72787,84.4532625 19.81357,83.2429327 21.43547,83.2429327 C23.05667,83.2429327 24.13467,84.4532625 24.13467,86.2684077 C24.13467,88.0744631 23.05667,89.2847929 21.43547,89.2847929 C19.81357,89.2847929 18.72787,88.0744631 18.72787,86.2684077 L18.72787,86.2684077 Z M12.22487,89.1421544 L21.18557,76.3025897 L22.62897,76.3025897 L13.68577,89.1421544 L12.22487,89.1421544 Z M14.96817,79.1763364 C14.96817,78.0023654 14.35357,77.219252 13.42677,77.219252 C12.50067,77.219252 11.87697,78.0023654 11.87697,79.1763364 C11.87697,80.3510066 12.50067,81.1341201 13.42677,81.1341201 C14.35357,81.1341201 14.96817,80.3510066 14.96817,79.1763364 L14.96817,79.1763364 Z M10.71847,79.1763364 C10.71847,77.3618905 11.80557,76.1508615 13.42677,76.1508615 C15.04867,76.1508615 16.12597,77.3618905 16.12597,79.1763364 C16.12597,80.9823918 15.04867,82.1934208 13.42677,82.1934208 C11.80557,82.1934208 10.71847,80.9823918 10.71847,79.1763364 L10.71847,79.1763364 Z" id="Fill-24"></path>
                    <path d="M121.22635,91.2755792 C123.60425,91.2755792 125.24365,92.8949459 125.24365,94.8443391 C125.24365,96.2588377 124.59335,97.3174393 122.23225,99.7380989 L119.17675,102.869854 L119.17675,102.905513 L125.45715,102.905513 L125.45715,104.329102 L116.97735,104.329102 L116.97735,103.225751 L121.50285,98.5102889 C123.23955,96.7035343 123.63995,96.0099195 123.63995,94.941529 C123.63995,93.6787586 122.69635,92.6725976 121.22635,92.6725976 C119.64015,92.6725976 118.44665,93.7584683 118.44665,95.1995369 L116.89615,95.1995369 C116.89615,92.948785 118.74975,91.2755792 121.22635,91.2755792" id="Fill-26"></path>
                    <path d="M134.90981,97.9043549 C134.90981,94.7453311 133.78701,92.6812678 131.80111,92.6812678 C129.81451,92.6812678 128.67421,94.7635106 128.67421,97.8952652 C128.67421,101.099038 129.78791,103.145621 131.80111,103.145621 C133.80521,103.145621 134.90981,101.108128 134.90981,97.9043549 M127.06211,97.9043549 C127.06211,93.8825079 128.81701,91.2758588 131.80111,91.2758588 C134.78521,91.2758588 136.52261,93.8650277 136.52261,97.8952652 C136.52261,101.953471 134.79431,104.54264 131.80111,104.54264 C128.79951,104.54264 127.06211,101.962561 127.06211,97.9043549" id="Fill-28"></path>
                    <path d="M138.27037,103.403839 C138.27037,102.834683 138.71557,102.389288 139.28537,102.389288 C139.85587,102.389288 140.30107,102.834683 140.30107,103.403839 C140.30107,103.972995 139.85587,104.417691 139.28537,104.417691 C138.71557,104.417691 138.27037,103.972995 138.27037,103.403839" id="Fill-30"></path>
                    <path d="M146.8495,97.9132348 C146.8495,101.072958 148.4973,103.065702 151.1251,103.065702 C153.7536,103.065702 155.4014,101.072958 155.4014,97.9132348 C155.4014,94.7458206 153.7536,92.7523773 151.1251,92.7523773 C148.4973,92.7523773 146.8495,94.7458206 146.8495,97.9132348 M157.0492,97.9132348 C157.0492,101.988921 154.7686,104.54243 151.1251,104.54243 C147.4823,104.54243 145.2017,101.988921 145.2017,97.9132348 C145.2017,93.838248 147.4823,91.2756491 151.1251,91.2756491 C154.7686,91.2756491 157.0492,93.838248 157.0492,97.9132348" id="Fill-32"></path>
                    <polygon id="Fill-34" points="164.53402 95.0754274 166.41352 95.0754274 162.39552 99.0707045 166.53812 104.328752 164.73842 104.328752 161.30002 100.022327 160.43622 100.8411 160.43622 104.328752 158.88642 104.328752 158.88642 91.4891873 160.43622 91.4891873 160.43622 99.1860739"></polygon>
                    <path d="M169.71094,92.8419459 L169.71094,95.0752177 L171.50994,95.0752177 L171.50994,96.347777 L169.71094,96.347777 L169.71094,101.846352 C169.71094,102.691695 170.06724,103.074861 170.86034,103.074861 C171.03814,103.074861 171.39444,103.048292 171.50154,103.029413 L171.50154,104.329241 C171.31394,104.373292 170.88694,104.399861 170.52154,104.399861 C168.82054,104.399861 168.16044,103.706247 168.16044,101.926761 L168.16044,96.347777 L166.78004,96.347777 L166.78004,95.0752177 L168.16044,95.0752177 L168.16044,92.8419459 L169.71094,92.8419459 Z" id="Fill-36"></path>
                </g>
                <polygon id="Fill-39" fill="#242424" points="240.20276 253.307557 240.16706 253.307557 236.76436 255.674377 236.76436 254.0641 240.18526 251.607781 241.75326 251.607781 241.75326 264.448045 240.20276 264.448045"></polygon>
                <g id="Group-68" transform="translate(0.000000, 82.506596)" fill="#242424">
                    <path d="M249.26447,168.887716 C251.64167,168.887716 253.28107,170.507083 253.28107,172.456476 C253.28107,173.870975 252.63077,174.929577 250.27037,177.350236 L247.21487,180.481991 L247.21487,180.51765 L253.49457,180.51765 L253.49457,181.941239 L245.01547,181.941239 L245.01547,180.837888 L249.54097,176.122426 C251.27697,174.315672 251.67737,173.622057 251.67737,172.553666 C251.67737,171.290896 250.73447,170.284735 249.26447,170.284735 C247.67827,170.284735 246.48477,171.370606 246.48477,172.811674 L244.93427,172.811674 C244.93427,170.560922 246.78717,168.887716 249.26447,168.887716" id="Fill-40"></path>
                    <path d="M255.59863,181.015976 C255.59863,180.446821 256.04453,180.001425 256.61433,180.001425 C257.18483,180.001425 257.63003,180.446821 257.63003,181.015976 C257.63003,181.585132 257.18483,182.029828 256.61433,182.029828 C256.04453,182.029828 255.59863,181.585132 255.59863,181.015976" id="Fill-42"></path>
                    <polygon id="Fill-44" points="263.02934 181.941169 263.02934 169.101604 270.83294 169.101604 270.83294 170.542673 264.63304 170.542673 264.63304 174.956077 270.32474 174.956077 270.32474 176.379665 264.63304 176.379665 264.63304 181.941169"></polygon>
                    <path d="M273.21217,176.522303 L278.24447,176.522303 C278.20947,174.974256 277.23857,173.870905 275.77837,173.870905 C274.32517,173.870905 273.31087,174.983346 273.21217,176.522303 L273.21217,176.522303 Z M279.73197,179.28977 C279.46597,180.908438 277.89727,182.101288 275.87567,182.101288 C273.22197,182.101288 271.60847,180.259573 271.60847,177.350166 C271.60847,174.47572 273.24787,172.527026 275.80427,172.527026 C278.30747,172.527026 279.84817,174.342172 279.84817,177.145298 L279.84817,177.731934 L273.20377,177.731934 L273.20377,177.821433 C273.20377,179.592528 274.24607,180.758108 275.91067,180.758108 C277.08667,180.758108 277.95117,180.161683 278.20947,179.28977 L279.73197,179.28977 Z" id="Fill-46"></path>
                    <path d="M283.02995,177.314367 C283.02995,179.37843 284.14435,180.739789 285.71235,180.739789 C287.35035,180.739789 288.36605,179.43157 288.36605,177.314367 C288.36605,175.213945 287.35035,173.888945 285.71235,173.888945 C284.14435,173.888945 283.02995,175.259393 283.02995,177.314367 M283.00405,180.374802 L282.96835,180.374802 L282.96835,181.941029 L281.48925,181.941029 L281.48925,169.101464 L283.03975,169.101464 L283.03975,174.235752 L283.07475,174.235752 C283.65365,173.176451 284.73235,172.526887 286.04205,172.526887 C288.37585,172.526887 289.95225,174.41405 289.95225,177.314367 C289.95225,180.223773 288.38355,182.101847 286.01475,182.101847 C284.66095,182.101847 283.59975,181.442493 283.00405,180.374802" id="Fill-48"></path>
                    <path d="M353.3936,175.516492 C353.3936,172.357468 352.2708,170.293405 350.2849,170.293405 C348.2983,170.293405 347.158,172.375648 347.158,175.507402 C347.158,178.711175 348.271,180.757759 350.2849,180.757759 C352.289,180.757759 353.3936,178.720265 353.3936,175.516492 M345.5459,175.516492 C345.5459,171.494645 347.3001,168.887996 350.2849,168.887996 C353.269,168.887996 355.0057,171.477165 355.0057,175.507402 C355.0057,179.565608 353.2774,182.154777 350.2849,182.154777 C347.2826,182.154777 345.5459,179.574698 345.5459,175.516492" id="Fill-50"></path>
                    <path d="M363.87036,172.411727 C363.87036,171.147558 362.80286,170.267255 361.26986,170.267255 C359.73756,170.267255 358.66796,171.156648 358.66796,172.411727 C358.66796,173.657017 359.73756,174.53802 361.26986,174.53802 C362.79306,174.53802 363.87036,173.657017 363.87036,172.411727 M364.29806,178.354999 C364.29806,176.9405 363.04156,175.944128 361.26986,175.944128 C359.50656,175.944128 358.24166,176.948891 358.24166,178.354999 C358.24166,179.752017 359.50656,180.758178 361.26986,180.758178 C363.04156,180.758178 364.29806,179.752017 364.29806,178.354999 M356.61066,178.471067 C356.61066,176.869181 357.71526,175.552571 359.37216,175.169405 L359.37216,175.134445 C357.95606,174.698838 357.07406,173.612967 357.07406,172.259999 C357.07406,170.320394 358.85556,168.887716 361.26986,168.887716 C363.70236,168.887716 365.45656,170.311305 365.45656,172.269088 C365.45656,173.603877 364.59206,174.679959 363.16756,175.134445 L363.16756,175.169405 C364.83286,175.561661 365.93746,176.87827 365.93746,178.471067 C365.93746,180.62393 363.99636,182.155197 361.26986,182.155197 C358.55316,182.155197 356.61066,180.61484 356.61066,178.471067" id="Fill-52"></path>
                    <path d="M367.7737,181.015976 C367.7737,180.446821 368.2196,180.001425 368.7894,180.001425 C369.3599,180.001425 369.8051,180.446821 369.8051,181.015976 C369.8051,181.585132 369.3599,182.029828 368.7894,182.029828 C368.2196,182.029828 367.7737,181.585132 367.7737,181.015976" id="Fill-54"></path>
                    <path d="M375.92625,178.924504 C375.96195,180.010375 376.79005,180.766918 377.95625,180.766918 C379.37305,180.766918 380.14025,179.921575 380.14025,178.355348 L380.14025,169.101325 L381.74255,169.101325 L381.74255,178.363739 C381.74255,180.802578 380.33555,182.243646 377.96605,182.243646 C375.82755,182.243646 374.33095,180.873198 374.33095,178.924504 L375.92625,178.924504 Z" id="Fill-56"></path>
                    <path d="M391.60513,181.941169 L390.13513,181.941169 L390.13513,180.437871 L390.10013,180.437871 C389.54783,181.504863 388.58673,182.101288 387.16013,182.101288 C385.13853,182.101288 383.95273,180.793069 383.95273,178.693346 L383.95273,172.687844 L385.50323,172.687844 L385.50323,178.417858 C385.50323,179.921156 386.20743,180.731538 387.64173,180.731538 C389.14673,180.731538 390.05603,179.698807 390.05603,178.12419 L390.05603,172.687844 L391.60513,172.687844 L391.60513,181.941169 Z" id="Fill-58"></path>
                    <path d="M393.61077,172.687565 L395.07237,172.687565 L395.07237,174.164293 L395.10807,174.164293 C395.62467,173.167921 396.61307,172.527446 398.04737,172.527446 C400.07737,172.527446 401.25337,173.835665 401.25337,175.935388 L401.25337,181.940889 L399.70427,181.940889 L399.70427,176.210876 C399.70427,174.715968 399.00007,173.897195 397.57417,173.897195 C396.11397,173.897195 395.16127,174.929227 395.16127,176.495454 L395.16127,181.940889 L393.61077,181.940889 L393.61077,172.687565 Z" id="Fill-60"></path>
                    <path d="M3.44043,6.05067018 L4.98113,6.05067018 C6.51413,6.05067018 7.58233,5.10743799 7.58233,3.82648813 C7.58233,2.55392876 6.78083,1.69110554 5.13303,1.69110554 C3.61823,1.69110554 2.49613,2.49169921 2.39813,3.88032718 L0.85743,3.88032718 C1.03453,1.69949604 2.72713,0.302477573 5.13303,0.302477573 C7.70763,0.302477573 9.19513,1.77990501 9.19513,3.61322955 C9.19513,5.20532718 8.08143,6.29958839 6.46863,6.63800528 L6.46863,6.67436412 C8.33973,6.83378364 9.61373,7.99936412 9.61373,9.82359894 C9.61373,12.0303008 7.67193,13.5699578 5.15053,13.5699578 C2.48703,13.5699578 0.71393,12.0841398 0.59843,9.95714776 L2.13983,9.95714776 C2.23783,11.3185066 3.44043,12.182029 5.15053,12.182029 C6.84313,12.182029 7.97503,11.2213166 7.98343,9.87743799 C7.99253,8.29303166 6.86133,7.40363852 5.05323,7.40363852 L3.44043,7.40363852 L3.44043,6.05067018 Z" id="Fill-62"></path>
                    <path d="M18.63876,3.82669789 C18.63876,2.56252902 17.57056,1.68222559 16.03756,1.68222559 C14.50596,1.68222559 13.43636,2.57161873 13.43636,3.82669789 C13.43636,5.07198813 14.50596,5.95299077 16.03756,5.95299077 C17.56146,5.95299077 18.63876,5.07198813 18.63876,3.82669789 M19.06646,9.76996966 C19.06646,8.35547098 17.80996,7.35909894 16.03756,7.35909894 C14.27426,7.35909894 13.00936,8.36386148 13.00936,9.76996966 C13.00936,11.1669881 14.27426,12.1731491 16.03756,12.1731491 C17.80996,12.1731491 19.06646,11.1669881 19.06646,9.76996966 M11.37906,9.88603826 C11.37906,8.28415172 12.48366,6.96754222 14.14056,6.58437599 L14.14056,6.54941557 C12.72446,6.11380871 11.84176,5.02793799 11.84176,3.67496966 C11.84176,1.73536544 13.62396,0.302687335 16.03756,0.302687335 C18.47006,0.302687335 20.22496,1.72627573 20.22496,3.68405937 C20.22496,5.01884828 19.36046,6.09562929 17.93526,6.54941557 L17.93526,6.58437599 C19.60126,6.97663193 20.70586,8.29324142 20.70586,9.88603826 C20.70586,12.0389011 18.76406,13.5701675 16.03756,13.5701675 C13.32086,13.5701675 11.37906,12.0298113 11.37906,9.88603826" id="Fill-64"></path>
                    <path d="M34.17547,10.4821834 C34.17547,9.30751319 33.56087,8.52439974 32.63477,8.52439974 C31.70867,8.52439974 31.08497,9.30751319 31.08497,10.4821834 C31.08497,11.6568536 31.70867,12.439967 32.63477,12.439967 C33.56087,12.439967 34.17547,11.6568536 34.17547,10.4821834 L34.17547,10.4821834 Z M29.92717,10.4821834 C29.92717,8.66703826 31.01287,7.45670844 32.63477,7.45670844 C34.25597,7.45670844 35.33327,8.66703826 35.33327,10.4821834 C35.33327,12.2882388 34.25597,13.4985686 32.63477,13.4985686 C31.01287,13.4985686 29.92717,12.2882388 29.92717,10.4821834 L29.92717,10.4821834 Z M23.42417,13.3559301 L32.38487,0.516365435 L33.82827,0.516365435 L24.88507,13.3559301 L23.42417,13.3559301 Z M26.16747,3.39011214 C26.16747,2.21614116 25.55287,1.4330277 24.62607,1.4330277 C23.69997,1.4330277 23.07697,2.21614116 23.07697,3.39011214 C23.07697,4.56478232 23.69997,5.34789578 24.62607,5.34789578 C25.55287,5.34789578 26.16747,4.56478232 26.16747,3.39011214 L26.16747,3.39011214 Z M21.91777,3.39011214 C21.91777,1.57566623 23.00487,0.364637203 24.62607,0.364637203 C26.24797,0.364637203 27.32527,1.57566623 27.32527,3.39011214 C27.32527,5.19616755 26.24797,6.40719657 24.62607,6.40719657 C23.00487,6.40719657 21.91777,5.19616755 21.91777,3.39011214 L21.91777,3.39011214 Z" id="Fill-66"></path>
                </g>
                <path d="M46.38886,13.8484525 L482.82696,13.8484525" id="Stroke-69" stroke="#707070" stroke-width="0.7" stroke-linecap="square"></path>
                <path d="M46.38886,89.7883628 L482.82696,89.7883628" id="Stroke-70" stroke="#707070" stroke-width="0.7" stroke-linecap="square"></path>
                <path d="M46.38886,167.246884 L482.82696,167.246884" id="Stroke-71" stroke="#707070" stroke-width="0.7" stroke-linecap="square"></path>
                <path d="M82.88119,209.772951 C85.40049,209.772951 87.44309,211.813241 87.44309,214.329693 C87.44309,216.845445 85.40049,218.885735 82.88119,218.885735 C80.36189,218.885735 78.31999,216.845445 78.31999,214.329693 C78.31999,211.813241 80.36189,209.772951 82.88119,209.772951" id="Fill-72" fill="#242424"></path>
                <path d="M102.648,186.991342 C105.1673,186.991342 107.2099,189.030933 107.2099,191.547384 C107.2099,194.063835 105.1673,196.103426 102.648,196.103426 C100.1287,196.103426 98.0861,194.063835 98.0861,191.547384 C98.0861,189.030933 100.1287,186.991342 102.648,186.991342" id="Fill-74" fill="#242424"></path>
                <path d="M137.61993,190.028493 C140.13923,190.028493 142.18113,192.068784 142.18113,194.585235 C142.18113,197.100987 140.13923,199.141277 137.61993,199.141277 C135.10063,199.141277 133.05803,197.100987 133.05803,194.585235 C133.05803,192.068784 135.10063,190.028493 137.61993,190.028493" id="Fill-76" fill="#242424"></path>
                <path d="M158.90707,174.840497 C161.42637,174.840497 163.46897,176.880788 163.46897,179.397239 C163.46897,181.912991 161.42637,183.953281 158.90707,183.953281 C156.38777,183.953281 154.34517,181.912991 154.34517,179.397239 C154.34517,176.880788 156.38777,174.840497 158.90707,174.840497" id="Fill-78" fill="#242424"></path>
                <path d="M190.83771,156.61535 C193.35701,156.61535 195.39961,158.654941 195.39961,161.172091 C195.39961,163.687843 193.35701,165.727434 190.83771,165.727434 C188.31841,165.727434 186.27581,163.687843 186.27581,161.172091 C186.27581,158.654941 188.31841,156.61535 190.83771,156.61535" id="Fill-80" fill="#242424"></path>
                <path d="M210.60452,138.389503 C213.12382,138.389503 215.16642,140.429793 215.16642,142.946244 C215.16642,145.461996 213.12382,147.502286 210.60452,147.502286 C208.08522,147.502286 206.04262,145.461996 206.04262,142.946244 C206.04262,140.429793 208.08522,138.389503 210.60452,138.389503" id="Fill-82" fill="#242424"></path>
                <path d="M236.45321,144.464575 C238.97251,144.464575 241.01511,146.504865 241.01511,149.021317 C241.01511,151.537768 238.97251,153.577359 236.45321,153.577359 C233.93391,153.577359 231.89131,151.537768 231.89131,149.021317 C231.89131,146.504865 233.93391,144.464575 236.45321,144.464575" id="Fill-84" fill="#242424"></path>
                <path d="M266.86366,127.757968 C269.38296,127.757968 271.42556,129.798259 271.42556,132.31471 C271.42556,134.830462 269.38296,136.870752 266.86366,136.870752 C264.34436,136.870752 262.30176,134.830462 262.30176,132.31471 C262.30176,129.798259 264.34436,127.757968 266.86366,127.757968" id="Fill-86" fill="#242424"></path>
                <path d="M282.06878,101.938508 C284.58808,101.938508 286.63068,103.978798 286.63068,106.495249 C286.63068,109.011001 284.58808,111.051292 282.06878,111.051292 C279.54878,111.051292 277.50688,109.011001 277.50688,106.495249 C277.50688,103.978798 279.54878,101.938508 282.06878,101.938508" id="Fill-88" fill="#242424"></path>
                <path d="M300.31463,60.9309815 C302.83463,60.9309815 304.87653,62.9712718 304.87653,65.487723 C304.87653,68.0034749 302.83463,70.0437652 300.31463,70.0437652 C297.79533,70.0437652 295.75273,68.0034749 295.75273,65.487723 C295.75273,62.9712718 297.79533,60.9309815 300.31463,60.9309815" id="Fill-90" fill="#242424"></path>
                <path d="M318.56111,70.043905 C321.08041,70.043905 323.12301,72.083496 323.12301,74.6006464 C323.12301,77.1163984 321.08041,79.1566887 318.56111,79.1566887 C316.04181,79.1566887 313.99921,77.1163984 313.99921,74.6006464 C313.99921,72.083496 316.04181,70.043905 318.56111,70.043905" id="Fill-92" fill="#242424"></path>
                <path d="M345.93013,117.126504 C348.45013,117.126504 350.49203,119.166794 350.49203,121.683245 C350.49203,124.198997 348.45013,126.239288 345.93013,126.239288 C343.41083,126.239288 341.36823,124.198997 341.36823,121.683245 C341.36823,119.166794 343.41083,117.126504 345.93013,117.126504" id="Fill-94" fill="#242424"></path>
                <path d="M376.34051,54.855909 C378.85981,54.855909 380.90241,56.8955 380.90241,59.4126504 C380.90241,61.9284024 378.85981,63.9686926 376.34051,63.9686926 C373.82121,63.9686926 371.77861,61.9284024 371.77861,59.4126504 C371.77861,56.8955 373.82121,54.855909 376.34051,54.855909" id="Fill-96" fill="#242424"></path>
                <path d="M400.66894,117.126504 C403.18824,117.126504 405.23084,119.166794 405.23084,121.683245 C405.23084,124.198997 403.18824,126.239288 400.66894,126.239288 C398.14894,126.239288 396.10704,124.198997 396.10704,121.683245 C396.10704,119.166794 398.14894,117.126504 400.66894,117.126504" id="Fill-98" fill="#242424"></path>
                <path d="M426.51763,91.3069736 C429.03693,91.3069736 431.07953,93.3472639 431.07953,95.863715 C431.07953,98.379467 429.03693,100.419757 426.51763,100.419757 C423.99763,100.419757 421.95573,98.379467 421.95573,95.863715 C421.95573,93.3472639 423.99763,91.3069736 426.51763,91.3069736" id="Fill-100" fill="#242424"></path>
                <polyline id="Stroke-102" stroke="#242424" stroke-width="2.8" points="82.88119 214.329413 102.64779 191.547104 137.61979 194.585165 158.90679 179.396959 190.83799 161.172091 210.60459 142.945825 236.45349 149.021247 266.86359 132.31436 282.06899 106.49469 300.31449 65.4875132 318.56139 74.6002968 345.92999 121.682896 376.34079 59.412091 400.66859 122.770864 426.51749 96.9511939"></polyline>
            </g>
        </g>
    </g>
</svg>