<svg id="Layer_1" data-name="Layer 1" xmlns="http://www.w3.org/2000/svg" viewBox="0 0 67.62 67.62"><defs><style>.cls-1{fill:none;}.cls-2{fill:#fff;}</style></defs><g id="Group_3" data-name="Group 3"><path id="Clip_2-3" data-name="Clip 2-3" class="cls-1" d="M0,0H67.62V67.62H0Z"/><g id="Group_3-2" data-name="Group 3-2"><path id="Fill_1-2" data-name="Fill 1-2" class="cls-2" d="M48.37,68H19.25A19.26,19.26,0,0,1,0,48.7V19.58A19.26,19.26,0,0,1,19.25.33H48.37A19.26,19.26,0,0,1,67.62,19.58V48.7A19.26,19.26,0,0,1,48.37,68ZM19.25,6.13A13.46,13.46,0,0,0,5.8,19.58V48.7A13.46,13.46,0,0,0,19.25,62.15H48.37A13.45,13.45,0,0,0,61.82,48.7V19.58A13.46,13.46,0,0,0,48.37,6.13Z"/></g></g><path id="Fill_4" data-name="Fill 4" class="cls-2" d="M33.21,50.48A17.27,17.27,0,1,1,50.48,33.21,17.27,17.27,0,0,1,33.21,50.48Zm0-28.76A11.49,11.49,0,1,0,44.69,33.21h0A11.5,11.5,0,0,0,33.21,21.72Z"/><path id="Fill_6" data-name="Fill 6" class="cls-2" d="M55.79,14.61a4,4,0,1,1-4-4,4,4,0,0,1,4,4h0"/></svg>