<?xml version="1.0" encoding="utf-8"?>
<!-- Generator: Adobe Illustrator 23.0.3, SVG Export Plug-In . SVG Version: 6.00 Build 0)  -->
<svg version="1.1" id="Ebene_1" xmlns="http://www.w3.org/2000/svg" xmlns:xlink="http://www.w3.org/1999/xlink" x="0px" y="0px"
	 viewBox="0 0 1295 2492" style="enable-background:new 0 0 1295 2492;" xml:space="preserve">
<style type="text/css">
	.st0{fill-rule:evenodd;clip-rule:evenodd;fill:#FFFFFF;}
	.st1{fill-rule:evenodd;clip-rule:evenodd;fill:#191919;}
	.st2{opacity:0.25;fill-rule:evenodd;clip-rule:evenodd;fill:#FFFFFF;enable-background:new    ;}
	.st3{fill-rule:evenodd;clip-rule:evenodd;fill:#222222;}
	.st4{fill-rule:evenodd;clip-rule:evenodd;fill:#3E3E3E;}
</style>
<g>
	<g transform="translate(0 349.404)">
		<path class="st0" d="M13.3,0.2v100.1H6.1c-2.2,0-6.2-2.7-6.2-4.6V4.4c0-2,4.3-4.2,6-4.2C5.9,0.2,13.3,0.2,13.3,0.2z M14.8,182.4
			v192.7h-4.2c-2.2,0-9.2-5.6-9.2-7.5v-178c0-2,7.3-7.2,9-7.2L14.8,182.4L14.8,182.4z M1281.7,246.7v301.8h4.2
			c2.2,0,9.2-5.6,9.2-7.5V253.9c0-2-7.3-7.2-9-7.2H1281.7z M14.8,420v191.2h-4.2c-2.2,0-9.2-5.6-9.2-7.5V427.1c0-2,7.3-7.1,9-7.1
			H14.8z"/>
	</g>
	<g transform="translate(8)">
		<path class="st0" d="M1279.7,193.7C1279.7,86.8,1193,0,1086.3,0h-892C87.5,0,0.9,86.8,0.9,193.7v154.4c0,0,3,1.5,3,4.5
			c0,0.1,0,34.8,0,47.8c0,10.9,0,46.4,0,46.4c0,3.1-3,4.5-3,4.5v79.2c0,0,4.5,0.1,4.5,14.9c0,29.9,0,153.9,0,165.8
			c-0.1,14.8-4.5,14.9-4.5,14.9v41.8c0,0,4.5,0.1,4.5,14.9c0.1,29.9,0,159.6,0,164.3c-0.1,14.9-4.5,15-4.5,15v1336.2
			c0,106.9,86.6,193.7,193.4,193.7h892c106.8,0,193.4-86.8,193.4-193.7v-1399c0,0-3-1.7-3-20.9c0-48.7-0.1-224.4,0-271.9
			c0-11.9,3-13.4,3-13.4V193.7z"/>
		<path class="st1" d="M1258.8,191.5c0-95-77-172.1-171.8-172.1H192.1c-94.8,0-171.9,77.1-171.9,172.1v2109
			c0,95,77,172.1,171.9,172.1h894.8c94.8,0,171.8-77.1,171.8-172.1L1258.8,191.5L1258.8,191.5z"/>
		<path class="st2" d="M558.9,2492c0,0,10.6-8.7,17-8.7c36.1-0.1,36-0.1,62.3-0.1c25.6,0,25.6,0,65.7,0.1c6.7,0,18,8.7,18,8.7H558.9
			z"/>
	</g>
	<path class="st3" d="M1095.1,2460.6H201.3c-88.9,0-161.1-72.3-161.1-161.3V192.6c0-89,72.2-161.3,161.1-161.3h893.9
		c88.9,0,161.1,72.3,161.1,161.3v2106.7C1256.2,2388.3,1184.1,2460.5,1095.1,2460.6z"/>
	<path class="st3" d="M1096.5,2414c63.4,0,114.4-51.4,114.4-114.6V192.6c0-63.3-51-114.6-114.4-114.6h-116c-9.6,0-17.9,6.8-18,17.9
		c0,3.4,6,75.9-78.7,76.1l-235.5-0.5L412.9,172c-84.7-0.2-78.6-72.7-78.7-76.1c-0.1-11.1-8.3-17.9-18-17.9H200.3
		c-63.4,0-114.4,51.4-114.4,114.6v2106.7c0,63.3,51,114.6,114.4,114.6L1096.5,2414L1096.5,2414z"/>
	<path class="st3" d="M1095.1,2460.6H201.3c-88.9,0-161.1-72.3-161.1-161.3V192.6c0-89,72.2-161.3,161.1-161.3h893.9
		c88.9,0,161.1,72.3,161.1,161.3v2106.7C1256.2,2388.3,1184.1,2460.5,1095.1,2460.6z M1096.5,2414c63.4,0,114.4-51.4,114.4-114.6
		V192.6c0-63.3-51-114.6-114.4-114.6h-116c-9.6,0-17.9,6.8-18,17.9c0,3.4,6,75.9-78.7,76.1l-235.5-0.5L412.9,172
		c-84.7-0.2-78.6-72.7-78.7-76.1c-0.1-11.1-8.3-17.9-18-17.9H200.3c-63.4,0-114.4,51.4-114.4,114.6v2106.7
		c0,63.3,51,114.6,114.4,114.6L1096.5,2414L1096.5,2414z"/>
	<g transform="translate(569 83.096)">
		<path class="st4" d="M0.1,20.7c0,6.6,4.1,10.5,9.1,10.5h138.4c5,0,9.1-3.9,9.1-10.5s-4.1-10.5-9.1-10.5H9.3
			C4.2,10.3,0.1,14.1,0.1,20.7z M195.6,20.7c0,11.1,9,20.2,20.1,20.2s20.1-9,20.1-20.2c0-11.1-9-20.2-20.1-20.2
			C204.6,0.6,195.6,9.6,195.6,20.7z"/>
	</g>
</g>
</svg>
