<?xml version="1.0" encoding="utf-8"?>
<!-- Generator: Adobe Illustrator 23.0.3, SVG Export Plug-In . SVG Version: 6.00 Build 0)  -->
<svg version="1.1" id="Ebene_1" xmlns="http://www.w3.org/2000/svg" xmlns:xlink="http://www.w3.org/1999/xlink" x="0px" y="0px"
	 viewBox="0 0 1040 322" style="enable-background:new 0 0 1040 322;" xml:space="preserve">
<style type="text/css">
	.st0{fill-rule:evenodd;clip-rule:evenodd;fill:#FFFFFF;}
</style>
<title>Combined Shape</title>
<desc>Created with Sketch.</desc>
<g id="Page-1">
	<g id="Marke" transform="translate(-10.000000, -10.000000)">
		<path id="Combined-Shape" class="st0" d="M913,165.5c1-0.9,2.5-0.7,3.4,0.3l101.4,120.1c0.9,1,0.7,2.5-0.3,3.4l-22.3,18.6
			c-1,0.9-2.5,0.7-3.4-0.3L890.4,187.5c-0.9-1-0.7-2.5,0.3-3.4L913,165.5z M950.4,163.9c1-0.9,2.6-0.7,3.4,0.3l75.6,89.5
			c0.9,1,0.7,2.5-0.3,3.4l-13,10.8c-1,0.9-2.6,0.7-3.4-0.3l-75.6-89.5c-0.9-1-0.7-2.5,0.3-3.4L950.4,163.9z M993.1,173.9
			c1-0.9,2.5-0.7,3.3,0.3l31.3,37.8c0.8,1,0.7,2.5-0.3,3.4l-10.7,9.1c-1,0.9-2.5,0.7-3.3-0.3l-31.3-37.8c-0.8-1-0.7-2.5,0.3-3.4
			L993.1,173.9z M121.1,109.5c17.6,0,30.6,5.4,39,16.2s12.9,27.2,13.4,49.1v35.9c0,19.9-0.3,32.4-0.8,37.4
			c-0.8,21.1-5,37.1-12.8,47.8c-7.8,10.7-20.5,16-38.1,16c-15.3,0-27.2-5.1-35.6-15.3c-0.5-0.8-1-1-1.5-0.8
			c-0.5,0.3-0.8,0.8-0.8,1.5v6.9c0,1.3-0.4,2.4-1.3,3.2c-0.9,0.9-2,1.3-3.3,1.3H34.6c-1.3,0-2.4-0.4-3.3-1.3c-0.9-0.9-1.3-2-1.3-3.2
			V46c0-1.3,0.4-2.4,1.3-3.2c0.9-0.9,2-1.3,3.3-1.3h44.8c1.3,0,2.4,0.4,3.3,1.3c0.9,0.9,1.3,2,1.3,3.2v79.1c0,0.5,0.3,0.8,0.8,0.8
			c0.8,0,1.9-0.9,3.4-2.7C96.6,114.1,107.5,109.5,121.1,109.5z M119.5,245.5c0.3-7.6,0.4-19.4,0.4-35.2s-0.3-27.4-0.8-34.8
			c-0.5-6.4-2.3-11.3-5.4-14.9c-3.1-3.6-7.1-5.3-12.2-5.3s-9.1,1.8-12.1,5.5c-2.9,3.7-4.7,8.7-5.2,15.1l-0.4,6.9v62.7
			c0.5,6.4,2.4,11.4,5.5,15.1c3.2,3.7,7.3,5.5,12.4,5.5c5.4,0,9.5-1.8,12.4-5.5C117.3,256.9,119,251.9,119.5,245.5z M338,223.7
			c0,1.3-0.4,2.4-1.3,3.2s-2,1.3-3.3,1.3h-84.2c-1.3,0-1.9,0.6-1.9,1.9V244c0,6.4,1.7,11.7,5.2,15.9c3.4,4.2,7.8,6.3,13.2,6.3
			c4.6,0,8.5-1.6,11.7-4.8c3.2-3.2,5.3-7.2,6.3-12c0.8-3.3,2.6-4.7,5.4-4.2l43.6,4.6c3.1,0.5,4.5,2.2,4.2,5
			c-1.5,18.1-8.4,32.2-20.5,42.2s-29,15.1-50.7,15.1c-22.7,0-40.4-5.7-53.2-17s-19.1-26.9-19.1-46.8v-74.5
			c0-19.4,6.4-34.9,19.3-46.6c12.9-11.7,30.5-17.6,53-17.6c22.4,0,40.1,5.9,53,17.6s19.3,27.3,19.3,46.6L338,223.7L338,223.7z
			 M265.7,155.7c-5.4,0-9.8,2-13.2,6.1s-5.2,9.3-5.2,15.7v13.4c0,1.3,0.6,1.9,1.9,1.9h32.9c1.3,0,1.9-0.6,1.9-1.9v-13.4
			c0-6.4-1.7-11.6-5.2-15.7S271,155.7,265.7,155.7z M424.4,311.6c-21.7,0-39-5.2-51.8-15.5c-12.9-10.3-19.3-24.1-19.3-41.5V252
			c0-1.3,0.4-2.4,1.3-3.2c0.9-0.9,2-1.3,3.3-1.3H400c1.3,0,2.4,0.3,3.3,0.8s1.3,1.1,1.3,1.9v3.1c0,5.3,1.9,9.7,5.7,13.2
			c3.8,3.4,8.5,5.2,14.2,5.2c5.1,0,9.1-1.5,12.1-4.4c2.9-2.9,4.4-6.7,4.4-11.3c0-5.6-2.4-10-7.3-13.2c-4.8-3.2-10.3-5.9-16.3-8
			c-6-2.2-10.1-3.6-12.4-4.4c-14-5.1-25.8-12.2-35.4-21.2s-14.3-22.1-14.3-39.2c0-18.6,6.1-33.2,18.4-43.9c12.2-10.7,28.6-16,49-16
			c21.2,0,37.9,5.6,50.3,16.8s18.6,26.4,18.6,45.5c0,1.3-0.4,2.4-1.3,3.2c-0.9,0.9-2,1.3-3.3,1.3h-40.9c-1.3,0-2.4-0.4-3.3-1.1
			s-1.3-1.7-1.3-2.7v-3.8c0-5.1-1.6-9.2-4.8-12.4c-3.2-3.2-7.3-4.8-12.4-4.8c-5.4,0-9.6,1.7-12.6,5.2c-3.1,3.4-4.6,7.5-4.6,12
			c0,6.1,2.6,10.9,7.8,14.3c5.2,3.4,13.2,7.2,23.9,11.3c11,4.1,20.3,8.2,28.1,12.4c7.8,4.2,14.5,10.2,20.1,18s8.4,17.5,8.4,29.2
			c0,17.6-6.4,31.5-19.3,41.8C463,306.5,445.8,311.6,424.4,311.6z M601.5,145.8c0,1.3-0.4,2.4-1.3,3.2c-0.9,0.9-2,1.3-3.3,1.3h-21.4
			c-1.3,0-1.9,0.6-1.9,1.9v90.9c0,7.4,1.4,12.5,4.2,15.3s7,4.1,12.6,3.8h2.7c1.3,0,2.4,0.4,3.3,1.3c0.9,0.9,1.3,2,1.3,3.2v37.4
			c0,1.3-0.4,2.4-1.3,3.2c-0.9,0.9-2,1.3-3.3,1.3h-15.3c-18.6,0-32.7-3.1-42.1-9.4c-9.4-6.2-14.2-18.2-14.2-35.7V152.3
			c0-1.3-0.6-1.9-1.9-1.9H507c-1.3,0-2.4-0.4-3.3-1.3c-0.9-0.9-1.3-2-1.3-3.2v-28.7c0-1.3,0.4-2.4,1.3-3.2c0.9-0.9,2-1.3,3.3-1.3
			h12.6c1.3,0,1.9-0.6,1.9-1.9V68.2c0-1.3,0.4-2.4,1.3-3.2c0.9-0.9,2-1.3,3.3-1.3H569c1.3,0,2.4,0.4,3.3,1.3c0.9,0.9,1.3,2,1.3,3.2
			v42.4c0,1.3,0.6,1.9,1.9,1.9h21.4c1.3,0,2.4,0.4,3.3,1.3s1.3,2,1.3,3.2V145.8z M705.9,112.5c1.3,0,2.4,0.4,3.3,1.3
			c0.9,0.9,1.3,2,1.3,3.2v28.7c0,1.3-0.4,2.4-1.3,3.2c-0.9,0.9-2,1.3-3.3,1.3h-21c-1.3,0-1.9,0.6-1.9,1.9v152.1
			c0,1.3-0.4,2.4-1.3,3.2c-0.9,0.9-2,1.3-3.3,1.3H634c-1.3,0-2.4-0.4-3.3-1.3c-0.9-0.9-1.3-2-1.3-3.2V152.3c0-1.3-0.6-1.9-1.9-1.9
			H616c-1.3,0-2.4-0.4-3.3-1.3c-0.9-0.9-1.3-2-1.3-3.2v-28.7c0-1.3,0.4-2.4,1.3-3.2c0.9-0.9,2-1.3,3.3-1.3h11.5
			c1.3,0,1.9-0.6,1.9-1.9v-10.3c0-22.9,5.8-38.8,17.4-47.6c11.6-8.8,30-12.9,55.3-12.4h1.5c1.3,0,2.4,0.4,3.3,1.3
			c0.9,0.9,1.3,2,1.3,3.2l-0.4,30.6c0,1.3-0.3,2.4-0.8,3.2c-0.5,0.9-1.1,1.3-1.9,1.3h-2.7c-13,0.3-19.5,8.2-19.5,23.7v6.9
			c0,1.3,0.6,1.9,1.9,1.9h21.1L705.9,112.5L705.9,112.5z M755.4,93.8c-9.4,0-17-2.9-22.8-8.8c-5.7-5.9-8.6-13.5-8.6-22.9
			c0-9.7,2.9-17.5,8.6-23.3c5.7-5.9,13.3-8.8,22.8-8.8c9.4,0,17,2.9,22.6,8.8s8.4,13.6,8.4,23.3s-2.8,17.4-8.4,23.1
			C772.4,90.9,764.8,93.8,755.4,93.8z M732.8,309c-1.3,0-2.4-0.4-3.3-1.3c-0.9-0.9-1.3-2-1.3-3.2V117.1c0-1.3,0.4-2.4,1.3-3.2
			s2-1.3,3.3-1.3h44.8c1.3,0,2.4,0.4,3.3,1.3c0.9,0.9,1.3,2,1.3,3.2v187.2c0,1.3-0.4,2.4-1.3,3.2c-0.9,0.9-2,1.3-3.3,1.3h-44.8V309z
			 M898.5,145.8c0,1.3-0.4,2.4-1.3,3.2c-0.9,0.9-2,1.3-3.3,1.3h-21.4c-1.3,0-1.9,0.6-1.9,1.9v90.9c0,7.4,1.4,12.5,4.2,15.3
			s7,4.1,12.6,3.8h2.7c1.3,0,2.4,0.4,3.3,1.3s1.3,2,1.3,3.2v37.4c0,1.3-0.4,2.4-1.3,3.2c-0.9,0.9-2,1.3-3.3,1.3h-15.3
			c-18.6,0-32.7-3.1-42.1-9.4c-9.4-6.2-14.2-18.2-14.2-35.7V152.3c0-1.3-0.6-1.9-1.9-1.9H804c-1.3,0-2.4-0.4-3.3-1.3
			c-0.9-0.9-1.3-2-1.3-3.2v-28.7c0-1.3,0.4-2.4,1.3-3.2c0.9-0.9,2-1.3,3.3-1.3h12.6c1.3,0,1.9-0.6,1.9-1.9V68.2
			c0-1.3,0.4-2.4,1.3-3.2c0.9-0.9,2-1.3,3.3-1.3H866c1.3,0,2.4,0.4,3.3,1.3c0.9,0.9,1.3,2,1.3,3.2v42.4c0,1.3,0.6,1.9,1.9,1.9h21.4
			c1.3,0,2.4,0.4,3.3,1.3c0.9,0.9,1.3,2,1.3,3.2V145.8z"/>
	</g>
</g>
</svg>
