<?xml version="1.0" encoding="utf-8"?>
<!-- Generator: Adobe Illustrator 24.0.1, SVG Export Plug-In . SVG Version: 6.00 Build 0)  -->
<svg version="1.1" id="Ebene_1" xmlns="http://www.w3.org/2000/svg" xmlns:xlink="http://www.w3.org/1999/xlink" x="0px" y="0px"
	 viewBox="0 0 386.3 679.3" style="enable-background:new 0 0 386.3 679.3;" xml:space="preserve">
<style type="text/css">
	.st0{fill:#5C5C5C;}
	.st1{fill:none;}
	.st2{fill:#616161;}
	.st3{fill:#676767;}
	.st4{fill:#6C6C6C;}
	.st5{fill:#717171;}
	.st6{fill:#767676;}
	.st7{fill:#7C7C7C;}
	.st8{fill:#818181;}
	.st9{fill:#868686;}
	.st10{fill:#8B8B8B;}
	.st11{fill:#919191;}
	.st12{fill:#969696;}
	.st13{fill:#9B9B9B;}
	.st14{fill:#A0A0A0;}
	.st15{fill:#A6A6A6;}
	.st16{fill:#ABABAB;}
	.st17{fill:#B0B0B0;}
	.st18{fill:#B5B5B5;}
	.st19{fill:#BBBBBB;}
	.st20{fill:#C0C0C0;}
	.st21{fill:#C5C5C5;}
	.st22{fill:#CACACA;}
	.st23{fill:#D0D0D0;}
	.st24{fill:#D5D5D5;}
	.st25{fill:#DADADA;}
	.st26{fill:#DFDFDF;}
	.st27{fill:#E5E5E5;}
	.st28{fill:#EAEAEA;}
	.st29{fill:#EFEFEF;}
	.st30{fill:#F4F4F4;}
	.st31{fill:#FAFAFA;}
	.st32{fill:#FFFFFF;}
	.st33{fill:#333333;}
	.st34{fill:#010101;}
	.st35{opacity:0.8;}
	.st36{fill:#090909;}
	.st37{fill:#111111;}
	.st38{fill:#1A1A1A;}
	.st39{fill:#222222;}
	.st40{fill:#2A2A2A;}
	.st41{fill:#323232;}
	.st42{fill:#3A3A3A;}
	.st43{fill:#434343;}
	.st44{fill:#4B4B4B;}
	.st45{fill:#535353;}
	.st46{fill:#5B5B5B;}
	.st47{fill:#636363;}
	.st48{fill:#747474;}
	.st49{fill:#848484;}
	.st50{fill:#8C8C8C;}
	.st51{fill:#949494;}
	.st52{fill:#9D9D9D;}
	.st53{fill:#A5A5A5;}
	.st54{fill:#ADADAD;}
	.st55{fill:#BDBDBD;}
	.st56{fill:#C6C6C6;}
	.st57{fill:#CECECE;}
	.st58{fill:#D6D6D6;}
	.st59{fill:#DEDEDE;}
	.st60{fill:#E6E6E6;}
	.st61{fill:#F7F7F7;}
	.st62{opacity:0.4;}
	.st63{fill:#04070E;}
	.st64{fill:#0C0F16;}
	.st65{fill:#14171E;}
	.st66{fill:#1C1F25;}
	.st67{fill:#24272D;}
	.st68{fill:#2C2F35;}
	.st69{fill:#35373D;}
	.st70{fill:#3D3F44;}
	.st71{fill:#45474C;}
	.st72{fill:#4D4F54;}
	.st73{fill:#55575C;}
	.st74{fill:#5D5F64;}
	.st75{fill:#65676B;}
	.st76{fill:#6D6F73;}
	.st77{fill:#75777B;}
	.st78{fill:#7D7F83;}
	.st79{fill:#86878A;}
	.st80{fill:#8E8F92;}
	.st81{fill:#96979A;}
	.st82{fill:#9E9FA2;}
	.st83{fill:#A6A7A9;}
	.st84{fill:#AEAFB1;}
	.st85{fill:#B6B7B9;}
	.st86{fill:#BEBFC1;}
	.st87{fill:#C6C7C9;}
	.st88{fill:#CECFD0;}
	.st89{fill:#D7D7D8;}
	.st90{fill:#DFDFE0;}
	.st91{fill:#E7E7E8;}
	.st92{fill:url(#SVGID_1_);}
	.st93{fill:#535157;}
	.st94{fill:#272729;}
	.st95{fill:#2D2B30;}
	.st96{opacity:7.000000e-02;fill:#FFFFFF;enable-background:new    ;}
	.st97{fill:#021751;}
</style>
<g>
	<g>
		<g>
			<path class="st0" d="M376.5,17c4.6,5.5,7.3,12.6,7.3,20.2V642c0,17.6-14.4,31.9-32,31.9H34.5c-17.6,0-32-14.4-32-31.9V37.3
				c0-8,3-15.3,7.8-20.9L7.4,14C2.8,20.1,0,27.6,0,35.8v607.8c0,19.7,16.1,35.8,35.9,35.8h314.6c19.7,0,35.9-16.1,35.9-35.8V35.8
				c0-8.1-2.7-15.6-7.3-21.6L376.5,17z"/>
			<path class="st1" d="M378.7,642.7c0,2,0,3.3,0,3.3v-4C378.7,641.9,378.7,642.1,378.7,642.7z"/>
			<path class="st1" d="M378.7,642.7c0,2,0,3.3,0,3.3v-4C378.7,641.9,378.7,642.1,378.7,642.7z"/>
			<path class="st1" d="M378.7,642.7c0,2,0,3.3,0,3.3v-4C378.7,641.9,378.7,642.1,378.7,642.7z"/>
			<path class="st1" d="M378.7,642.7c0,2,0,3.3,0,3.3v-4C378.7,641.9,378.7,642.1,378.7,642.7z"/>
			<g>
				<path class="st0" d="M34.5,5.4h317.3c9.9,0,18.8,4.6,24.7,11.7l2.5-2.8C372.5,5.6,362.1,0,350.5,0H35.9C24.3,0,14,5.5,7.4,14
					l2.9,2.4C16.2,9.7,24.9,5.4,34.5,5.4z"/>
				<path class="st2" d="M34.5,5.3h317.3c9.8,0,18.6,4.5,24.5,11.5c0,0,2.4-2.8,2.3-2.8c-3.7-4.7-8.5-8.5-14-10.9
					c-4.3-1.9-9.5-3-14.5-3H36.3c-4.9,0-10,1-14.3,2.9C16.4,5.4,11.6,9.1,7.8,13.8c0,0,2.8,2.3,2.7,2.4C16.4,9.5,25,5.3,34.5,5.3z"
					/>
				<path class="st3" d="M34.5,5.3h317.3c9.7,0,18.4,4.4,24.2,11.2c-0.1,0,2.2-2.7,2.2-2.8c-3.7-4.6-8.6-8.3-14.1-10.6
					c-4.2-1.9-9.7-2.9-14.5-2.9H36.7c-4.8,0-10.2,1-14.3,2.8C16.9,5.3,12,9,8.3,13.6c-0.1,0,2.6,2.3,2.5,2.3
					C16.6,9.4,25.1,5.3,34.5,5.3z"/>
				<path class="st4" d="M34.5,5.2h317.3c9.6,0,18.2,4.3,24,11c-0.1-0.1,2.1-2.7,2-2.7C374,9,369.2,5.4,363.6,3.1
					c-4-1.8-9.8-2.8-14.5-2.8h-312c-4.6,0-10.3,1-14.2,2.7C17.3,5.2,12.4,8.8,8.7,13.4c-0.1,0.1,2.4,2.3,2.4,2.3
					C16.8,9.3,25.2,5.2,34.5,5.2z"/>
				<path class="st5" d="M34.5,5.2h317.3c9.5,0,18,4.2,23.8,10.8c-0.1-0.1,1.9-2.6,1.8-2.7c-3.8-4.5-8.7-8-14.2-10.2
					c-3.9-1.7-9.9-2.7-14.5-2.7H37.6c-4.4,0-10.4,0.9-14.2,2.6C17.8,5.2,12.9,8.7,9.1,13.2c-0.1,0.1,2.3,2.2,2.2,2.3
					C17,9.2,25.3,5.2,34.5,5.2z"/>
				<path class="st6" d="M34.5,5.2h317.3c9.3,0,17.8,4.1,23.5,10.6c-0.2-0.1,1.8-2.6,1.6-2.7c-3.8-4.4-8.7-7.9-14.3-10
					c-3.7-1.7-10.1-2.6-14.4-2.6H38c-4.3,0-10.5,0.9-14.2,2.5c-5.6,2.1-10.5,5.5-14.4,9.9c-0.2,0.1,2.1,2.2,2,2.3
					C17.2,9.1,25.4,5.2,34.5,5.2z"/>
				<path class="st7" d="M34.5,5.1h317.3c9.2,0,17.6,4,23.3,10.4c-0.2-0.1,1.7-2.5,1.5-2.6c-3.8-4.3-8.8-7.7-14.3-9.7
					c-3.6-1.6-10.2-2.5-14.4-2.5H38.5c-4.1,0-10.6,0.9-14.1,2.4c-5.6,2-10.6,5.3-14.4,9.7c-0.2,0.1,2,2.1,1.8,2.3
					C17.4,8.9,25.5,5.1,34.5,5.1z"/>
				<path class="st8" d="M34.5,5.1h317.3c9.1,0,17.4,3.9,23.1,10.1c-0.2-0.1,1.5-2.5,1.3-2.6c-3.9-4.3-8.8-7.6-14.4-9.5
					c-3.5-1.5-10.4-2.4-14.4-2.4H38.9C35,0.7,28.2,1.5,24.8,3c-5.6,2-10.6,5.2-14.5,9.5c-0.2,0.1,1.8,2.1,1.6,2.2
					C17.6,8.8,25.6,5.1,34.5,5.1z"/>
				<path class="st9" d="M34.5,5.1h317.3c9,0,17.2,3.8,22.8,9.9c-0.2-0.2,1.4-2.4,1.1-2.6c-3.9-4.2-8.9-7.4-14.5-9.3
					c-3.3-1.5-10.5-2.3-14.3-2.3H39.3c-3.8,0-10.8,0.8-14.1,2.2c-5.6,1.8-10.6,5-14.6,9.2c-0.3,0.1,1.7,2.1,1.4,2.2
					C17.8,8.7,25.7,5.1,34.5,5.1z"/>
				<path class="st10" d="M34.5,5h317.3c8.9,0,16.9,3.7,22.6,9.7c-0.3-0.2,1.2-2.4,0.9-2.5c-4-4.1-8.9-7.3-14.5-9
					C357.6,1.7,350.2,1,346.5,1H39.8c-3.6,0-10.9,0.8-14.1,2.1c-5.6,1.7-10.6,4.9-14.6,9c-0.3,0.2,1.5,2,1.2,2.2
					C18,8.6,25.8,5,34.5,5z"/>
				<path class="st11" d="M34.5,5h317.3c8.8,0,16.7,3.7,22.4,9.5c-0.3-0.2,1.1-2.3,0.7-2.5c-4-4-9-7.1-14.6-8.8
					c-3-1.4-10.8-2.1-14.3-2.1H40.2c-3.4,0-11.1,0.7-14,2c-5.6,1.7-10.7,4.7-14.7,8.8c-0.3,0.2,1.3,2,1,2.2C18.2,8.5,25.9,5,34.5,5z
					"/>
				<path class="st12" d="M34.5,5h317.3c8.7,0,16.5,3.6,22.1,9.2c-0.3-0.2,0.9-2.3,0.6-2.5c-4-4-9-7-14.6-8.6
					c-2.9-1.3-10.9-2-14.3-2h-305c-3.3,0-11.2,0.7-14,1.9C21,4.7,15.9,7.7,11.9,11.6c-0.4,0.2,1.2,1.9,0.8,2.2C18.3,8.4,26,5,34.5,5
					z"/>
				<path class="st13" d="M34.5,4.9h317.3c8.5,0,16.3,3.5,21.9,9c-0.4-0.2,0.8-2.2,0.4-2.4c-4.1-3.9-9.1-6.8-14.7-8.3
					c-2.7-1.2-11.1-1.9-14.2-1.9H41.1c-3.1,0-11.3,0.7-14,1.8c-5.6,1.5-10.7,4.4-14.8,8.3c-0.4,0.2,1,1.9,0.7,2.1
					C18.5,8.2,26.2,4.9,34.5,4.9z"/>
				<path class="st14" d="M34.5,4.9h317.3c8.4,0,16.1,3.4,21.7,8.8c-0.4-0.3,0.6-2.2,0.2-2.4c-4.1-3.8-9.1-6.7-14.8-8.1
					c-2.6-1.2-11.2-1.8-14.2-1.8H41.5c-3,0-11.4,0.6-13.9,1.7C22,4.5,16.9,7.3,12.8,11.2c-0.4,0.2,0.9,1.9,0.5,2.1
					C18.7,8.1,26.3,4.9,34.5,4.9z"/>
				<path class="st15" d="M34.5,4.9h317.3c8.3,0,15.9,3.3,21.4,8.6c-0.4-0.3,0.5-2.1,0-2.4c-4.1-3.8-9.2-6.5-14.8-7.9
					c-2.4-1.1-11.3-1.7-14.2-1.7H41.9c-2.8,0-11.5,0.6-13.9,1.6C22.4,4.5,17.3,7.2,13.1,11c-0.5,0.2,0.7,1.8,0.3,2.1
					C18.9,8,26.4,4.9,34.5,4.9z"/>
				<path class="st16" d="M34.5,4.8h317.3c8.2,0,15.7,3.2,21.2,8.3c-0.5-0.3,0.4-2.1-0.1-2.3c-4.2-3.7-9.3-6.4-14.9-7.6
					c-2.3-1-11.5-1.6-14.1-1.6H42.4c-2.6,0-11.6,0.6-13.9,1.5c-5.7,1.3-10.8,3.9-15,7.6C13,11,14,12.5,13.6,12.8
					C19.1,7.9,26.5,4.8,34.5,4.8z"/>
				<path class="st17" d="M34.5,4.8h317.3c8.1,0,15.5,3.1,21,8.1c-0.5-0.3,0.2-2-0.3-2.3c-4.2-3.6-9.3-6.2-14.9-7.4
					c-2.2-1-11.6-1.5-14.1-1.5H42.8c-2.5,0-11.7,0.5-13.9,1.4c-5.7,1.2-10.8,3.8-15,7.4c-0.5,0.3,0.4,1.7-0.1,2.1
					C19.3,7.8,26.6,4.8,34.5,4.8z"/>
				<path class="st18" d="M34.5,4.7h317.3c8,0,15.3,3,20.7,7.9c-0.5-0.4,0.1-2-0.5-2.3c-4.2-3.5-9.4-6.1-15-7.2
					c-2-0.9-11.7-1.4-14.1-1.4H43.2c-2.3,0-11.9,0.5-13.8,1.4c-5.7,1.1-10.8,3.6-15.1,7.2c-0.6,0.3,0.2,1.7-0.3,2
					C19.5,7.6,26.7,4.7,34.5,4.7z"/>
				<path class="st19" d="M34.5,4.7h317.3c7.9,0,15.1,2.9,20.5,7.7c-0.6-0.4-0.1-1.9-0.7-2.2c-4.3-3.5-9.4-5.9-15.1-6.9
					C354.6,2.5,344.6,2,342.4,2H43.7c-2.1,0-12,0.4-13.8,1.3c-5.7,1-10.8,3.5-15.1,6.9c-0.6,0.3,0.1,1.7-0.5,2
					C19.7,7.5,26.8,4.7,34.5,4.7z"/>
				<path class="st20" d="M34.5,4.7h317.3c7.7,0,14.9,2.8,20.3,7.5c-0.6-0.4-0.2-1.9-0.8-2.2c-4.3-3.4-9.5-5.8-15.1-6.7
					c-1.7-0.8-12-1.2-14-1.2h-298c-2,0-12.1,0.4-13.8,1.2C24.7,4.2,19.5,6.6,15.2,10c-0.6,0.3-0.1,1.6-0.7,2
					C19.9,7.4,26.9,4.7,34.5,4.7z"/>
				<path class="st21" d="M34.5,4.6h317.3c7.6,0,14.6,2.7,20,7.2c-0.6-0.4-0.4-1.8-1-2.2c-4.3-3.3-9.5-5.6-15.2-6.5
					C354,2.4,343.4,2,341.6,2H44.5c-1.8,0-12.2,0.4-13.7,1.1C25.1,4,19.9,6.3,15.6,9.6c-0.7,0.3-0.3,1.6-0.9,2
					C20.1,7.3,27,4.6,34.5,4.6z"/>
				<path class="st22" d="M34.5,4.6h317.3c7.5,0,14.4,2.7,19.8,7c-0.6-0.4-0.5-1.8-1.2-2.1c-4.4-3.2-9.6-5.5-15.2-6.3
					c-1.4-0.6-12.3-1-14-1H45c-1.6,0-12.3,0.3-13.7,1C25.6,4,20.4,6.2,16,9.4c-0.7,0.4-0.4,1.5-1.1,2C20.3,7.2,27.1,4.6,34.5,4.6z"
					/>
				<path class="st23" d="M34.5,4.6h317.3c7.4,0,14.2,2.6,19.6,6.8c-0.7-0.5-0.7-1.7-1.4-2.1c-4.4-3.2-9.6-5.3-15.3-6
					c-1.3-0.6-12.4-0.9-13.9-0.9H45.4c-1.5,0-12.4,0.3-13.7,0.9C26,4,20.8,6.1,16.3,9.3c-0.7,0.4-0.6,1.5-1.2,1.9
					C20.4,7.1,27.2,4.6,34.5,4.6z"/>
				<path class="st24" d="M34.5,4.5h317.3c7.3,0,14,2.5,19.3,6.6c-0.7-0.5-0.8-1.7-1.6-2.1c-4.4-3.1-9.7-5.2-15.4-5.8
					c-1.2-0.5-12.6-0.8-13.9-0.8H45.8c-1.3,0-12.5,0.3-13.7,0.8c-5.7,0.6-11,2.7-15.4,5.8c-0.8,0.4-0.7,1.5-1.4,1.9
					C20.6,6.9,27.3,4.5,34.5,4.5z"/>
				<path class="st25" d="M34.5,4.5h317.3c7.2,0,13.8,2.4,19.1,6.3c-0.7-0.5-0.9-1.6-1.7-2c-4.5-3-9.7-5-15.4-5.6
					c-1-0.5-12.7-0.7-13.9-0.7H46.3c-1.1,0-12.6,0.2-13.6,0.7c-5.7,0.6-11,2.5-15.5,5.6c-0.8,0.4-0.9,1.4-1.6,1.9
					C20.8,6.8,27.4,4.5,34.5,4.5z"/>
				<path class="st26" d="M34.5,4.5h317.3c7.1,0,13.6,2.3,18.9,6.1c-0.8-0.5-1.1-1.5-1.9-2c-4.5-3-9.8-4.9-15.5-5.3
					c-0.9-0.4-12.9-0.6-13.9-0.6H46.7c-1,0-12.8,0.2-13.6,0.6c-5.7,0.5-11,2.4-15.5,5.3c-0.8,0.4-1,1.4-1.8,1.9
					C21,6.7,27.5,4.5,34.5,4.5z"/>
				<path class="st27" d="M34.5,4.4h317.3c6.9,0,13.4,2.2,18.6,5.9c-0.8-0.5-1.2-1.5-2.1-2c-4.5-2.9-9.8-4.7-15.5-5.1
					c-0.7-0.3-13-0.5-13.8-0.5H47.1c-0.8,0-12.9,0.2-13.6,0.5c-5.7,0.4-11,2.2-15.6,5.1c-0.9,0.5-1.2,1.3-2,1.9
					C21.2,6.6,27.6,4.4,34.5,4.4z"/>
				<path class="st28" d="M34.5,4.4h317.3c6.8,0,13.2,2.1,18.4,5.7c-0.8-0.6-1.4-1.4-2.3-1.9c-4.6-2.8-9.9-4.6-15.6-4.9
					c-0.6-0.3-13.1-0.4-13.8-0.4h-291c-0.7,0-13,0.1-13.5,0.4c-5.7,0.3-11,2.1-15.6,4.9C17.5,8.6,17,9.4,16.2,10
					C21.4,6.5,27.7,4.4,34.5,4.4z"/>
				<path class="st29" d="M34.5,4.4h317.3c6.7,0,13,2,18.2,5.5c-0.9-0.6-1.5-1.4-2.4-1.9c-4.6-2.7-10-4.4-15.7-4.6
					C351.4,3.1,338.6,3,338.1,3H48c-0.5,0-13.1,0.1-13.5,0.3c-5.7,0.2-11.1,1.9-15.7,4.6c-0.9,0.5-1.5,1.3-2.4,1.8
					C21.6,6.4,27.8,4.4,34.5,4.4z"/>
				<path class="st30" d="M34.5,4.3h317.3c6.6,0,12.8,1.9,17.9,5.2c-0.9-0.6-1.7-1.3-2.6-1.9c-4.7-2.7-10-4.3-15.7-4.4
					C351.1,3.1,338,3,337.7,3H48.4c-0.3,0-13.2,0.1-13.5,0.2C29.2,3.4,23.8,5,19.2,7.7c-0.9,0.5-1.7,1.2-2.6,1.8
					C21.8,6.2,27.9,4.3,34.5,4.3z"/>
				<path class="st31" d="M34.5,4.3h317.3c6.5,0,12.6,1.8,17.7,5c-0.9-0.6-1.8-1.3-2.8-1.8c-4.7-2.6-10.1-4.1-15.8-4.2
					c-0.1-0.1-13.5-0.1-13.7-0.1H48.9c-0.2,0-13.3,0-13.5,0.1c-5.7,0.1-11.1,1.6-15.8,4.2c-1,0.5-1.8,1.2-2.8,1.8
					C22,6.1,28,4.3,34.5,4.3z"/>
				<path class="st32" d="M351.8,4.3c6.4,0,12.4,1.7,17.5,4.8c-5.4-3.6-11.8-5.7-18.8-5.7H35.9c-7,0-13.4,2.1-18.8,5.7
					c5.1-3,11.1-4.8,17.5-4.8H351.8z"/>
			</g>
			<g>
				<path class="st0" d="M351.9,674H34.7c-9.9,0-18.8-4.6-24.7-11.7l-2.5,2.8c6.6,8.6,16.9,14.2,28.6,14.2h314.6
					c11.5,0,21.8-5.5,28.4-14l-2.9-2.4C370.2,669.7,361.6,674,351.9,674z"/>
				<path class="st2" d="M10.2,662.5c0,0-2.4,2.8-2.3,2.8c3.7,4.7,8.5,8.5,14,10.9c4.3,1.9,9.5,3,14.5,3h313.7c4.9,0,10-1,14.3-2.9
					c5.6-2.4,10.4-6.1,14.2-10.8c0,0-2.8-2.3-2.7-2.4C370,669.7,361.5,674,352,674H34.7C24.9,674,16,669.5,10.2,662.5z"/>
				<path class="st3" d="M10.4,662.8c0.1,0-2.2,2.7-2.2,2.8c3.7,4.6,8.6,8.3,14.1,10.6c4.2,1.9,9.7,2.9,14.5,2.9h312.9
					c4.8,0,10.2-1,14.3-2.8c5.6-2.3,10.5-6,14.2-10.6c0.1,0-2.6-2.3-2.5-2.3c-5.8,6.5-14.3,10.7-23.7,10.7H34.7
					C25,674.1,16.3,669.7,10.4,662.8z"/>
				<path class="st4" d="M10.7,663.1c0.1,0.1-2.1,2.7-2,2.7c3.7,4.6,8.6,8.2,14.2,10.4c4,1.8,9.8,2.8,14.5,2.8h312
					c4.6,0,10.3-1,14.2-2.7c5.6-2.2,10.5-5.8,14.3-10.4c0.1-0.1-2.4-2.3-2.4-2.3c-5.8,6.4-14.2,10.5-23.5,10.5H34.7
					C25.1,674.1,16.5,669.8,10.7,663.1z"/>
				<path class="st5" d="M10.9,663.3c0.1,0.1-1.9,2.6-1.8,2.7c3.8,4.5,8.7,8,14.2,10.2c3.9,1.7,9.9,2.7,14.5,2.7h311.1
					c4.4,0,10.4-0.9,14.2-2.6c5.6-2.1,10.5-5.6,14.3-10.1c0.1-0.1-2.3-2.2-2.2-2.3c-5.8,6.3-14.1,10.3-23.3,10.3H34.7
					C25.2,674.1,16.7,669.9,10.9,663.3z"/>
				<path class="st6" d="M11.1,663.6c0.2,0.1-1.8,2.6-1.6,2.7c3.8,4.4,8.7,7.9,14.3,9.9c3.7,1.7,10.1,2.6,14.4,2.6h310.2
					c4.3,0,10.5-0.9,14.2-2.5c5.6-2.1,10.5-5.5,14.4-9.9c0.2-0.1-2.1-2.2-2-2.3c-5.8,6.2-14,10-23.1,10H34.7
					C25.3,674.2,16.9,670,11.1,663.6z"/>
				<path class="st7" d="M11.4,663.8c0.2,0.1-1.7,2.5-1.5,2.6c3.8,4.3,8.8,7.7,14.3,9.7c3.6,1.6,10.2,2.5,14.4,2.5H348
					c4.1,0,10.6-0.9,14.1-2.4c5.6-2,10.6-5.3,14.4-9.7c0.2-0.1-2-2.1-1.8-2.3c-5.7,6-13.9,9.8-22.9,9.8H34.7
					C25.4,674.2,17.1,670.2,11.4,663.8z"/>
				<path class="st8" d="M11.6,664.1c0.2,0.1-1.5,2.5-1.3,2.6c3.9,4.3,8.8,7.6,14.4,9.5c3.5,1.5,10.4,2.4,14.4,2.4h308.5
					c3.9,0,10.7-0.8,14.1-2.3c5.6-1.9,10.6-5.2,14.5-9.4c0.2-0.1-1.8-2.1-1.6-2.2c-5.7,5.9-13.8,9.6-22.6,9.6H34.7
					C25.5,674.2,17.3,670.3,11.6,664.1z"/>
				<path class="st9" d="M11.8,664.4c0.2,0.2-1.4,2.4-1.1,2.6c3.9,4.2,8.9,7.4,14.5,9.3c3.3,1.5,10.5,2.3,14.3,2.3h307.6
					c3.8,0,10.8-0.8,14.1-2.2c5.6-1.8,10.6-5,14.6-9.2c0.3-0.1-1.7-2.1-1.4-2.2c-5.7,5.8-13.6,9.4-22.4,9.4H34.7
					C25.7,674.3,17.5,670.4,11.8,664.4z"/>
				<path class="st10" d="M12.1,664.6c0.3,0.2-1.2,2.4-0.9,2.5c4,4.1,8.9,7.3,14.5,9c3.2,1.4,10.6,2.2,14.3,2.2h306.7
					c3.6,0,10.9-0.8,14.1-2.1c5.6-1.7,10.6-4.9,14.6-9c0.3-0.2-1.5-2-1.2-2.2c-5.7,5.7-13.5,9.2-22.2,9.2H34.7
					C25.8,674.3,17.7,670.6,12.1,664.6z"/>
				<path class="st11" d="M12.3,664.9c0.3,0.2-1.1,2.3-0.7,2.5c4,4,9,7.1,14.6,8.8c3,1.4,10.8,2.1,14.3,2.1h305.9
					c3.4,0,11.1-0.7,14-2c5.6-1.7,10.7-4.7,14.7-8.8c0.3-0.2-1.3-2-1-2.2c-5.6,5.6-13.4,9-22,9H34.7
					C25.9,674.3,17.9,670.7,12.3,664.9z"/>
				<path class="st12" d="M12.5,665.1c0.3,0.2-0.9,2.3-0.6,2.5c4,4,9,7,14.6,8.6c2.9,1.3,10.9,2,14.3,2h305c3.3,0,11.2-0.7,14-1.9
					c5.6-1.6,10.7-4.6,14.7-8.5c0.4-0.2-1.2-1.9-0.8-2.2c-5.6,5.4-13.3,8.8-21.8,8.8H34.7C26,674.4,18.1,670.8,12.5,665.1z"/>
				<path class="st13" d="M12.8,665.4c0.4,0.2-0.8,2.2-0.4,2.4c4.1,3.9,9.1,6.8,14.7,8.3c2.7,1.2,11.1,1.9,14.2,1.9h304.1
					c3.1,0,11.3-0.7,14-1.8c5.6-1.5,10.7-4.4,14.8-8.3c0.4-0.2-1-1.9-0.7-2.1c-5.6,5.3-13.2,8.6-21.6,8.6H34.7
					C26.1,674.4,18.3,670.9,12.8,665.4z"/>
				<path class="st14" d="M13,665.6c0.4,0.3-0.6,2.2-0.2,2.4c4.1,3.8,9.1,6.7,14.8,8.1c2.6,1.2,11.2,1.8,14.2,1.8H345
					c3,0,11.4-0.6,13.9-1.7c5.6-1.4,10.7-4.2,14.8-8.1c0.4-0.2-0.9-1.9-0.5-2.1c-5.6,5.2-13.1,8.4-21.4,8.4H34.7
					C26.2,674.4,18.5,671.1,13,665.6z"/>
				<path class="st15" d="M13.2,665.9c0.4,0.3-0.5,2.1,0,2.4c4.1,3.8,9.2,6.5,14.8,7.9c2.4,1.1,11.3,1.7,14.2,1.7h302.4
					c2.8,0,11.5-0.6,13.9-1.6c5.6-1.3,10.7-4.1,14.9-7.8c0.5-0.2-0.7-1.8-0.3-2.1c-5.5,5.1-13,8.2-21.1,8.2H34.7
					C26.3,674.5,18.8,671.2,13.2,665.9z"/>
				<path class="st16" d="M13.5,666.2c0.5,0.3-0.4,2.1,0.1,2.3c4.2,3.7,9.3,6.4,14.9,7.6c2.3,1,11.5,1.6,14.1,1.6h301.5
					c2.6,0,11.6-0.6,13.9-1.5c5.7-1.3,10.8-3.9,15-7.6c0.5-0.3-0.5-1.8-0.1-2.1c-5.5,5-12.9,8-20.9,8H34.7
					C26.5,674.5,19,671.3,13.5,666.2z"/>
				<path class="st17" d="M13.7,666.4c0.5,0.3-0.2,2,0.3,2.3c4.2,3.6,9.3,6.2,14.9,7.4c2.2,1,11.6,1.5,14.1,1.5h300.6
					c2.5,0,11.7-0.5,13.9-1.4c5.7-1.2,10.8-3.8,15-7.4c0.5-0.3-0.4-1.7,0.1-2.1c-5.5,4.8-12.8,7.8-20.7,7.8H34.7
					C26.6,674.6,19.2,671.4,13.7,666.4z"/>
				<path class="st18" d="M13.9,666.7c0.5,0.4-0.1,2,0.5,2.3c4.2,3.5,9.4,6.1,15,7.2c2,0.9,11.7,1.4,14.1,1.4h299.7
					c2.3,0,11.8-0.5,13.8-1.4c5.7-1.1,10.8-3.6,15.1-7.2c0.6-0.3-0.2-1.7,0.3-2c-5.5,4.7-12.6,7.6-20.5,7.6H34.7
					C26.7,674.6,19.4,671.6,13.9,666.7z"/>
				<path class="st19" d="M14.2,666.9c0.6,0.4,0.1,1.9,0.7,2.2c4.3,3.5,9.4,5.9,15.1,6.9c1.9,0.8,11.9,1.3,14.1,1.3H343
					c2.1,0,12-0.4,13.8-1.3c5.7-1,10.8-3.5,15.1-6.9c0.6-0.3-0.1-1.7,0.5-2c-5.4,4.6-12.5,7.4-20.3,7.4H34.7
					C26.8,674.6,19.6,671.7,14.2,666.9z"/>
				<path class="st20" d="M14.4,667.2c0.6,0.4,0.2,1.9,0.8,2.2c4.3,3.4,9.5,5.8,15.1,6.7c1.7,0.8,12,1.2,14,1.2h298
					c2,0,12.1-0.4,13.8-1.2c5.7-0.9,10.9-3.3,15.2-6.7c0.6-0.3,0.1-1.6,0.7-2c-5.4,4.5-12.4,7.2-20.1,7.2H34.7
					C26.9,674.7,19.8,671.8,14.4,667.2z"/>
				<path class="st21" d="M14.6,667.5c0.6,0.4,0.4,1.8,1,2.2c4.3,3.3,9.5,5.6,15.2,6.5c1.6,0.7,12.2,1.1,14,1.1h297.1
					c1.8,0,12.2-0.4,13.7-1.1c5.7-0.9,10.9-3.2,15.2-6.5c0.7-0.3,0.3-1.6,0.9-2c-5.4,4.4-12.3,7-19.8,7H34.7
					C27,674.7,20,671.9,14.6,667.5z"/>
				<path class="st22" d="M14.9,667.7c0.6,0.4,0.5,1.8,1.2,2.1c4.4,3.2,9.6,5.5,15.2,6.3c1.4,0.6,12.3,1,14,1h296.2
					c1.6,0,12.3-0.3,13.7-1c5.7-0.8,10.9-3,15.3-6.2c0.7-0.4,0.4-1.5,1.1-2c-5.4,4.2-12.2,6.8-19.6,6.8H34.7
					C27.1,674.7,20.2,672.1,14.9,667.7z"/>
				<path class="st23" d="M15.1,668c0.7,0.5,0.7,1.7,1.4,2.1c4.4,3.2,9.6,5.3,15.3,6c1.3,0.6,12.4,0.9,13.9,0.9h295.4
					c1.5,0,12.4-0.3,13.7-0.9c5.7-0.7,10.9-2.8,15.4-6c0.7-0.4,0.6-1.5,1.2-1.9c-5.3,4.1-12.1,6.6-19.4,6.6H34.7
					C27.3,674.8,20.4,672.2,15.1,668z"/>
				<path class="st24" d="M15.3,668.2c0.7,0.5,0.8,1.7,1.6,2.1c4.4,3.1,9.7,5.2,15.4,5.8c1.2,0.5,12.6,0.8,13.9,0.8h294.5
					c1.3,0,12.5-0.3,13.7-0.8c5.7-0.6,11-2.7,15.4-5.8c0.8-0.4,0.7-1.5,1.4-1.9c-5.3,4-12,6.4-19.2,6.4H34.7
					C27.4,674.8,20.6,672.3,15.3,668.2z"/>
				<path class="st25" d="M15.6,668.5c0.7,0.5,0.9,1.6,1.7,2c4.5,3,9.7,5,15.4,5.6c1,0.5,12.7,0.7,13.9,0.7h293.6
					c1.1,0,12.6-0.2,13.6-0.7c5.7-0.6,11-2.5,15.5-5.6c0.8-0.4,0.9-1.4,1.6-1.9c-5.3,3.9-11.9,6.2-19,6.2H34.7
					C27.5,674.8,20.8,672.5,15.6,668.5z"/>
				<path class="st26" d="M15.8,668.7c0.8,0.5,1.1,1.5,1.9,2c4.5,3,9.8,4.9,15.5,5.3c0.9,0.4,12.9,0.6,13.9,0.6h292.7
					c1,0,12.8-0.2,13.6-0.6c5.7-0.5,11-2.4,15.5-5.3c0.8-0.4,1-1.4,1.8-1.9c-5.3,3.8-11.8,6-18.8,6H34.7
					C27.6,674.9,21.1,672.6,15.8,668.7z"/>
				<path class="st27" d="M16,669c0.8,0.5,1.2,1.5,2.1,2c4.5,2.9,9.8,4.7,15.5,5.1c0.7,0.3,13,0.5,13.8,0.5h291.9
					c0.8,0,12.9-0.2,13.6-0.5c5.7-0.4,11-2.2,15.6-5.1c0.9-0.5,1.2-1.3,2-1.9c-5.2,3.6-11.6,5.8-18.6,5.8H34.7
					C27.7,674.9,21.3,672.7,16,669z"/>
				<path class="st28" d="M16.3,669.3c0.8,0.6,1.4,1.4,2.3,1.9c4.6,2.8,9.9,4.6,15.6,4.9c0.6,0.3,13.1,0.4,13.8,0.4h291
					c0.7,0,13-0.1,13.5-0.4c5.7-0.3,11-2.1,15.6-4.9c0.9-0.5,1.4-1.3,2.2-1.9c-5.2,3.5-11.5,5.6-18.3,5.6H34.7
					C27.8,674.9,21.5,672.8,16.3,669.3z"/>
				<path class="st29" d="M16.5,669.5c0.9,0.6,1.5,1.4,2.4,1.9c4.6,2.7,10,4.4,15.7,4.6c0.4,0.2,13.3,0.3,13.8,0.3h290.1
					c0.5,0,13.1-0.1,13.5-0.3c5.7-0.2,11.1-1.9,15.7-4.6c0.9-0.5,1.5-1.3,2.4-1.8c-5.2,3.4-11.4,5.4-18.1,5.4H34.7
					C27.9,675,21.7,673,16.5,669.5z"/>
				<path class="st30" d="M16.7,669.8c0.9,0.6,1.7,1.3,2.6,1.9c4.7,2.7,10,4.2,15.7,4.4c0.3,0.1,13.4,0.2,13.7,0.2H338
					c0.3,0,13.2-0.1,13.5-0.2c5.7-0.2,11.1-1.7,15.8-4.4c0.9-0.5,1.7-1.2,2.6-1.8c-5.2,3.3-11.3,5.2-17.9,5.2H34.7
					C28.1,675,21.9,673.1,16.7,669.8z"/>
				<path class="st31" d="M17,670c0.9,0.6,1.8,1.3,2.8,1.8c4.7,2.6,10.1,4.1,15.8,4.2c0.1,0.1,13.5,0.1,13.7,0.1h288.4
					c0.2,0,13.3,0,13.5-0.1c5.7-0.1,11.1-1.6,15.8-4.2c1-0.5,1.8-1.2,2.8-1.8c-5.1,3.2-11.2,5-17.7,5H34.7
					C28.2,675,22.1,673.2,17,670z"/>
				<path class="st32" d="M34.7,675.1c-6.4,0-12.4-1.7-17.5-4.8C22.6,673.9,29,676,36,676h314.6c7,0,13.4-2.1,18.8-5.7
					c-5.1,3-11.1,4.8-17.5,4.8H34.7z"/>
			</g>
			<path class="st32" d="M34.5,675.1c-6.4,0-12.4-1.7-17.5-4.8c5.4,3.6,11.8,5.7,18.8,5.7h314.6c7,0,13.4-2.1,18.8-5.7
				c-5.1,3-11.1,4.8-17.5,4.8H34.5z"/>
		</g>
		<g>
			<g>
				<path class="st33" d="M376.2,14.1c-6.4-6.5-12.9-9.8-26.8-9.8H36.9c-13.8,0-20.4,3.2-26.8,9.8C4,20.4,1.8,29.4,1.8,39.2v600.9
					c0,0,0,0,0,0.1c0,1.6,0.1,3.1,0.2,4.6c1.9,20,15.2,30.3,39.5,30.3h303.4c24.3,0,37.6-10.2,39.5-30.2c0.2-1.5,0.2-3.1,0.2-4.7
					v-601C384.6,29.4,382.3,20.4,376.2,14.1z M379.2,628.2c0,15.1-12.3,27.4-27.4,27.4H34.5c-15.1,0-27.4-12.3-27.4-27.4v-584
					c0-15.1,12.3-27.4,27.4-27.4h317.3c15.1,0,27.4,12.3,27.4,27.4L379.2,628.2L379.2,628.2z"/>
			</g>
			<g>
				<path class="st34" d="M349.2,5.4H37.1C15.9,5.4,2.6,20.2,2.6,39.7v599.8c0,19.7,11.9,34.4,39.1,34.4h302.9
					c27.2,0,39.1-14.6,39.1-34.4V39.7C383.7,20.2,370.5,5.4,349.2,5.4z M379.2,628.2c0,15.1-12.3,27.4-27.4,27.4H34.5
					c-15.1,0-27.4-12.3-27.4-27.4v-584c0-15.1,12.3-27.4,27.4-27.4h317.3c15.1,0,27.4,12.3,27.4,27.4L379.2,628.2L379.2,628.2z"/>
			</g>
			<g class="st35">
				<path class="st34" d="M13.2,639.5V39.7c0-19.5,12.5-34.3,32.6-34.3h-8.7C15.9,5.4,2.6,20.2,2.6,39.7v599.8
					c0,19.7,11.9,34.4,39.1,34.4h8.5C24.5,673.9,13.2,659.3,13.2,639.5z"/>
				<path class="st36" d="M12.9,639.5V39.7c0-19.5,12.6-34.3,32.7-34.3h-8.5C15.9,5.4,2.6,20.2,2.6,39.7v599.8
					c0,19.7,11.9,34.4,39.1,34.4h8.2C24.2,673.9,12.9,659.3,12.9,639.5z"/>
				<path class="st37" d="M12.6,639.5V39.7c0-19.5,12.6-34.3,32.7-34.3h-8.2C15.9,5.4,2.6,20.2,2.6,39.7v599.8
					c0,19.7,11.9,34.4,39.1,34.4h8C23.9,673.9,12.6,659.3,12.6,639.5z"/>
				<path class="st38" d="M12.3,639.5V39.7C12.3,20.2,24.9,5.4,45,5.4h-7.9C15.9,5.4,2.6,20.2,2.6,39.7v599.8
					c0,19.7,11.9,34.4,39.1,34.4h7.7C23.6,673.9,12.3,659.3,12.3,639.5z"/>
				<path class="st39" d="M11.9,639.5V39.7c0-19.5,12.6-34.3,32.9-34.3h-7.7C15.9,5.4,2.6,20.2,2.6,39.7v599.8
					c0,19.7,11.9,34.4,39.1,34.4h7.4C23.3,673.9,11.9,659.3,11.9,639.5z"/>
				<path class="st40" d="M11.6,639.5V39.7c0-19.5,12.7-34.3,32.9-34.3h-7.4C15.9,5.4,2.6,20.2,2.6,39.7v599.8
					c0,19.7,11.9,34.4,39.1,34.4h7.2C22.9,673.9,11.6,659.3,11.6,639.5z"/>
				<path class="st41" d="M11.3,639.5V39.7c0-19.5,12.7-34.3,33-34.3h-7.1C15.9,5.4,2.6,20.2,2.6,39.7v599.8
					c0,19.7,11.9,34.4,39.1,34.4h6.9C22.6,673.9,11.3,659.3,11.3,639.5z"/>
				<path class="st42" d="M10.9,639.5V39.7c0-19.5,12.7-34.3,33-34.3H37C15.9,5.4,2.6,20.2,2.6,39.7v599.8
					c0,19.7,11.9,34.4,39.1,34.4h6.7C22.3,673.9,10.9,659.3,10.9,639.5z"/>
				<path class="st43" d="M10.6,639.5V39.7c0-19.5,12.7-34.3,33.1-34.3h-6.6C15.9,5.4,2.6,20.2,2.6,39.7v599.8
					c0,19.7,11.9,34.4,39.1,34.4h6.4C22,673.9,10.6,659.3,10.6,639.5z"/>
				<path class="st44" d="M10.3,639.5V39.7C10.3,20.2,23,5.4,43.5,5.4h-6.3C15.9,5.4,2.6,20.2,2.6,39.7v599.8
					c0,19.7,11.9,34.4,39.1,34.4h6.2C21.7,673.9,10.3,659.3,10.3,639.5z"/>
				<path class="st45" d="M10,639.5V39.7C10,20.2,22.7,5.4,43.2,5.4h-6.1C15.9,5.4,2.6,20.2,2.6,39.7v599.8
					c0,19.7,11.9,34.4,39.1,34.4h5.9C21.4,673.9,10,659.3,10,639.5z"/>
				<path class="st46" d="M9.6,639.5V39.7c0-19.5,12.8-34.3,33.3-34.3h-5.8C15.9,5.4,2.6,20.2,2.6,39.7v599.8
					c0,19.7,11.9,34.4,39.1,34.4h5.7C21.1,673.9,9.6,659.3,9.6,639.5z"/>
				<path class="st47" d="M9.3,639.5V39.7c0-19.5,12.8-34.3,33.3-34.3H37C15.9,5.4,2.6,20.2,2.6,39.7v599.8
					c0,19.7,11.9,34.4,39.1,34.4h5.4C20.8,673.9,9.3,659.3,9.3,639.5z"/>
				<path class="st4" d="M9,639.5V39.7C9,20.2,21.8,5.4,42.4,5.4h-5.3C15.9,5.4,2.6,20.2,2.6,39.7v599.8c0,19.7,11.9,34.4,39.1,34.4
					h5.1C20.5,673.9,9,659.3,9,639.5z"/>
				<path class="st48" d="M8.7,639.5V39.7c0-19.5,12.9-34.3,33.5-34.3h-5C15.9,5.4,2.6,20.2,2.6,39.7v599.8
					c0,19.7,11.9,34.4,39.1,34.4h4.9C20.2,673.9,8.7,659.3,8.7,639.5z"/>
				<path class="st7" d="M8.3,639.5V39.7c0-19.5,12.9-34.3,33.5-34.3H37C15.9,5.4,2.6,20.2,2.6,39.7v599.8
					c0,19.7,11.9,34.4,39.1,34.4h4.6C19.9,673.9,8.3,659.3,8.3,639.5z"/>
				<path class="st49" d="M8,639.5V39.7C8,20.2,20.9,5.4,41.6,5.4h-4.5C15.9,5.4,2.6,20.2,2.6,39.7v599.8
					c0,19.7,11.9,34.4,39.1,34.4h4.4C19.6,673.9,8,659.3,8,639.5z"/>
				<path class="st50" d="M7.7,639.5V39.7c0-19.5,12.9-34.3,33.7-34.3h-4.2C15.9,5.4,2.6,20.2,2.6,39.7v599.8
					c0,19.7,11.9,34.4,39.1,34.4h4.1C19.3,673.9,7.7,659.3,7.7,639.5z"/>
				<path class="st51" d="M7.4,639.5V39.7c0-19.5,13-34.3,33.7-34.3h-4C15.9,5.4,2.6,20.2,2.6,39.7v599.8
					c0,19.7,11.9,34.4,39.1,34.4h3.9C19,673.9,7.4,659.3,7.4,639.5z"/>
				<path class="st52" d="M7,639.5V39.7C7,20.2,20,5.4,40.8,5.4h-3.7C15.9,5.4,2.6,20.2,2.6,39.7v599.8c0,19.7,11.9,34.4,39.1,34.4
					h3.6C18.7,673.9,7,659.3,7,639.5z"/>
				<path class="st53" d="M6.7,639.5V39.7c0-19.5,13-34.3,33.8-34.3h-3.4C15.9,5.4,2.6,20.2,2.6,39.7v599.8
					c0,19.7,11.9,34.4,39.1,34.4h3.4C18.4,673.9,6.7,659.3,6.7,639.5z"/>
				<path class="st54" d="M6.4,639.5V39.7c0-19.5,13-34.3,33.9-34.3h-3.2C15.9,5.4,2.6,20.2,2.6,39.7v599.8
					c0,19.7,11.9,34.4,39.1,34.4h3.1C18.1,673.9,6.4,659.3,6.4,639.5z"/>
				<path class="st18" d="M6.1,639.5V39.7c0-19.5,13.1-34.3,34-34.3h-2.9C15.9,5.4,2.6,20.2,2.6,39.7v599.8
					c0,19.7,11.9,34.4,39.1,34.4h2.8C17.8,673.9,6.1,659.3,6.1,639.5z"/>
				<path class="st55" d="M5.7,639.5V39.7c0-19.5,13.1-34.3,34-34.3H37C15.9,5.4,2.6,20.2,2.6,39.7v599.8
					c0,19.7,11.9,34.4,39.1,34.4h2.6C17.5,673.9,5.7,659.3,5.7,639.5z"/>
				<path class="st56" d="M5.4,639.5V39.7c0-19.5,13.1-34.3,34.1-34.3h-2.4C15.9,5.4,2.6,20.2,2.6,39.7v599.8
					c0,19.7,11.9,34.4,39.1,34.4H44C17.2,673.9,5.4,659.3,5.4,639.5z"/>
				<path class="st57" d="M5.1,639.5V39.7c0-19.5,13.1-34.3,34.2-34.3h-2.1C15.9,5.4,2.6,20.2,2.6,39.7v599.8
					c0,19.7,11.9,34.4,39.1,34.4h2.1C16.9,673.9,5.1,659.3,5.1,639.5z"/>
				<path class="st58" d="M4.8,639.5V39.7C4.8,20.2,17.9,5.4,39,5.4h-1.9C15.9,5.4,2.6,20.2,2.6,39.7v599.8
					c0,19.7,11.9,34.4,39.1,34.4h1.8C16.6,673.9,4.8,659.3,4.8,639.5z"/>
				<path class="st59" d="M4.4,639.5V39.7c0-19.5,13.2-34.3,34.3-34.3h-1.6C15.9,5.4,2.6,20.2,2.6,39.7v599.8
					c0,19.7,11.9,34.4,39.1,34.4h1.6C16.3,673.9,4.4,659.3,4.4,639.5z"/>
				<path class="st60" d="M4.1,639.5V39.7c0-19.5,13.2-34.3,34.3-34.3h-1.3C15.9,5.4,2.6,20.2,2.6,39.7v599.8
					c0,19.7,11.9,34.4,39.1,34.4H43C15.9,673.9,4.1,659.3,4.1,639.5z"/>
				<path class="st29" d="M3.8,639.5V39.7C3.8,20.2,17,5.4,38.2,5.4h-1.1C15.9,5.4,2.6,20.2,2.6,39.7v599.8
					c0,19.7,11.9,34.4,39.1,34.4h1.1C15.6,673.9,3.8,659.3,3.8,639.5z"/>
				<path class="st61" d="M3.5,639.5V39.7C3.5,20.2,16.8,5.4,38,5.4h-0.8C15.9,5.4,2.6,20.2,2.6,39.7v599.8
					c0,19.7,11.9,34.4,39.1,34.4h0.8C15.3,673.9,3.5,659.3,3.5,639.5z"/>
				<path class="st32" d="M3.1,639.5V39.7c0-19.5,13.3-34.3,34.5-34.3h-0.5C15.9,5.4,2.6,20.2,2.6,39.7v599.8
					c0,19.7,11.9,34.4,39.1,34.4h0.5C15,673.9,3.1,659.3,3.1,639.5z"/>
			</g>
			<g class="st35">
				<path class="st34" d="M336.2,673.9h8.5c27.2,0,39.1-14.6,39.1-34.4V39.7c0-19.5-13.3-34.3-34.5-34.3h-8.7
					c20.1,0,32.6,14.8,32.6,34.3v599.8C373.1,659.3,361.8,673.9,336.2,673.9z"/>
				<path class="st36" d="M373.4,639.5V39.7c0-19.5-12.6-34.3-32.7-34.3h8.5c21.3,0,34.5,14.8,34.5,34.3v599.8
					c0,19.7-11.9,34.4-39.1,34.4h-8.2C362.2,673.9,373.4,659.3,373.4,639.5z"/>
				<path class="st37" d="M373.7,639.5V39.7c0-19.5-12.6-34.3-32.7-34.3h8.2c21.3,0,34.5,14.8,34.5,34.3v599.8
					c0,19.7-11.9,34.4-39.1,34.4h-8C362.5,673.9,373.7,659.3,373.7,639.5z"/>
				<path class="st38" d="M374.1,639.5V39.7c0-19.5-12.6-34.3-32.8-34.3h7.9c21.3,0,34.5,14.8,34.5,34.3v599.8
					c0,19.7-11.9,34.4-39.1,34.4h-7.7C362.8,673.9,374.1,659.3,374.1,639.5z"/>
				<path class="st39" d="M374.4,639.5V39.7c0-19.5-12.6-34.3-32.9-34.3h7.7c21.3,0,34.5,14.8,34.5,34.3v599.8
					c0,19.7-11.9,34.4-39.1,34.4h-7.4C363.1,673.9,374.4,659.3,374.4,639.5z"/>
				<path class="st40" d="M374.7,639.5V39.7c0-19.5-12.7-34.3-32.9-34.3h7.4c21.3,0,34.5,14.8,34.5,34.3v599.8
					c0,19.7-11.9,34.4-39.1,34.4h-7.2C363.4,673.9,374.7,659.3,374.7,639.5z"/>
				<path class="st41" d="M375,639.5V39.7c0-19.5-12.7-34.3-33-34.3h7.1c21.3,0,34.5,14.8,34.5,34.3v599.8
					c0,19.7-11.9,34.4-39.1,34.4h-6.9C363.7,673.9,375,659.3,375,639.5z"/>
				<path class="st42" d="M375.4,639.5V39.7c0-19.5-12.7-34.3-33-34.3h6.9c21.3,0,34.5,14.8,34.5,34.3v599.8
					c0,19.7-11.9,34.4-39.1,34.4H338C364,673.9,375.4,659.3,375.4,639.5z"/>
				<path class="st43" d="M375.7,639.5V39.7c0-19.5-12.7-34.3-33.1-34.3h6.6c21.3,0,34.5,14.8,34.5,34.3v599.8
					c0,19.7-11.9,34.4-39.1,34.4h-6.4C364.3,673.9,375.7,659.3,375.7,639.5z"/>
				<path class="st44" d="M376,639.5V39.7c0-19.5-12.8-34.3-33.2-34.3h6.3c21.3,0,34.5,14.8,34.5,34.3v599.8
					c0,19.7-11.9,34.4-39.1,34.4h-6.2C364.6,673.9,376,659.3,376,639.5z"/>
				<path class="st45" d="M376.3,639.5V39.7c0-19.5-12.8-34.3-33.2-34.3h6.1c21.3,0,34.5,14.8,34.5,34.3v599.8
					c0,19.7-11.9,34.4-39.1,34.4h-5.9C364.9,673.9,376.3,659.3,376.3,639.5z"/>
				<path class="st46" d="M376.7,639.5V39.7c0-19.5-12.8-34.3-33.3-34.3h5.8c21.3,0,34.5,14.8,34.5,34.3v599.8
					c0,19.7-11.9,34.4-39.1,34.4H339C365.2,673.9,376.7,659.3,376.7,639.5z"/>
				<path class="st47" d="M377,639.5V39.7c0-19.5-12.8-34.3-33.3-34.3h5.6c21.3,0,34.5,14.8,34.5,34.3v599.8
					c0,19.7-11.9,34.4-39.1,34.4h-5.4C365.5,673.9,377,659.3,377,639.5z"/>
				<path class="st4" d="M377.3,639.5V39.7c0-19.5-12.8-34.3-33.4-34.3h5.3c21.3,0,34.5,14.8,34.5,34.3v599.8
					c0,19.7-11.9,34.4-39.1,34.4h-5.1C365.8,673.9,377.3,659.3,377.3,639.5z"/>
				<path class="st48" d="M377.7,639.5V39.7c0-19.5-12.9-34.3-33.5-34.3h5c21.3,0,34.5,14.8,34.5,34.3v599.8
					c0,19.7-11.9,34.4-39.1,34.4h-4.9C366.1,673.9,377.7,659.3,377.7,639.5z"/>
				<path class="st7" d="M378,639.5V39.7c0-19.5-12.9-34.3-33.5-34.3h4.8c21.3,0,34.5,14.8,34.5,34.3v599.8
					c0,19.7-11.9,34.4-39.1,34.4H340C366.4,673.9,378,659.3,378,639.5z"/>
				<path class="st49" d="M378.3,639.5V39.7c0-19.5-12.9-34.3-33.6-34.3h4.5c21.3,0,34.5,14.8,34.5,34.3v599.8
					c0,19.7-11.9,34.4-39.1,34.4h-4.4C366.7,673.9,378.3,659.3,378.3,639.5z"/>
				<path class="st50" d="M378.6,639.5V39.7c0-19.5-12.9-34.3-33.7-34.3h4.2c21.3,0,34.5,14.8,34.5,34.3v599.8
					c0,19.7-11.9,34.4-39.1,34.4h-4.1C367,673.9,378.6,659.3,378.6,639.5z"/>
				<path class="st51" d="M379,639.5V39.7c0-19.5-13-34.3-33.7-34.3h4c21.3,0,34.5,14.8,34.5,34.3v599.8c0,19.7-11.9,34.4-39.1,34.4
					h-3.9C367.3,673.9,379,659.3,379,639.5z"/>
				<path class="st52" d="M379.3,639.5V39.7c0-19.5-13-34.3-33.8-34.3h3.7c21.3,0,34.5,14.8,34.5,34.3v599.8
					c0,19.7-11.9,34.4-39.1,34.4H341C367.6,673.9,379.3,659.3,379.3,639.5z"/>
				<path class="st53" d="M379.6,639.5V39.7c0-19.5-13-34.3-33.8-34.3h3.4c21.3,0,34.5,14.8,34.5,34.3v599.8
					c0,19.7-11.9,34.4-39.1,34.4h-3.4C367.9,673.9,379.6,659.3,379.6,639.5z"/>
				<path class="st54" d="M379.9,639.5V39.7c0-19.5-13-34.3-33.9-34.3h3.2c21.3,0,34.5,14.8,34.5,34.3v599.8
					c0,19.7-11.9,34.4-39.1,34.4h-3.1C368.2,673.9,379.9,659.3,379.9,639.5z"/>
				<path class="st18" d="M380.3,639.5V39.7c0-19.5-13.1-34.3-34-34.3h2.9c21.3,0,34.5,14.8,34.5,34.3v599.8
					c0,19.7-11.9,34.4-39.1,34.4h-2.8C368.5,673.9,380.3,659.3,380.3,639.5z"/>
				<path class="st55" d="M380.6,639.5V39.7c0-19.5-13.1-34.3-34-34.3h2.7c21.3,0,34.5,14.8,34.5,34.3v599.8
					c0,19.7-11.9,34.4-39.1,34.4H342C368.9,673.9,380.6,659.3,380.6,639.5z"/>
				<path class="st56" d="M380.9,639.5V39.7c0-19.5-13.1-34.3-34.1-34.3h2.4c21.3,0,34.5,14.8,34.5,34.3v599.8
					c0,19.7-11.9,34.4-39.1,34.4h-2.3C369.2,673.9,380.9,659.3,380.9,639.5z"/>
				<path class="st57" d="M381.2,639.5V39.7c0-19.5-13.1-34.3-34.2-34.3h2.1c21.3,0,34.5,14.8,34.5,34.3v599.8
					c0,19.7-11.9,34.4-39.1,34.4h-2.1C369.5,673.9,381.2,659.3,381.2,639.5z"/>
				<path class="st58" d="M381.6,639.5V39.7c0-19.5-13.2-34.3-34.2-34.3h1.9c21.3,0,34.5,14.8,34.5,34.3v599.8
					c0,19.7-11.9,34.4-39.1,34.4h-1.8C369.8,673.9,381.6,659.3,381.6,639.5z"/>
				<path class="st59" d="M381.9,639.5V39.7c0-19.5-13.2-34.3-34.3-34.3h1.6c21.3,0,34.5,14.8,34.5,34.3v599.8
					c0,19.7-11.9,34.4-39.1,34.4H343C370.1,673.9,381.9,659.3,381.9,639.5z"/>
				<path class="st60" d="M382.2,639.5V39.7c0-19.5-13.2-34.3-34.3-34.3h1.3c21.3,0,34.5,14.8,34.5,34.3v599.8
					c0,19.7-11.9,34.4-39.1,34.4h-1.3C370.4,673.9,382.2,659.3,382.2,639.5z"/>
				<path class="st29" d="M382.5,639.5V39.7c0-19.5-13.2-34.3-34.4-34.3h1.1c21.3,0,34.5,14.8,34.5,34.3v599.8
					c0,19.7-11.9,34.4-39.1,34.4h-1.1C370.7,673.9,382.5,659.3,382.5,639.5z"/>
				<path class="st61" d="M382.9,639.5V39.7c0-19.5-13.3-34.3-34.5-34.3h0.8c21.3,0,34.5,14.8,34.5,34.3v599.8
					c0,19.7-11.9,34.4-39.1,34.4h-0.8C371,673.9,382.9,659.3,382.9,639.5z"/>
				<path class="st32" d="M383.2,639.5V39.7c0-19.5-13.3-34.3-34.5-34.3h0.5c21.3,0,34.5,14.8,34.5,34.3v599.8
					c0,19.7-11.9,34.4-39.1,34.4h-0.5C371.3,673.9,383.2,659.3,383.2,639.5z"/>
			</g>
			<g class="st62">
				<path class="st63" d="M344.9,6c0.2-0.2-67.9-0.5-151.7-0.5S41.8,5.7,41.5,6c-1.4,1.3,67.9,2.7,151.7,2.7S343.5,7.2,344.9,6z"/>
				<path class="st64" d="M344.9,6c0.2-0.2-67.9-0.5-151.7-0.5S41.8,5.7,41.5,6c-1.4,1.2,67.9,2.6,151.7,2.6S343.5,7.2,344.9,6z"/>
				<path class="st65" d="M344.9,6c0.2-0.2-67.9-0.5-151.7-0.5S41.8,5.7,41.5,6c-1.3,1.2,67.9,2.5,151.7,2.5S343.6,7.2,344.9,6z"/>
				<path class="st66" d="M344.9,6c0.2-0.2-67.9-0.5-151.7-0.5S41.7,5.7,41.5,6c-1.2,1.2,67.9,2.5,151.7,2.5S343.6,7.2,344.9,6z"/>
				<path class="st67" d="M344.9,6c0.2-0.2-67.9-0.5-151.7-0.5S41.7,5.7,41.5,6c-1.2,1.2,67.9,2.4,151.7,2.4S343.7,7.2,344.9,6z"/>
				<path class="st68" d="M344.9,6c0.2-0.2-67.9-0.5-151.7-0.5S41.7,5.7,41.5,6c-1.1,1.2,67.9,2.3,151.7,2.3S343.7,7.1,344.9,6z"/>
				<path class="st69" d="M344.9,6c0.2-0.2-67.9-0.5-151.7-0.5S41.7,5.7,41.5,6c-1.1,1.1,67.9,2.3,151.7,2.3S343.8,7.1,344.9,6z"/>
				<path class="st70" d="M344.9,6c0.2-0.2-67.9-0.5-151.7-0.5S41.7,5.7,41.5,6c-1,1.1,67.9,2.2,151.7,2.2S343.8,7.1,344.9,6z"/>
				<path class="st71" d="M344.9,6c0.2-0.2-67.9-0.5-151.7-0.5S41.7,5.7,41.5,6c-1,1.1,67.9,2.1,151.7,2.1S343.9,7.1,344.9,6z"/>
				<path class="st72" d="M344.9,6c0.2-0.2-67.9-0.5-151.7-0.5S41.7,5.7,41.5,6c-1,1,67.9,2,151.7,2S344,7,344.9,6z"/>
				<path class="st73" d="M344.9,6c0.2-0.2-67.9-0.5-151.7-0.5S41.7,5.7,41.5,6c-0.9,1,67.9,2,151.7,2S344,7,344.9,6z"/>
				<path class="st74" d="M344.9,6c0.2-0.2-67.9-0.5-151.7-0.5S41.7,5.7,41.5,6c-0.8,1,67.9,1.9,151.7,1.9S344.1,7,344.9,6z"/>
				<path class="st75" d="M344.9,6c0.2-0.2-67.9-0.5-151.7-0.5S41.7,5.7,41.5,6c-0.8,1,67.9,1.8,151.7,1.8S344.1,6.9,344.9,6z"/>
				<path class="st76" d="M344.9,6c0.2-0.2-67.9-0.5-151.7-0.5S41.7,5.7,41.5,6c-0.7,0.9,67.9,1.8,151.7,1.8S344.2,6.9,344.9,6z"/>
				<path class="st77" d="M344.9,6c0.2-0.2-67.9-0.5-151.7-0.5S41.7,5.7,41.5,6c-0.7,0.9,67.9,1.7,151.7,1.7S344.2,6.9,344.9,6z"/>
				<path class="st78" d="M344.9,6c0.2-0.2-67.9-0.5-151.7-0.5S41.7,5.7,41.5,6c-0.6,0.9,67.9,1.6,151.7,1.6S344.3,6.9,344.9,6z"/>
				<path class="st79" d="M344.9,6c0.2-0.2-67.9-0.5-151.7-0.5S41.6,5.7,41.5,6c-0.6,0.8,67.9,1.6,151.7,1.6S344.3,6.8,344.9,6z"/>
				<path class="st80" d="M344.9,6C345,5.8,277,5.5,193.2,5.5S41.6,5.7,41.5,6C41,6.8,109.4,7.5,193.2,7.5S344.3,6.8,344.9,6z"/>
				<path class="st81" d="M344.9,6C345,5.8,277,5.5,193.2,5.5S41.6,5.7,41.5,6C41,6.7,109.4,7.4,193.2,7.4S344.4,6.7,344.9,6z"/>
				<path class="st82" d="M344.9,6C345,5.8,277,5.5,193.2,5.5S41.6,5.7,41.5,6C41,6.7,109.4,7.3,193.2,7.3S344.4,6.7,344.9,6z"/>
				<path class="st83" d="M344.9,6C345,5.7,277,5.5,193.2,5.5S41.6,5.7,41.5,6c-0.4,0.7,67.9,1.3,151.7,1.3S344.4,6.6,344.9,6z"/>
				<path class="st84" d="M344.9,6C345,5.7,277,5.5,193.2,5.5S41.6,5.7,41.5,6c-0.4,0.7,67.9,1.2,151.7,1.2S344.4,6.6,344.9,6z"/>
				<path class="st85" d="M344.9,6C345,5.7,277,5.5,193.2,5.5S41.6,5.7,41.5,6c-0.3,0.6,67.9,1.1,151.7,1.1S344.5,6.5,344.9,6z"/>
				<path class="st86" d="M344.9,6C345,5.7,277,5.5,193.2,5.5S41.6,5.7,41.5,6c-0.3,0.5,67.9,1,151.7,1S344.5,6.5,344.9,6z"/>
				<path class="st87" d="M344.9,6C345,5.7,277,5.5,193.2,5.5S41.6,5.7,41.5,6c-0.2,0.6,67.9,1,151.7,1S344.5,6.5,344.9,6z"/>
				<path class="st88" d="M344.9,6c0-0.3-67.9-0.5-151.7-0.5S41.6,5.7,41.5,6c-0.2,0.5,67.9,0.9,151.7,0.9S344.6,6.4,344.9,6z"/>
				<path class="st89" d="M344.9,6C345,5.7,277,5.5,193.2,5.5S41.6,5.7,41.5,6c-0.2,0.5,67.9,0.9,151.7,0.9S344.7,6.4,344.9,6z"/>
				<path class="st90" d="M344.9,6C345,5.7,277,5.5,193.2,5.5S41.6,5.7,41.5,6c-0.1,0.4,67.9,0.8,151.7,0.8S344.7,6.4,344.9,6z"/>
				<path class="st91" d="M344.9,6C345,5.7,277,5.5,193.2,5.5S41.5,5.7,41.5,6c-0.1,0.4,67.9,0.7,151.7,0.7S344.8,6.3,344.9,6z"/>
				<path class="st29" d="M344.9,6c0-0.3-67.9-0.5-151.7-0.5S41.5,5.7,41.5,6c-0.1,0.4,67.9,0.7,151.7,0.7S344.8,6.3,344.9,6z"/>
				<path class="st61" d="M344.9,6c0-0.3-67.9-0.5-151.7-0.5S41.5,5.7,41.5,6s67.9,0.6,151.7,0.6S344.8,6.3,344.9,6z"/>
				<path class="st32" d="M344.9,6c0-0.3-67.9-0.5-151.7-0.5S41.5,5.7,41.5,6s67.9,0.5,151.7,0.5S344.9,6.2,344.9,6z"/>
			</g>
			<g class="st62">
				<path class="st63" d="M41.5,673.4c-0.2,0.2,67.9,0.5,151.7,0.5s151.4-0.3,151.7-0.5c1.4-1.3-67.9-2.7-151.7-2.7
					S42.9,672.1,41.5,673.4z"/>
				<path class="st64" d="M41.5,673.4c-0.2,0.2,67.9,0.5,151.7,0.5s151.4-0.3,151.7-0.5c1.4-1.2-67.9-2.6-151.7-2.6
					C109.4,670.8,42.8,672.1,41.5,673.4z"/>
				<path class="st65" d="M41.5,673.4c-0.2,0.2,67.9,0.5,151.7,0.5s151.4-0.3,151.7-0.5c1.3-1.2-67.9-2.5-151.7-2.5
					C109.4,670.8,42.8,672.1,41.5,673.4z"/>
				<path class="st66" d="M41.5,673.4c-0.2,0.2,67.9,0.5,151.7,0.5s151.4-0.3,151.7-0.5c1.2-1.2-67.9-2.5-151.7-2.5
					S42.7,672.2,41.5,673.4z"/>
				<path class="st67" d="M41.5,673.4c-0.2,0.2,67.9,0.5,151.7,0.5s151.4-0.3,151.7-0.5c1.2-1.2-67.9-2.4-151.7-2.4
					S42.6,672.2,41.5,673.4z"/>
				<path class="st68" d="M41.5,673.4c-0.2,0.2,67.9,0.5,151.7,0.5s151.4-0.3,151.7-0.5c1.1-1.2-67.9-2.3-151.7-2.3
					C109.4,671.1,42.6,672.2,41.5,673.4z"/>
				<path class="st69" d="M41.5,673.4c-0.2,0.2,67.9,0.5,151.7,0.5s151.4-0.3,151.7-0.5c1.1-1.1-67.9-2.3-151.7-2.3
					C109.4,671.1,42.5,672.2,41.5,673.4z"/>
				<path class="st70" d="M41.5,673.4c-0.2,0.2,67.9,0.5,151.7,0.5s151.5-0.3,151.7-0.5c1-1.1-67.9-2.2-151.7-2.2
					S42.5,672.2,41.5,673.4z"/>
				<path class="st71" d="M41.5,673.4c-0.2,0.2,67.9,0.5,151.7,0.5s151.5-0.3,151.7-0.5c1-1.1-67.9-2.1-151.7-2.1
					C109.4,671.3,42.4,672.3,41.5,673.4z"/>
				<path class="st72" d="M41.5,673.4c-0.2,0.2,67.9,0.5,151.7,0.5s151.5-0.3,151.7-0.5c0.9-1.1-67.9-2-151.7-2
					C109.4,671.3,42.4,672.3,41.5,673.4z"/>
				<path class="st73" d="M41.5,673.4c-0.2,0.2,67.9,0.5,151.7,0.5s151.5-0.3,151.7-0.5c0.9-1-67.9-2-151.7-2S42.3,672.3,41.5,673.4
					z"/>
				<path class="st74" d="M41.5,673.4c-0.2,0.2,67.9,0.5,151.7,0.5s151.5-0.3,151.7-0.5c0.8-1-67.9-1.9-151.7-1.9
					S42.3,672.4,41.5,673.4z"/>
				<path class="st75" d="M41.5,673.4c-0.2,0.2,67.9,0.5,151.7,0.5s151.5-0.3,151.7-0.5c0.8-1-67.9-1.8-151.7-1.8
					C109.4,671.5,42.2,672.4,41.5,673.4z"/>
				<path class="st76" d="M41.5,673.4c-0.2,0.2,67.9,0.5,151.7,0.5s151.5-0.3,151.7-0.5c0.7-0.9-67.9-1.8-151.7-1.8
					C109.4,671.6,42.2,672.4,41.5,673.4z"/>
				<path class="st77" d="M41.5,673.4c-0.2,0.2,67.9,0.5,151.7,0.5s151.5-0.3,151.7-0.5c0.7-0.9-67.9-1.7-151.7-1.7
					S42.1,672.5,41.5,673.4z"/>
				<path class="st78" d="M41.5,673.4c-0.2,0.2,67.9,0.5,151.7,0.5s151.5-0.3,151.7-0.5c0.6-0.9-67.9-1.6-151.7-1.6
					C109.4,671.8,42.1,672.5,41.5,673.4z"/>
				<path class="st79" d="M41.5,673.4c-0.2,0.2,67.9,0.5,151.7,0.5s151.5-0.3,151.7-0.5c0.6-0.8-67.9-1.6-151.7-1.6
					C109.4,671.8,42,672.5,41.5,673.4z"/>
				<path class="st80" d="M41.5,673.4c-0.1,0.2,67.9,0.5,151.7,0.5s151.5-0.3,151.7-0.5c0.5-0.8-67.9-1.5-151.7-1.5
					S42,672.6,41.5,673.4z"/>
				<path class="st81" d="M41.5,673.4c-0.1,0.2,67.9,0.5,151.7,0.5s151.5-0.3,151.7-0.5c0.5-0.8-67.9-1.4-151.7-1.4
					S41.9,672.6,41.5,673.4z"/>
				<path class="st82" d="M41.5,673.4c-0.1,0.2,67.9,0.5,151.7,0.5s151.5-0.3,151.7-0.5c0.4-0.7-67.9-1.4-151.7-1.4
					S41.9,672.6,41.5,673.4z"/>
				<path class="st83" d="M41.5,673.4c-0.1,0.3,67.9,0.5,151.7,0.5s151.6-0.3,151.7-0.5c0.4-0.7-67.9-1.3-151.7-1.3
					C109.4,672.1,42,672.7,41.5,673.4z"/>
				<path class="st84" d="M41.5,673.4c-0.1,0.3,67.9,0.5,151.7,0.5s151.6-0.3,151.7-0.5c0.4-0.7-67.9-1.2-151.7-1.2
					S41.9,672.8,41.5,673.4z"/>
				<path class="st85" d="M41.5,673.4c-0.1,0.3,67.9,0.5,151.7,0.5s151.6-0.3,151.7-0.5c0.3-0.6-67.9-1.1-151.7-1.1
					C109.4,672.2,41.9,672.8,41.5,673.4z"/>
				<path class="st86" d="M41.5,673.4c-0.1,0.3,67.9,0.5,151.7,0.5s151.6-0.3,151.7-0.5c0.3-0.6-67.9-1.1-151.7-1.1
					C109.4,672.3,41.8,672.8,41.5,673.4z"/>
				<path class="st87" d="M41.5,673.4c-0.1,0.3,67.9,0.5,151.7,0.5s151.6-0.2,151.7-0.5c0.2-0.6-67.9-1-151.7-1
					S41.8,672.9,41.5,673.4z"/>
				<path class="st88" d="M41.5,673.4c0,0.3,67.9,0.5,151.7,0.5s151.6-0.2,151.7-0.5c0.2-0.5-67.9-0.9-151.7-0.9
					S41.7,672.9,41.5,673.4z"/>
				<path class="st89" d="M41.5,673.4c-0.1,0.3,67.9,0.5,151.7,0.5s151.6-0.2,151.7-0.5c0.2-0.5-67.9-0.9-151.7-0.9
					S41.6,672.9,41.5,673.4z"/>
				<path class="st90" d="M41.5,673.4c-0.1,0.3,67.9,0.5,151.7,0.5s151.6-0.2,151.7-0.5c0.1-0.4-67.9-0.8-151.7-0.8
					C109.4,672.6,41.6,672.9,41.5,673.4z"/>
				<path class="st91" d="M41.5,673.4c-0.1,0.3,67.9,0.5,151.7,0.5s151.6-0.2,151.7-0.5c0.1-0.4-67.9-0.7-151.7-0.7
					S41.5,673,41.5,673.4z"/>
				<path class="st29" d="M41.5,673.4c0,0.3,67.9,0.5,151.7,0.5s151.7-0.2,151.7-0.5c0.1-0.4-67.9-0.7-151.7-0.7
					S41.5,673,41.5,673.4z"/>
				<path class="st61" d="M41.5,673.4c0,0.3,67.9,0.5,151.7,0.5s151.7-0.2,151.7-0.5s-67.9-0.6-151.7-0.6
					C109.4,672.8,41.5,673.1,41.5,673.4z"/>
				<path class="st32" d="M41.5,673.4c0,0.3,67.9,0.5,151.7,0.5s151.7-0.2,151.7-0.5s-67.9-0.5-151.7-0.5S41.5,673.1,41.5,673.4z"/>
			</g>
			<g>
				
					<linearGradient id="SVGID_1_" gradientUnits="userSpaceOnUse" x1="193.15" y1="669.9333" x2="193.15" y2="675.3493" gradientTransform="matrix(1 0 0 -1 0 682)">
					<stop  offset="0" style="stop-color:#201F23"/>
					<stop  offset="1" style="stop-color:#010101"/>
				</linearGradient>
				<path class="st92" d="M166.7,12.2h52.9c3.9,0,7.1-2.9,7.6-6.7h-68.1C159.6,9.2,162.8,12.2,166.7,12.2z"/>
				<g>
					<path class="st1" d="M220.1,12.1v-1.6h1.6v1.3c0.6-0.2,1.2-0.4,1.8-0.8v-0.6h0.8c0.3-0.2,0.6-0.5,0.9-0.8V8.8h0.8
						c0.7-1,1.1-2.1,1.3-3.4h-68.1c0,0.1,0,0.1,0,0.2h0.7v1.6h-0.2c0.1,0.3,0.3,0.6,0.4,0.9v-1h1.6v1.6h-1.2
						c0.4,0.6,0.8,1.1,1.3,1.5V8.8h1.6v1.6H162c0.4,0.4,0.9,0.7,1.5,1v-0.8h1.6V12c0.6,0.1,1.2,0.2,1.9,0.2h52.9
						c0.3,0,0.6,0,0.9-0.1C220.8,12.1,220.1,12.1,220.1,12.1z M225.1,5.6h1.6v1.6h-1.6V5.6z M223.4,7.1h1.6v1.6h-1.6V7.1z
						 M223.4,10.4h-1.6V8.8h1.6V10.4z M221.7,5.6h1.6v1.6h-1.6V5.6z M220.1,7.1h1.6v1.6h-1.6V7.1z M163.1,7.2h-1.6V5.6h1.6V7.2z
						 M164.9,8.7h-1.6V7.1h1.6V8.7z M164.9,5.6h1.6v1.6h-1.6V5.6z M166.6,10.4H165V8.8h1.6V10.4z M168.2,12.1h-1.6v-1.6h1.6V12.1z
						 M168.2,8.7h-1.6V7.1h1.6V8.7z M168.3,5.6h1.6v1.6h-1.6V5.6z M169.9,10.4h-1.6V8.8h1.6V10.4z M171.6,12.1H170v-1.6h1.6V12.1z
						 M171.6,8.7H170V7.1h1.6V8.7z M171.6,5.6h1.6v1.6h-1.6V5.6z M173.2,10.4h-1.6V8.8h1.6V10.4z M174.9,12.1h-1.6v-1.6h1.6V12.1z
						 M174.9,8.7h-1.6V7.1h1.6V8.7z M174.9,5.6h1.6v1.6h-1.6V5.6z M176.6,10.4H175V8.8h1.6V10.4z M178.2,12.1h-1.6v-1.6h1.6V12.1z
						 M178.2,8.7h-1.6V7.1h1.6V8.7z M178.3,5.6h1.6v1.6h-1.6V5.6z M179.9,10.4h-1.6V8.8h1.6V10.4z M181.6,12.1H180v-1.6h1.6V12.1z
						 M181.6,8.7H180V7.1h1.6V8.7z M181.6,5.6h1.6v1.6h-1.6V5.6z M183.3,10.4h-1.6V8.8h1.6V10.4z M184.9,12.1h-1.6v-1.6h1.6V12.1z
						 M184.9,8.7h-1.6V7.1h1.6V8.7z M185,5.6h1.6v1.6H185V5.6z M186.6,10.4H185V8.8h1.6V10.4z M188.3,12.1h-1.6v-1.6h1.6V12.1z
						 M188.3,8.7h-1.6V7.1h1.6V8.7z M188.3,5.6h1.6v1.6h-1.6V5.6z M190,10.4h-1.6V8.8h1.6V10.4z M191.6,12.1H190v-1.6h1.6V12.1z
						 M191.6,8.7H190V7.1h1.6V8.7z M191.6,5.6h1.6v1.6h-1.6V5.6z M193.3,10.4h-1.6V8.8h1.6V10.4z M194.9,12.1h-1.6v-1.6h1.6V12.1z
						 M194.9,8.7h-1.6V7.1h1.6V8.7z M195,5.6h1.6v1.6H195V5.6z M196.6,10.4H195V8.8h1.6V10.4z M198.3,12.1h-1.6v-1.6h1.6V12.1z
						 M198.3,8.7h-1.6V7.1h1.6V8.7z M198.3,5.6h1.6v1.6h-1.6V5.6z M200,10.4h-1.6V8.8h1.6V10.4z M201.6,12.1H200v-1.6h1.6V12.1z
						 M201.6,8.7H200V7.1h1.6V8.7z M201.7,5.6h1.6v1.6h-1.6V5.6z M203.3,10.4h-1.6V8.8h1.6V10.4z M205,12.1h-1.6v-1.6h1.6V12.1z
						 M205,8.7h-1.6V7.1h1.6V8.7z M205,5.6h1.6v1.6H205V5.6z M206.7,10.4h-1.6V8.8h1.6V10.4z M208.3,12.1h-1.6v-1.6h1.6V12.1z
						 M208.3,8.7h-1.6V7.1h1.6V8.7z M208.4,5.6h1.6v1.6h-1.6V5.6z M210,10.4h-1.6V8.8h1.6V10.4z M211.6,12.1H210v-1.6h1.6V12.1z
						 M211.6,8.7H210V7.1h1.6V8.7z M211.7,5.6h1.6v1.6h-1.6V5.6z M213.3,10.4h-1.6V8.8h1.6V10.4z M215,12.1h-1.6v-1.6h1.6V12.1z
						 M215,8.7h-1.6V7.1h1.6V8.7z M215,5.6h1.6v1.6H215V5.6z M216.7,10.4h-1.6V8.8h1.6V10.4z M218.3,12.1h-1.6v-1.6h1.6V12.1z
						 M218.3,8.7h-1.6V7.1h1.6V8.7z M218.4,5.6h1.6v1.6h-1.6V5.6z M220,10.4h-1.6V8.8h1.6V10.4z"/>
					<rect x="161.6" y="5.6" class="st93" width="1.6" height="1.6"/>
					<path class="st93" d="M159.8,5.6h-0.7c0.1,0.5,0.2,1.1,0.4,1.6h0.2V5.6H159.8z"/>
					<rect x="164.9" y="5.6" class="st93" width="1.6" height="1.6"/>
					<rect x="168.3" y="5.6" class="st93" width="1.6" height="1.6"/>
					<rect x="174.9" y="5.6" class="st93" width="1.6" height="1.6"/>
					<rect x="171.6" y="5.6" class="st93" width="1.6" height="1.6"/>
					<rect x="178.3" y="5.6" class="st93" width="1.6" height="1.6"/>
					<rect x="181.6" y="5.6" class="st93" width="1.6" height="1.6"/>
					<rect x="188.3" y="5.6" class="st93" width="1.6" height="1.6"/>
					<rect x="185" y="5.6" class="st93" width="1.6" height="1.6"/>
					<rect x="191.6" y="5.6" class="st93" width="1.6" height="1.6"/>
					<rect x="195" y="5.6" class="st93" width="1.6" height="1.6"/>
					<rect x="201.7" y="5.6" class="st93" width="1.6" height="1.6"/>
					<rect x="198.3" y="5.6" class="st93" width="1.6" height="1.6"/>
					<rect x="205" y="5.6" class="st93" width="1.6" height="1.6"/>
					<rect x="208.4" y="5.6" class="st93" width="1.6" height="1.6"/>
					<rect x="211.7" y="5.6" class="st93" width="1.6" height="1.6"/>
					<rect x="215" y="5.6" class="st93" width="1.6" height="1.6"/>
					<rect x="218.4" y="5.6" class="st93" width="1.6" height="1.6"/>
					<rect x="221.7" y="5.6" class="st93" width="1.6" height="1.6"/>
					<rect x="225.1" y="5.6" class="st93" width="1.6" height="1.6"/>
					<rect x="163.3" y="7.1" class="st94" width="1.6" height="1.6"/>
					<path class="st94" d="M161.5,7.1H160v1c0.1,0.2,0.2,0.4,0.4,0.6h1.2L161.5,7.1L161.5,7.1z"/>
					<rect x="166.7" y="7.1" class="st94" width="1.6" height="1.6"/>
					<rect x="170" y="7.1" class="st94" width="1.6" height="1.6"/>
					<rect x="176.7" y="7.1" class="st94" width="1.6" height="1.6"/>
					<rect x="173.3" y="7.1" class="st94" width="1.6" height="1.6"/>
					<rect x="180" y="7.1" class="st94" width="1.6" height="1.6"/>
					<rect x="183.4" y="7.1" class="st94" width="1.6" height="1.6"/>
					<rect x="190" y="7.1" class="st94" width="1.6" height="1.6"/>
					<rect x="186.7" y="7.1" class="st94" width="1.6" height="1.6"/>
					<rect x="193.4" y="7.1" class="st94" width="1.6" height="1.6"/>
					<rect x="196.7" y="7.1" class="st94" width="1.6" height="1.6"/>
					<rect x="203.4" y="7.1" class="st94" width="1.6" height="1.6"/>
					<rect x="200.1" y="7.1" class="st94" width="1.6" height="1.6"/>
					<rect x="206.7" y="7.1" class="st94" width="1.6" height="1.6"/>
					<rect x="210.1" y="7.1" class="st94" width="1.6" height="1.6"/>
					<rect x="213.4" y="7.1" class="st94" width="1.6" height="1.6"/>
					<rect x="216.8" y="7.1" class="st94" width="1.6" height="1.6"/>
					<rect x="220.1" y="7.1" class="st94" width="1.6" height="1.6"/>
					<rect x="223.4" y="7.1" class="st94" width="1.6" height="1.6"/>
					<path class="st34" d="M163.3,10.5v0.8c0.5,0.2,1,0.4,1.6,0.6v-1.4C164.9,10.5,163.3,10.5,163.3,10.5z"/>
					<rect x="166.7" y="10.5" class="st34" width="1.6" height="1.6"/>
					<rect x="170" y="10.5" class="st34" width="1.6" height="1.6"/>
					<rect x="176.7" y="10.5" class="st34" width="1.6" height="1.6"/>
					<rect x="173.3" y="10.5" class="st34" width="1.6" height="1.6"/>
					<rect x="180" y="10.5" class="st34" width="1.6" height="1.6"/>
					<rect x="183.4" y="10.5" class="st34" width="1.6" height="1.6"/>
					<rect x="190" y="10.5" class="st34" width="1.6" height="1.6"/>
					<rect x="186.7" y="10.5" class="st34" width="1.6" height="1.6"/>
					<rect x="193.4" y="10.5" class="st34" width="1.6" height="1.6"/>
					<rect x="196.7" y="10.5" class="st34" width="1.6" height="1.6"/>
					<rect x="203.4" y="10.5" class="st34" width="1.6" height="1.6"/>
					<rect x="200.1" y="10.5" class="st34" width="1.6" height="1.6"/>
					<rect x="206.7" y="10.5" class="st34" width="1.6" height="1.6"/>
					<rect x="210.1" y="10.5" class="st34" width="1.6" height="1.6"/>
					<rect x="213.4" y="10.5" class="st34" width="1.6" height="1.6"/>
					<rect x="216.8" y="10.5" class="st34" width="1.6" height="1.6"/>
					<path class="st34" d="M220.1,10.5v1.6h0.4c0.4,0,0.8-0.1,1.2-0.2v-1.3h-1.6V10.5z"/>
					<path class="st34" d="M223.4,11.1c0.3-0.2,0.6-0.4,0.8-0.6h-0.8V11.1z"/>
					<path class="st95" d="M163.2,8.8h-1.6v1.4c0.1,0.1,0.1,0.1,0.2,0.2h1.4L163.2,8.8L163.2,8.8z"/>
					<rect x="165" y="8.8" class="st95" width="1.6" height="1.6"/>
					<rect x="168.3" y="8.8" class="st95" width="1.6" height="1.6"/>
					<rect x="175" y="8.8" class="st95" width="1.6" height="1.6"/>
					<rect x="171.7" y="8.8" class="st95" width="1.6" height="1.6"/>
					<rect x="178.4" y="8.8" class="st95" width="1.6" height="1.6"/>
					<rect x="181.7" y="8.8" class="st95" width="1.6" height="1.6"/>
					<rect x="188.4" y="8.8" class="st95" width="1.6" height="1.6"/>
					<rect x="185" y="8.8" class="st95" width="1.6" height="1.6"/>
					<rect x="191.7" y="8.8" class="st95" width="1.6" height="1.6"/>
					<rect x="195.1" y="8.8" class="st95" width="1.6" height="1.6"/>
					<rect x="201.8" y="8.8" class="st95" width="1.6" height="1.6"/>
					<rect x="198.4" y="8.8" class="st95" width="1.6" height="1.6"/>
					<rect x="205.1" y="8.8" class="st95" width="1.6" height="1.6"/>
					<rect x="208.4" y="8.8" class="st95" width="1.6" height="1.6"/>
					<rect x="211.8" y="8.8" class="st95" width="1.6" height="1.6"/>
					<rect x="215.1" y="8.8" class="st95" width="1.6" height="1.6"/>
					<rect x="218.5" y="8.8" class="st95" width="1.6" height="1.6"/>
					<rect x="221.8" y="8.8" class="st95" width="1.6" height="1.6"/>
					<path class="st95" d="M225.1,9.8c0.3-0.3,0.5-0.6,0.8-0.9h-0.8V9.8z"/>
				</g>
			</g>
		</g>
		<path class="st96" d="M373.8,27.9v616.6c3.4-4.6,5.4-10.2,5.4-16.3v-584C379.2,38.2,377.2,32.5,373.8,27.9z"/>
		<path class="st96" d="M7.1,628.2c0,6.1,2,11.8,5.4,16.3V27.9c-3.4,4.6-5.4,10.2-5.4,16.3V628.2z"/>
	</g>
	<g>
		<g>
			<g>
				<path d="M205.5,39.2c0,6.9-5.5,12.4-12.4,12.4s-12.4-5.5-12.4-12.4c0-6.8,5.5-12.4,12.4-12.4C200,26.8,205.5,32.4,205.5,39.2z"
					/>
				<path d="M205.2,39.2c0,6.7-5.4,12.1-12.1,12.1c-6.7,0-12.1-5.4-12.1-12.1s5.4-12.1,12.1-12.1C199.8,27.2,205.2,32.6,205.2,39.2z
					"/>
				<path d="M204.9,39.3c0,6.5-5.3,11.8-11.7,11.8c-6.5,0-11.7-5.3-11.7-11.8s5.2-11.7,11.7-11.7C199.7,27.5,204.9,32.8,204.9,39.3z
					"/>
				<path d="M204.6,39.3c0,6.3-5.1,11.4-11.4,11.4c-6.3,0-11.4-5.1-11.4-11.4s5.1-11.4,11.4-11.4C199.5,27.9,204.6,33,204.6,39.3z"
					/>
				<path d="M204.3,39.3c0,6.1-5,11.1-11.1,11.1s-11.1-5-11.1-11.1s4.9-11.1,11.1-11.1C199.4,28.2,204.3,33.2,204.3,39.3z"/>
				<path d="M204,39.3c0,6-4.8,10.8-10.8,10.8s-10.8-4.8-10.8-10.8s4.8-10.8,10.8-10.8S204,33.4,204,39.3z"/>
				<path d="M203.7,39.3c0,5.8-4.7,10.5-10.5,10.5s-10.5-4.7-10.5-10.5s4.7-10.5,10.5-10.5C199,28.9,203.7,33.5,203.7,39.3z"/>
				<path d="M203.4,39.3c0,5.6-4.5,10.1-10.1,10.1s-10.1-4.5-10.1-10.1s4.5-10.1,10.1-10.1C198.9,29.2,203.4,33.7,203.4,39.3z"/>
				<path d="M203.1,39.3c0,5.4-4.4,9.8-9.8,9.8c-5.4,0-9.8-4.4-9.8-9.8s4.4-9.8,9.8-9.8C198.7,29.5,203.1,33.9,203.1,39.3z"/>
				<path d="M202.8,39.4c0,5.3-4.2,9.5-9.5,9.5s-9.5-4.3-9.5-9.5s4.2-9.5,9.5-9.5C198.5,29.9,202.8,34.1,202.8,39.4z"/>
				<path d="M202.5,39.4c0,5.1-4.1,9.2-9.2,9.2c-5.1,0-9.2-4.1-9.2-9.2s4.1-9.2,9.2-9.2S202.5,34.3,202.5,39.4z"/>
				<path d="M202.2,39.4c0,4.9-4,8.9-8.9,8.9s-8.8-4-8.8-8.9s4-8.8,8.8-8.8C198.2,30.5,202.2,34.5,202.2,39.4z"/>
				<path d="M201.9,39.4c0,4.7-3.8,8.5-8.5,8.5s-8.5-3.8-8.5-8.5s3.8-8.5,8.5-8.5C198.1,30.9,201.9,34.7,201.9,39.4z"/>
				<path d="M201.6,39.4c0,4.5-3.7,8.2-8.2,8.2s-8.2-3.7-8.2-8.2s3.7-8.2,8.2-8.2C197.9,31.2,201.6,34.9,201.6,39.4z"/>
				<path d="M201.3,39.4c0,4.4-3.5,7.9-7.9,7.9s-7.9-3.5-7.9-7.9s3.5-7.9,7.9-7.9C197.7,31.6,201.3,35.1,201.3,39.4z"/>
				<path d="M201,39.5c0,4.2-3.4,7.6-7.6,7.6c-4.2,0-7.6-3.4-7.6-7.6s3.4-7.6,7.6-7.6S201,35.3,201,39.5z"/>
				<path d="M200.7,39.5c0,4-3.2,7.3-7.2,7.3s-7.2-3.2-7.2-7.3c0-4,3.2-7.2,7.2-7.2C197.4,32.2,200.7,35.5,200.7,39.5z"/>
				<path d="M200.3,39.5c0,3.8-3.1,6.9-6.9,6.9c-3.8,0-6.9-3.1-6.9-6.9c0-3.8,3.1-6.9,6.9-6.9C197.3,32.6,200.3,35.7,200.3,39.5z"/>
				<path d="M200,39.5c0,3.7-3,6.6-6.6,6.6s-6.6-3-6.6-6.6s3-6.6,6.6-6.6C197.1,32.9,200,35.9,200,39.5z"/>
				<path d="M199.7,39.5c0,3.5-2.8,6.3-6.3,6.3s-6.3-2.8-6.3-6.3s2.8-6.3,6.3-6.3S199.7,36,199.7,39.5z"/>
				<path d="M199.4,39.5c0,3.3-2.7,6-6,6s-6-2.7-6-6s2.7-6,6-6C196.8,33.6,199.4,36.2,199.4,39.5z"/>
				<path d="M199.1,39.5c0,3.1-2.5,5.6-5.6,5.6s-5.6-2.5-5.6-5.6s2.5-5.6,5.6-5.6S199.1,36.4,199.1,39.5z"/>
			</g>
			<g>
				<path class="st97" d="M198.8,39.2c0,3.1-2.5,5.7-5.7,5.7s-5.7-2.5-5.7-5.7c0-3.1,2.5-5.7,5.7-5.7S198.8,36.1,198.8,39.2z"/>
				<path class="st97" d="M198.7,39.2c0,3.1-2.5,5.5-5.5,5.5c-3.1,0-5.5-2.5-5.5-5.5c0-3.1,2.5-5.5,5.5-5.5S198.7,36.2,198.7,39.2z"
					/>
				<path class="st97" d="M198.6,39.2c0,3-2.4,5.4-5.4,5.4s-5.4-2.4-5.4-5.4s2.4-5.4,5.4-5.4C196.2,33.9,198.6,36.3,198.6,39.2z"/>
				<path class="st97" d="M198.4,39.3c0,2.9-2.3,5.3-5.2,5.3s-5.2-2.4-5.2-5.3c0-2.9,2.3-5.2,5.2-5.2
					C196.1,34,198.4,36.4,198.4,39.3z"/>
				<path class="st97" d="M198.3,39.3c0,2.8-2.3,5.1-5.1,5.1s-5.1-2.3-5.1-5.1s2.3-5.1,5.1-5.1S198.3,36.4,198.3,39.3z"/>
				<path class="st97" d="M198.1,39.3c0,2.7-2.2,5-5,5c-2.7,0-4.9-2.2-4.9-5c0-2.7,2.2-5,4.9-5C195.9,34.3,198.1,36.5,198.1,39.3z"
					/>
				<path class="st97" d="M198,39.3c0,2.7-2.2,4.8-4.8,4.8c-2.7,0-4.8-2.2-4.8-4.8c0-2.7,2.1-4.8,4.8-4.8S198,36.6,198,39.3z"/>
				<path class="st97" d="M197.9,39.3c0,2.6-2.1,4.7-4.7,4.7c-2.6,0-4.7-2.1-4.7-4.7c0-2.6,2.1-4.7,4.7-4.7
					C195.8,34.6,197.9,36.7,197.9,39.3z"/>
				<path class="st97" d="M197.7,39.3c0,2.5-2,4.5-4.5,4.5s-4.5-2-4.5-4.5s2-4.5,4.5-4.5S197.7,36.8,197.7,39.3z"/>
				<path class="st97" d="M197.6,39.3c0,2.4-2,4.4-4.4,4.4s-4.4-2-4.4-4.4s1.9-4.4,4.4-4.4C195.6,34.9,197.6,36.9,197.6,39.3z"/>
				<path class="st97" d="M197.4,39.3c0,2.3-1.9,4.2-4.2,4.2s-4.2-1.9-4.2-4.2s1.9-4.2,4.2-4.2C195.6,35.1,197.4,37,197.4,39.3z"/>
				<path class="st97" d="M197.3,39.3c0,2.2-1.8,4.1-4.1,4.1c-2.2,0-4.1-1.8-4.1-4.1c0-2.2,1.8-4.1,4.1-4.1S197.3,37.1,197.3,39.3z"
					/>
				<path class="st97" d="M197.2,39.3c0,2.2-1.8,3.9-3.9,3.9c-2.2,0-3.9-1.8-3.9-3.9c0-2.2,1.7-3.9,3.9-3.9
					C195.4,35.4,197.2,37.2,197.2,39.3z"/>
				<path class="st97" d="M197,39.3c0,2.1-1.7,3.8-3.8,3.8s-3.8-1.7-3.8-3.8s1.7-3.8,3.8-3.8C195.3,35.6,197,37.2,197,39.3z"/>
				<path class="st97" d="M196.9,39.3c0,2-1.6,3.6-3.6,3.6s-3.6-1.6-3.6-3.6s1.6-3.6,3.6-3.6C195.3,35.7,196.9,37.3,196.9,39.3z"/>
				<path class="st97" d="M196.7,39.3c0,1.9-1.6,3.5-3.5,3.5s-3.5-1.6-3.5-3.5s1.6-3.5,3.5-3.5C195.2,35.9,196.7,37.4,196.7,39.3z"
					/>
				<path class="st97" d="M196.6,39.3c0,1.8-1.5,3.3-3.3,3.3s-3.3-1.5-3.3-3.3s1.5-3.3,3.3-3.3S196.6,37.5,196.6,39.3z"/>
				<path class="st97" d="M196.5,39.4c0,1.8-1.4,3.2-3.2,3.2s-3.2-1.4-3.2-3.2s1.4-3.2,3.2-3.2C195,36.2,196.5,37.6,196.5,39.4z"/>
				<path class="st97" d="M196.3,39.4c0,1.7-1.4,3-3,3c-1.7,0-3-1.4-3-3c0-1.7,1.4-3,3-3C195,36.3,196.3,37.7,196.3,39.4z"/>
				<path class="st97" d="M196.2,39.4c0,1.6-1.3,2.9-2.9,2.9c-1.6,0-2.9-1.3-2.9-2.9c0-1.6,1.3-2.9,2.9-2.9S196.2,37.8,196.2,39.4z"
					/>
				<path class="st97" d="M196,39.4c0,1.5-1.2,2.7-2.7,2.7s-2.7-1.2-2.7-2.7s1.2-2.7,2.7-2.7C194.8,36.6,196,37.9,196,39.4z"/>
				<path class="st97" d="M195.9,39.4c0,1.4-1.2,2.6-2.6,2.6c-1.4,0-2.6-1.2-2.6-2.6c0-1.4,1.2-2.6,2.6-2.6
					C194.7,36.8,195.9,37.9,195.9,39.4z"/>
			</g>
		</g>
	</g>
</g>
</svg>
