<svg id="Layer_1" data-name="Layer 1" xmlns="http://www.w3.org/2000/svg" viewBox="0 0 196.55 33.04"><defs><style>.cls-1{fill:#ffe200;}</style></defs><g id="noun_Ratings_stars_5_of_5_1580825" data-name="noun Ratings stars 5 of 5 1580825"><path id="Union_1-2" data-name="Union 1-2" class="cls-1" d="M174.69,27.47,164.57,33l1.86-12-8.26-8.46L169.53,11,174.69,0l5.17,10.94,11.35,1.66L183,21.07l1.86,12Zm-39.24,0L125.33,33l1.86-12-8.26-8.46L130.29,11,135.45,0l5.16,10.94L152,12.6l-8.26,8.46,1.86,12Zm-39.24,0L86.09,33l1.86-12L79.69,12.6,91.05,11,96.21,0l5.17,10.94,11.36,1.66-8.27,8.47,1.86,12ZM57,27.47,46.85,33l1.86-12L40.45,12.6l11.36-1.66L57,0l5.17,10.94L73.5,12.6l-8.27,8.47,1.86,12Zm-39.24,0L7.61,33l1.86-12L1.21,12.6,12.57,11,17.73,0,22.9,10.94,34.26,12.6,26,21.07l1.86,12Z"/></g></svg>