<svg id="Layer_1" data-name="Layer 1" xmlns="http://www.w3.org/2000/svg" viewBox="0 0 162 197"><defs><style>.cls-1{fill:none;}.cls-2{isolation:isolate;}.cls-3{fill:#fff;}.cls-4{fill:#61bfec;}.cls-5{fill:#004854;}.cls-6{fill:#323335;}</style></defs><rect class="cls-1" width="162" height="197"/><rect width="162" height="197"/><g id="Status_Bar-2" data-name="Status Bar-2"><g id="Rectangle-5"><rect width="162" height="24"/></g><g id="_10:09-4" data-name=" 10:09-4" class="cls-2"><g class="cls-2"><path class="cls-3" d="M114.88,20.5V11.62h-.08l-2.45,1.75V11.68l2.53-1.84h1.75V20.5Z"/><path class="cls-3" d="M119.66,15c0-3.21,1.46-5.33,4-5.33s3.91,2.1,3.91,5.33v.44c0,3.21-1.47,5.32-3.94,5.32s-3.92-2.09-3.92-5.32Zm1.76.42c0,2.42.84,3.86,2.17,3.86s2.17-1.45,2.17-3.86V15c0-2.4-.83-3.86-2.17-3.86s-2.17,1.45-2.17,3.86Z"/><path class="cls-3" d="M131,13a1.21,1.21,0,0,1,1.26,1.24A1.25,1.25,0,1,1,131,13Zm0,5.22a1.21,1.21,0,0,1,1.26,1.24A1.25,1.25,0,1,1,131,18.2Z"/><path class="cls-3" d="M134.57,15c0-3.21,1.47-5.33,4-5.33s3.92,2.1,3.92,5.33v.44c0,3.21-1.47,5.32-3.95,5.32s-3.92-2.09-3.92-5.32Zm1.77.42c0,2.42.83,3.86,2.17,3.86s2.16-1.45,2.16-3.86V15c0-2.4-.83-3.86-2.16-3.86s-2.17,1.45-2.17,3.86Z"/><path class="cls-3" d="M146.38,18.3a1.63,1.63,0,0,0,1.67,1c1.81,0,2.5-1.81,2.44-4h-.1a2.57,2.57,0,0,1-2.58,1.57,3.32,3.32,0,0,1-3.42-3.55,3.55,3.55,0,0,1,3.83-3.64c2,0,4,1.16,4,5.35,0,3.78-1.36,5.74-4.17,5.74-2.12,0-3.23-1.19-3.35-2.4ZM148.14,11a2,2,0,0,0-2,2.21,2.05,2.05,0,1,0,4.1,0A2,2,0,0,0,148.14,11Z"/></g></g><g id="Rest" class="cls-2"><g class="cls-2"><path class="cls-4" d="M36.81,13.18a3.2,3.2,0,0,1-3.42,3.34H30.91v4H29.48V9.84H33.4A3.19,3.19,0,0,1,36.81,13.18Zm-3.54-2.09H30.91v4.18h2.36a1.9,1.9,0,0,0,2.07-2.09A1.9,1.9,0,0,0,33.27,11.09Z"/><path class="cls-4" d="M38.27,18.11c0-1.44,1-2.41,2.89-2.41H43.3v-.82c0-1.05-.66-1.54-1.71-1.54s-1.48.41-1.64,1H38.58c.12-1.39,1.22-2.17,3.05-2.17s3.1.72,3.1,2.74V20.5H43.37V19.41H43.3A2.58,2.58,0,0,1,41,20.63,2.46,2.46,0,0,1,38.27,18.11Zm5-.42v-.92h-2c-1.11,0-1.56.56-1.56,1.29,0,1,.78,1.39,1.63,1.39A1.83,1.83,0,0,0,43.3,17.69Z"/><path class="cls-4" d="M54.13,20.5h-1.4V19.13h-.07a2.46,2.46,0,0,1-2.45,1.5c-1.65,0-2.81-.74-2.81-2.65v-5.7h1.41V17.6a1.6,1.6,0,0,0,1.79,1.8,2,2,0,0,0,2.12-1.94V12.28h1.41Z"/><path class="cls-4" d="M59.59,12.15c1.77,0,2.94.91,2.94,2.3H61.22c0-.58-.58-1.19-1.68-1.19s-1.65.44-1.65,1.24c0,1,1.11,1.1,2,1.27,1.54.27,2.81.7,2.81,2.3s-1.31,2.56-3.28,2.56-3.08-.82-3.08-2.29h1.38c.11.73.62,1.19,1.76,1.19,1.3,0,1.83-.58,1.83-1.3,0-.91-.91-1.08-2.05-1.31-1.53-.31-2.78-.66-2.78-2.28S58,12.15,59.59,12.15Z"/><path class="cls-4" d="M64.65,17V15.77a3.42,3.42,0,1,1,6.82,0v1H66.05v.41a2.06,2.06,0,0,0,2.11,2.27,1.7,1.7,0,0,0,1.75-1h1.45c-.13.87-1.12,2.16-3.2,2.16A3.29,3.29,0,0,1,64.65,17Zm5.41-1.29V15.6a2,2,0,1,0-4,0v.13Z"/></g></g></g><g id="_120" data-name=" 120" class="cls-2"><g class="cls-2"><path class="cls-3" d="M64.05,87V72.43h-.17l-4.09,2.9V72.06L64.05,69h3.53V87Z"/><path class="cls-3" d="M72.74,74.37V74.2c0-2.74,2-5.54,6.16-5.54,3.72,0,6.14,2.18,6.14,5,0,2.48-1.59,4-3.16,5.72l-4.09,4.51v.17h7.56V87H72.92V84.79l6.57-7.1c1-1,2-2.17,2-3.66a2.52,2.52,0,0,0-2.69-2.52,2.59,2.59,0,0,0-2.7,2.66v.2Z"/><path class="cls-3" d="M88.61,77.6c0-5.39,2.58-8.94,6.88-8.94s6.8,3.5,6.8,8.94v.8c0,5.4-2.59,8.94-6.87,8.94s-6.81-3.5-6.81-8.94Zm3.56.78c0,3.79,1.25,6.06,3.28,6.06s3.28-2.27,3.28-6.06v-.77c0-3.78-1.24-6-3.28-6s-3.28,2.25-3.28,6Z"/></g></g><g id="sec" class="cls-2"><g class="cls-2"><path class="cls-3" d="M73.75,99.8a1.88,1.88,0,0,0,2.07,1.36c1.21,0,2-.58,2-1.5,0-.69-.44-1.09-1.41-1.34l-1.5-.4a2.34,2.34,0,0,1-2-2.28c0-1.47,1.26-2.51,3-2.51s2.88,1,3,2.27H77.67a1.71,1.71,0,0,0-1.86-1.25c-1.09,0-1.82.59-1.82,1.44,0,.61.43,1,1.22,1.23l1.48.39c1.52.4,2.26,1.11,2.26,2.37,0,1.57-1.25,2.6-3.25,2.6-1.83,0-3-1-3.14-2.38Z"/><path class="cls-3" d="M80.51,99.17v-1a2.77,2.77,0,1,1,5.54,0V99h-4.4v.34a1.67,1.67,0,0,0,1.71,1.84,1.39,1.39,0,0,0,1.42-.79H86a2.42,2.42,0,0,1-2.6,1.76A2.68,2.68,0,0,1,80.51,99.17Zm4.39-1V98a1.64,1.64,0,1,0-3.25,0v.11Z"/><path class="cls-3" d="M89.11,102H88V92.88h1.15v5.44h0l2.69-3h1.33l-2.62,2.9L93.35,102H92l-2.26-3.07-.61.61Z"/></g></g><g id="Oval"><circle class="cls-1" cx="81.5" cy="81.5" r="38.5"/></g><g id="Group_2" data-name="Group 2"><g id="REST-2" class="cls-2"><g class="cls-2"><path class="cls-3" d="M50.18,142.82A4.64,4.64,0,0,1,52,144.66a5.5,5.5,0,0,1,.66,2.72,5.1,5.1,0,0,1-.68,2.67,4.74,4.74,0,0,1-1.92,1.79,6.15,6.15,0,0,1-2.84.63H43.85a.11.11,0,0,0-.12.12v6.12a.29.29,0,0,1-.09.21.28.28,0,0,1-.2.08H40.63a.28.28,0,0,1-.2-.08.29.29,0,0,1-.09-.21V142.46a.27.27,0,0,1,.09-.2.24.24,0,0,1,.2-.08H47.4A5.76,5.76,0,0,1,50.18,142.82Zm-1.51,6.3a2.17,2.17,0,0,0,.67-1.66,2.25,2.25,0,0,0-.67-1.71,2.46,2.46,0,0,0-1.77-.65h-3a.11.11,0,0,0-.12.12v4.42a.11.11,0,0,0,.12.12h3A2.45,2.45,0,0,0,48.67,149.12Z"/><path class="cls-3" d="M66.82,158.76l-.72-2.35c0-.07-.08-.1-.12-.1H60.07s-.09,0-.12.1l-.69,2.35a.31.31,0,0,1-.32.24h-3a.29.29,0,0,1-.22-.08.25.25,0,0,1,0-.26l5.18-16.22a.3.3,0,0,1,.31-.24h3.77a.3.3,0,0,1,.31.24l5.19,16.22a.5.5,0,0,1,0,.12c0,.15-.09.22-.26.22H67.13A.29.29,0,0,1,66.82,158.76Zm-5.91-5.06h4.23q.14,0,.09-.15l-2.16-7.13c0-.06,0-.09-.07-.08a.11.11,0,0,0-.07.08l-2.11,7.13Q60.79,153.7,60.91,153.7Z"/><path class="cls-3" d="M78.06,158.47a5.16,5.16,0,0,1-2.18-2,5.74,5.74,0,0,1-.78-3V142.49a.28.28,0,0,1,.08-.21.3.3,0,0,1,.2-.08h2.81a.27.27,0,0,1,.29.29v11a2.83,2.83,0,1,0,5.66,0v-11a.29.29,0,0,1,.09-.21.28.28,0,0,1,.2-.08h2.81a.28.28,0,0,1,.2.08.29.29,0,0,1,.09.21v10.94a5.74,5.74,0,0,1-.78,3,5.24,5.24,0,0,1-2.19,2,7.7,7.7,0,0,1-6.5,0Z"/><path class="cls-3" d="M95.71,158.58a5,5,0,0,1-2.22-1.75,4.59,4.59,0,0,1-.78-2.65v-.53a.29.29,0,0,1,.09-.21.28.28,0,0,1,.2-.08h2.74a.3.3,0,0,1,.2.08.28.28,0,0,1,.08.21V154a2,2,0,0,0,.89,1.62,3.93,3.93,0,0,0,2.4.66,2.85,2.85,0,0,0,1.9-.54,1.72,1.72,0,0,0,.62-1.33,1.38,1.38,0,0,0-.38-1,3.54,3.54,0,0,0-1-.69c-.44-.2-1.14-.48-2.1-.83a19.85,19.85,0,0,1-2.72-1.13,5.46,5.46,0,0,1-1.87-1.57,3.9,3.9,0,0,1-.76-2.46,4.31,4.31,0,0,1,.75-2.52,4.74,4.74,0,0,1,2.06-1.66,8.45,8.45,0,0,1,6.3.08,5.22,5.22,0,0,1,2.23,1.81,4.58,4.58,0,0,1,.81,2.7v.36a.31.31,0,0,1-.29.29h-2.76a.29.29,0,0,1-.21-.09.28.28,0,0,1-.08-.2v-.19a2.18,2.18,0,0,0-.83-1.72,3.39,3.39,0,0,0-2.27-.71,2.85,2.85,0,0,0-1.76.48,1.58,1.58,0,0,0-.64,1.32,1.44,1.44,0,0,0,.38,1,3.09,3.09,0,0,0,1.1.73c.49.22,1.24.51,2.27.88a26.46,26.46,0,0,1,2.67,1.1,5.37,5.37,0,0,1,1.76,1.43,3.74,3.74,0,0,1,.78,2.46,4.31,4.31,0,0,1-1.66,3.56,7,7,0,0,1-4.49,1.31A8.5,8.5,0,0,1,95.71,158.58Z"/><path class="cls-3" d="M122.17,145a.26.26,0,0,1-.2.08H114.1c-.09,0-.13,0-.13.12v3.72c0,.08,0,.12.13.12h5.16a.27.27,0,0,1,.2.09.28.28,0,0,1,.08.2v2.33a.28.28,0,0,1-.08.2.27.27,0,0,1-.2.09H114.1c-.09,0-.13,0-.13.12V156c0,.08,0,.12.13.12H122a.26.26,0,0,1,.2.08.27.27,0,0,1,.09.2v2.33a.29.29,0,0,1-.09.21.3.3,0,0,1-.2.08H110.88a.28.28,0,0,1-.2-.08.29.29,0,0,1-.09-.21V142.49a.29.29,0,0,1,.09-.21.28.28,0,0,1,.2-.08H122a.3.3,0,0,1,.2.08.29.29,0,0,1,.09.21v2.33A.27.27,0,0,1,122.17,145Z"/></g></g></g><g id="Combined_Shape_Copy_7-4" data-name="Combined Shape Copy 7-4"><path class="cls-4" d="M16,23a8,8,0,1,1,8-8A8,8,0,0,1,16,23Zm.44-11.78h0l-3.22,3.21h0a.8.8,0,0,0,0,1.11h0l3.2,3.2A.78.78,0,0,0,17,19a.8.8,0,0,0,.8-.8.78.78,0,0,0-.24-.56L14.93,15l2.59-2.6a.74.74,0,0,0,.28-.59A.8.8,0,0,0,17,11h0a.79.79,0,0,0-.56.23Z"/></g><g id="Oval-2" data-name="Oval"><path class="cls-5" d="M81,126.52A41.5,41.5,0,1,1,122.5,85,41.54,41.54,0,0,1,81,126.52Zm0-77A35.5,35.5,0,1,0,116.5,85,35.55,35.55,0,0,0,81,49.52Z"/></g><g id="Oval-3" data-name="Oval"><circle class="cls-1" cx="81" cy="85.02" r="38.5"/></g><g id="_1" data-name=" 1"><path class="cls-4" d="M116.17,103.7a3.11,3.11,0,0,1-1.22-.26,3,3,0,0,1-1.52-4A36,36,0,0,0,116.5,85a35.5,35.5,0,1,0-71,.07A36.41,36.41,0,0,0,45.83,90a3,3,0,1,1-5.94.82,41.92,41.92,0,0,1-.39-5.71,41.5,41.5,0,1,1,83-.07,41.92,41.92,0,0,1-3.59,16.92A3,3,0,0,1,116.17,103.7Z"/></g><g id="Dot_-_Page_3" data-name="Dot - Page 3"><circle id="Page_Dot-7" data-name="Page Dot-7" class="cls-3" cx="69.32" cy="184.05" r="2.5"/></g><g id="Dot_-_Page_2" data-name="Dot - Page 2" class="cls-2"><circle id="Page_Dot-8" data-name="Page Dot-8" class="cls-6" cx="61.32" cy="184.05" r="2.5"/></g><g id="Dot_-_Page_2-2" data-name="Dot - Page 2" class="cls-2"><circle id="Page_Dot-8-2" data-name="Page Dot-8" class="cls-6" cx="77.14" cy="184.05" r="2.5"/></g><g id="Dot_-_Page_2-3" data-name="Dot - Page 2" class="cls-2"><circle id="Page_Dot-8-3" data-name="Page Dot-8" class="cls-6" cx="85.3" cy="184.05" r="2.5"/></g><g id="Dot_-_Page_2-4" data-name="Dot - Page 2" class="cls-2"><circle id="Page_Dot-8-4" data-name="Page Dot-8" class="cls-6" cx="92.97" cy="184.05" r="2.5"/></g><g id="Dot_-_Page_2-5" data-name="Dot - Page 2" class="cls-2"><circle id="Page_Dot-8-5" data-name="Page Dot-8" class="cls-6" cx="101" cy="184.05" r="2.5"/></g><g id="Dot_-_Page_2-6" data-name="Dot - Page 2" class="cls-2"><circle id="Page_Dot-8-6" data-name="Page Dot-8" class="cls-6" cx="109.04" cy="184.05" r="2.5"/></g><g id="Dot_-_Page_2-7" data-name="Dot - Page 2" class="cls-2"><circle id="Page_Dot-8-7" data-name="Page Dot-8" class="cls-6" cx="117.07" cy="184.05" r="2.5"/></g><g id="Dot_-_Page_1" data-name="Dot - Page 1" class="cls-2"><circle id="Page_Dot:_Selection" data-name="Page Dot: Selection" class="cls-6" cx="53.32" cy="184.05" r="2.5"/></g></svg>