<svg id="Layer_1" data-name="Layer 1" xmlns="http://www.w3.org/2000/svg" viewBox="0 0 162 197"><defs><style>.cls-1{fill:none;}.cls-2{isolation:isolate;}.cls-3{fill:#fff;}.cls-4{fill:#f05050;}.cls-5{fill:#b3b4b4;}.cls-6{fill:#323335;}</style></defs><rect class="cls-1" width="162" height="197"/><g id="_3.2_Watch_1" data-name=" 3.2 Watch 1"><rect width="162" height="197"/><g id="Status_Bar_-_Child_View-2" data-name="Status Bar - Child View-2"><g id="Rectangle-4"><rect width="162" height="24"/></g><g id="_10:09-3" data-name=" 10:09-3" class="cls-2"><g class="cls-2"><path class="cls-3" d="M114.88,20.5V11.62h-.08l-2.45,1.75V11.68l2.53-1.84h1.75V20.5Z"/><path class="cls-3" d="M119.66,15c0-3.21,1.46-5.33,4-5.33s3.91,2.1,3.91,5.33v.44c0,3.21-1.47,5.32-3.94,5.32s-3.92-2.09-3.92-5.32Zm1.76.42c0,2.42.84,3.86,2.17,3.86s2.17-1.45,2.17-3.86V15c0-2.4-.83-3.86-2.17-3.86s-2.17,1.45-2.17,3.86Z"/><path class="cls-3" d="M131,13a1.21,1.21,0,0,1,1.26,1.24A1.25,1.25,0,1,1,131,13Zm0,5.22a1.21,1.21,0,0,1,1.26,1.24A1.25,1.25,0,1,1,131,18.2Z"/><path class="cls-3" d="M134.57,15c0-3.21,1.47-5.33,4-5.33s3.92,2.1,3.92,5.33v.44c0,3.21-1.47,5.32-3.95,5.32s-3.92-2.09-3.92-5.32Zm1.77.42c0,2.42.83,3.86,2.17,3.86s2.16-1.45,2.16-3.86V15c0-2.4-.83-3.86-2.16-3.86s-2.17,1.45-2.17,3.86Z"/><path class="cls-3" d="M146.38,18.3a1.64,1.64,0,0,0,1.67,1c1.81,0,2.5-1.81,2.44-4h-.1a2.57,2.57,0,0,1-2.58,1.57,3.32,3.32,0,0,1-3.42-3.55,3.55,3.55,0,0,1,3.83-3.64c2,0,4,1.16,4,5.35,0,3.78-1.36,5.74-4.16,5.74-2.13,0-3.24-1.19-3.36-2.4ZM148.14,11a2,2,0,0,0-2,2.21,2.05,2.05,0,1,0,4.1,0A2,2,0,0,0,148.14,11Z"/></g></g><g id="Set_1" data-name="Set 1" class="cls-2"><g class="cls-2"><path class="cls-3" d="M32.15,17.8a2.33,2.33,0,0,0,2.55,1.67c1.49,0,2.4-.72,2.4-1.85,0-.85-.54-1.35-1.73-1.65l-1.85-.49A2.88,2.88,0,0,1,31,12.67c0-1.8,1.56-3.08,3.73-3.08s3.54,1.16,3.7,2.79H37a2.1,2.1,0,0,0-2.28-1.54c-1.35,0-2.25.72-2.25,1.77,0,.75.53,1.27,1.5,1.51l1.82.48c1.87.49,2.78,1.37,2.78,2.92,0,1.93-1.53,3.2-4,3.2-2.25,0-3.71-1.2-3.85-2.92Z"/><path class="cls-3" d="M40.47,18.11c0-1.44,1-2.41,2.89-2.41h2.15v-.82c0-1.05-.67-1.54-1.72-1.54s-1.48.41-1.64,1H40.78c.13-1.39,1.22-2.17,3.06-2.17,1.69,0,3.09.72,3.09,2.74V20.5H45.57V19.41h-.06a2.59,2.59,0,0,1-2.35,1.22A2.47,2.47,0,0,1,40.47,18.11Zm5-.42v-.92h-2c-1.11,0-1.57.56-1.57,1.29,0,1,.79,1.39,1.64,1.39A1.83,1.83,0,0,0,45.51,17.69Z"/><path class="cls-3" d="M50.11,10.24h1.4V12.3h1.86v1.15H51.51v4.74c0,1,.33,1.22,1.33,1.22.2,0,.51,0,.64,0V20.5a7.47,7.47,0,0,1-1,.07c-2,0-2.38-.75-2.38-2.37V13.45H48.84V12.3h1.27Z"/><path class="cls-3" d="M55.23,19.56l4.34-6v-.08H55.21V12.28h6.12v1l-4.32,6v.07h4.36V20.5H55.23Z"/><path class="cls-3" d="M69.67,20.5V11.37H69.6l-2.47,1.79V11.72l2.54-1.88h1.42V20.5Z"/></g></g></g><g id="Background-4"><rect class="cls-4" x="4" y="61" width="154" height="40" rx="6.06"/></g><g id="_2.50_kg" data-name=" 2.50 kg" class="cls-2"><g class="cls-2"><path class="cls-3" d="M54.29,79.41v-.08a3.22,3.22,0,0,1,3.51-3.21c2.11,0,3.49,1.27,3.49,3,0,1.4-.88,2.3-1.84,3.38l-2.64,3v.1h4.67V87H54.35V85.89l4-4.39a3.5,3.5,0,0,0,1.21-2.27,1.63,1.63,0,0,0-1.75-1.65A1.7,1.7,0,0,0,56,79.32v.09Z"/><path class="cls-3" d="M65.07,84.7a1.21,1.21,0,0,1,1.25,1.24,1.25,1.25,0,0,1-2.49,0A1.2,1.2,0,0,1,65.07,84.7Z"/><path class="cls-3" d="M70.39,84.39a1.9,1.9,0,0,0,2,1.38,2.11,2.11,0,0,0,2.09-2.25,2,2,0,0,0-2.11-2.09,2.14,2.14,0,0,0-1.91,1.08H69l.46-6.17H75.7V77.8H70.87l-.25,3.13h.08A2.62,2.62,0,0,1,72.85,80a3.28,3.28,0,0,1,3.41,3.45,3.61,3.61,0,0,1-3.89,3.74c-2.1,0-3.54-1.2-3.63-2.82Z"/><path class="cls-3" d="M78.27,81.45c0-3.21,1.46-5.33,4-5.33s3.91,2.1,3.91,5.33v.44c0,3.21-1.47,5.32-3.94,5.32s-3.92-2.09-3.92-5.32Zm1.76.42c0,2.42.84,3.86,2.17,3.86s2.17-1.45,2.17-3.86v-.41c0-2.4-.83-3.86-2.17-3.86S80,79.05,80,81.46Z"/><path class="cls-3" d="M94,87H92.29V75.77H94v6.55h.08l3-3.58h2L96,82.32,99.32,87h-2l-2.58-3.66-.68.71Z"/><path class="cls-3" d="M105.9,86.73V85.55h-.1a2.41,2.41,0,0,1-2.31,1.29c-1.82,0-3.19-1.29-3.19-3.55V82.2c0-2.25,1.36-3.57,3.19-3.57A2.48,2.48,0,0,1,105.86,80H106V78.74h1.68v8.05c0,2.31-1.7,3.23-3.77,3.23-2.23,0-3.29-1.1-3.38-2.33h1.72c.1.55.74,1,1.71,1A1.75,1.75,0,0,0,105.9,86.73Zm-3.84-4.32v.72a2.07,2.07,0,0,0,2,2.35,1.93,1.93,0,0,0,1.85-2.15V82.24A2,2,0,0,0,104,80.05C102.82,80.05,102.06,81,102.06,82.41Z"/></g></g><g id="Background-5"><rect class="cls-4" x="4" y="129" width="154" height="40" rx="6.06"/></g><g id="_8_-_12_x" data-name=" 8 - 12 x" class="cls-2"><g class="cls-2"><path class="cls-3" d="M55.4,152.09a2.69,2.69,0,0,1,2.2-2.68v-.08A2.43,2.43,0,0,1,55.82,147c0-1.63,1.46-2.83,3.55-2.83s3.54,1.2,3.54,2.83a2.43,2.43,0,0,1-1.78,2.38v.08a2.7,2.7,0,0,1,2.19,2.66c0,1.86-1.62,3.14-4,3.14S55.4,153.94,55.4,152.09Zm6.18-.11a2.24,2.24,0,1,0-2.21,1.89A2,2,0,0,0,61.58,152Zm-.38-4.86a1.85,1.85,0,0,0-3.67,0,1.84,1.84,0,0,0,3.67,0Z"/><path class="cls-3" d="M68.9,151.4v-1.55h4.92v1.55Z"/><path class="cls-3" d="M82.14,155v-8.88h-.09l-2.44,1.75v-1.69l2.53-1.84h1.75V155Z"/><path class="cls-3" d="M87.09,147.41v-.08a3.22,3.22,0,0,1,3.51-3.21c2.11,0,3.49,1.27,3.49,3,0,1.4-.88,2.3-1.85,3.38l-2.63,3v.1h4.66V155H87.15v-1.11l4-4.39a3.49,3.49,0,0,0,1.2-2.27,1.62,1.62,0,0,0-1.75-1.65,1.7,1.7,0,0,0-1.78,1.74v.09Z"/><path class="cls-3" d="M103.27,152.07h-.07L101.43,155H99.54l2.67-4.09-2.72-4.17h2l1.73,2.92h.07l1.78-2.92H107l-2.75,4.06L107,155h-2Z"/></g></g><g id="Weight" class="cls-2"><g class="cls-2"><path class="cls-5" d="M15.83,47.25a2.41,2.41,0,0,0-2.51-1.86c-1.77,0-2.83,1.31-2.83,3.52v1.46c0,2.25,1,3.58,2.88,3.58a2.26,2.26,0,0,0,2.57-2.3v-1h-2.7V49.42h4.1v2.2c0,2.06-1.42,3.6-4,3.6-2.75,0-4.32-1.8-4.32-4.85V48.91c0-2.93,1.63-4.79,4.3-4.79a3.69,3.69,0,0,1,3.92,3.13Z"/><path class="cls-5" d="M19.54,51.52V50.27a3.42,3.42,0,1,1,6.82,0v1H21v.41a2.05,2.05,0,0,0,2.1,2.27,1.7,1.7,0,0,0,1.75-1h1.45c-.13.87-1.12,2.16-3.2,2.16A3.29,3.29,0,0,1,19.54,51.52ZM25,50.23V50.1a2,2,0,1,0-4,0v.13Z"/><path class="cls-5" d="M36.57,55H35.16l-1.85-6.29h0L31.47,55H30.05l-2.3-8.22h1.57l1.45,6.46h.06l1.79-6.46H34l1.85,6.46h.06l1.48-6.46h1.42Z"/><path class="cls-5" d="M41.48,43.27a1,1,0,1,1,0,1.95,1,1,0,1,1,0-1.95Zm-.69,3.51H42.2V55H40.79Z"/><path class="cls-5" d="M44.78,50.2a3.26,3.26,0,0,1,3.43-3.55c2.06,0,3.12,1.26,3.16,2.51H50a1.56,1.56,0,0,0-1.75-1.28c-1.34,0-2,.93-2,2.37v1.31c0,1.43.77,2.34,2,2.34s1.67-.56,1.82-1.18h1.37c-.05,1.21-1,2.41-3.21,2.41a3.26,3.26,0,0,1-3.43-3.58Z"/><path class="cls-5" d="M53.68,43.77h1.41v4.5h.07a2.46,2.46,0,0,1,2.55-1.62,2.54,2.54,0,0,1,2.76,2.76V55H59.05V49.85a1.73,1.73,0,0,0-1.82-2c-1.4,0-2.14,1.11-2.14,2.54V55H53.68Z"/><path class="cls-5" d="M63.65,44.74h1.4V46.8h1.86V48H65.05v4.74c0,1,.32,1.22,1.32,1.22.21,0,.52,0,.65,0V55a7.47,7.47,0,0,1-1,.07c-2,0-2.38-.75-2.38-2.37V48H62.38V46.8h1.27Z"/></g></g><g id="Repetitions" class="cls-2"><g class="cls-2"><path class="cls-5" d="M11.24,122,8.31,111.34H10l1.94,8.47H12l2.09-8.47h1.41l2.09,8.47h.08l1.94-8.47h1.64L18.31,122H17l-2.22-8.34h-.06L12.52,122Z"/><path class="cls-5" d="M24.13,110.27a1,1,0,1,1,0,2,1,1,0,1,1,0-2Zm-.69,3.51h1.41V122H23.44Z"/><path class="cls-5" d="M27.43,118.52v-1.25a3.42,3.42,0,1,1,6.82,0v1H28.84v.41a2.05,2.05,0,0,0,2.1,2.27,1.7,1.7,0,0,0,1.75-1h1.45c-.12.87-1.12,2.16-3.19,2.16A3.29,3.29,0,0,1,27.43,118.52Zm5.41-1.29v-.13a2,2,0,1,0-4,0v.13Z"/><path class="cls-5" d="M41.76,115h.07v-4.23h1.41V122H41.88v-1.31h-.07a2.46,2.46,0,0,1-2.47,1.43c-1.91,0-3.15-1.34-3.15-3.43v-1.6a3.11,3.11,0,0,1,3.18-3.43A2.4,2.4,0,0,1,41.76,115Zm-4.15,2.38v1c0,1.6.79,2.53,2.09,2.53a2.12,2.12,0,0,0,2.13-2.39v-1.43a2.12,2.12,0,0,0-2.17-2.22C38.38,114.87,37.61,115.8,37.61,117.38Z"/><path class="cls-5" d="M45.65,118.52v-1.25a3.42,3.42,0,1,1,6.82,0v1H47.05v.41a2.06,2.06,0,0,0,2.11,2.27,1.7,1.7,0,0,0,1.75-1h1.45c-.13.87-1.12,2.16-3.2,2.16A3.29,3.29,0,0,1,45.65,118.52Zm5.41-1.29v-.13a2,2,0,1,0-4,0v.13Z"/><path class="cls-5" d="M54.93,113.78h1.41v1.27h.07a2.23,2.23,0,0,1,2.25-1.39,2.89,2.89,0,0,1,.52,0V115a3.85,3.85,0,0,0-.66,0,1.93,1.93,0,0,0-2.17,2V122H54.93Z"/><path class="cls-5" d="M61.09,110.77h1.42v4.5h.07a2.43,2.43,0,0,1,2.54-1.62,2.54,2.54,0,0,1,2.76,2.76V122H66.47v-5.15a1.73,1.73,0,0,0-1.82-2c-1.41,0-2.14,1.11-2.14,2.54V122H61.09Z"/><path class="cls-5" d="M77.32,117.27v1.22a3.55,3.55,0,1,1-7.1,0v-1.21a3.41,3.41,0,0,1,3.55-3.63A3.37,3.37,0,0,1,77.32,117.27Zm-5.69.13v1c0,1.52.78,2.55,2.15,2.55s2.12-1,2.12-2.55v-1c0-1.5-.8-2.55-2.12-2.55S71.63,115.9,71.63,117.4Z"/><path class="cls-5" d="M79.74,110.77h1.42V122H79.74Z"/><path class="cls-5" d="M90.66,122h-1.4v-1.37h-.08a2.45,2.45,0,0,1-2.45,1.5c-1.64,0-2.81-.74-2.81-2.65v-5.7h1.42v5.32a1.6,1.6,0,0,0,1.78,1.8A2,2,0,0,0,89.24,119v-5.18h1.42Z"/><path class="cls-5" d="M93.44,113.78h1.4v1.49h.07a2.33,2.33,0,0,1,2.5-1.62,2.53,2.53,0,0,1,2.79,2.74V122H98.78v-5.16c0-1.29-.66-2-1.78-2-1.45,0-2.15,1.12-2.15,2.54V122H93.44Z"/><path class="cls-5" d="M108.06,121.76v-1.2H108a2.44,2.44,0,0,1-2.3,1.29,3.18,3.18,0,0,1-3.24-3.45v-1.28a3.18,3.18,0,0,1,3.23-3.46,2.52,2.52,0,0,1,2.38,1.36h.07v-1.24h1.36v8c0,2.27-1.52,3.26-3.62,3.26s-3.13-1.06-3.24-2.25h1.43c.11.58.78,1.06,1.86,1.06A1.89,1.89,0,0,0,108.06,121.76Zm-4.2-4.38v.78a2.25,2.25,0,0,0,2.18,2.5,2.06,2.06,0,0,0,2-2.25v-1.25a2.11,2.11,0,0,0-2-2.29C104.69,114.87,103.86,115.88,103.86,117.38Z"/><path class="cls-5" d="M111.86,118.52v-1.25a3.42,3.42,0,1,1,6.82,0v1h-5.41v.41a2.05,2.05,0,0,0,2.1,2.27,1.7,1.7,0,0,0,1.75-1h1.45c-.12.87-1.12,2.16-3.2,2.16A3.29,3.29,0,0,1,111.86,118.52Zm5.41-1.29v-.13a2,2,0,1,0-4,0v.13Z"/><path class="cls-5" d="M121,113.78h1.39v1.49h.08a2.33,2.33,0,0,1,2.49-1.62,2.52,2.52,0,0,1,2.79,2.74V122h-1.41v-5.16c0-1.29-.66-2-1.78-2-1.45,0-2.15,1.12-2.15,2.54V122H121Z"/></g></g><g id="Combined_Shape_Copy_7-3" data-name="Combined Shape Copy 7-3"><path class="cls-3" d="M16,23a8,8,0,1,1,8-8A8,8,0,0,1,16,23Zm.44-11.78h0l-3.22,3.21h0a.8.8,0,0,0,0,1.11h0l3.2,3.2A.78.78,0,0,0,17,19a.8.8,0,0,0,.8-.8.78.78,0,0,0-.24-.56L14.93,15l2.59-2.6a.74.74,0,0,0,.28-.59A.8.8,0,0,0,17,11h0a.79.79,0,0,0-.56.23Z"/></g></g><g id="Dot_-_Page_3" data-name="Dot - Page 3"><g id="Page_Dot-7" data-name="Page Dot-7"><circle class="cls-3" cx="65.13" cy="183.5" r="2.5"/></g></g><g id="Dot_-_Page_2" data-name="Dot - Page 2" class="cls-2"><g id="Page_Dot-8" data-name="Page Dot-8"><circle class="cls-6" cx="57.13" cy="183.5" r="2.5"/></g></g><g id="Dot_-_Page_2-2" data-name="Dot - Page 2" class="cls-2"><g id="Page_Dot-8-2" data-name="Page Dot-8"><circle class="cls-6" cx="72.95" cy="183.5" r="2.5"/></g></g><g id="Dot_-_Page_2-3" data-name="Dot - Page 2" class="cls-2"><g id="Page_Dot-8-3" data-name="Page Dot-8"><circle class="cls-6" cx="81.11" cy="183.5" r="2.5"/></g></g><g id="Dot_-_Page_2-4" data-name="Dot - Page 2" class="cls-2"><g id="Page_Dot-8-4" data-name="Page Dot-8"><circle class="cls-6" cx="88.78" cy="183.5" r="2.5"/></g></g><g id="Dot_-_Page_2-5" data-name="Dot - Page 2" class="cls-2"><g id="Page_Dot-8-5" data-name="Page Dot-8"><circle class="cls-6" cx="96.81" cy="183.5" r="2.5"/></g></g><g id="Dot_-_Page_2-6" data-name="Dot - Page 2" class="cls-2"><g id="Page_Dot-8-6" data-name="Page Dot-8"><circle class="cls-6" cx="104.84" cy="183.5" r="2.5"/></g></g><g id="Dot_-_Page_2-7" data-name="Dot - Page 2" class="cls-2"><g id="Page_Dot-8-7" data-name="Page Dot-8"><circle class="cls-6" cx="112.87" cy="183.5" r="2.5"/></g></g><g id="Dot_-_Page_1" data-name="Dot - Page 1" class="cls-2"><g id="Page_Dot:_Selection" data-name="Page Dot: Selection"><circle class="cls-6" cx="49.13" cy="183.5" r="2.5"/></g></g></svg>