<svg id="Layer_1" data-name="Layer 1" xmlns="http://www.w3.org/2000/svg" viewBox="0 0 162 197"><defs><style>.cls-1{fill:none;}.cls-2,.cls-7{opacity:0.2;}.cls-2,.cls-4,.cls-7{isolation:isolate;}.cls-3{fill:#fff;}.cls-5{fill:#f05050;}.cls-6{fill:#666766;}.cls-7{fill:#606161;}</style></defs><rect class="cls-1" width="162" height="197"/><rect width="162" height="197"/><g id="Background" class="cls-2"><rect class="cls-3" x="4" y="28" width="154" height="78" rx="6"/></g><g id="Bench_press" data-name="Bench press" class="cls-4"><g class="cls-4"><path class="cls-5" d="M13.41,37.34h4.25c1.86,0,3.06,1,3.06,2.62A2.27,2.27,0,0,1,19,42.3v.08A2.49,2.49,0,0,1,21.29,45c0,1.89-1.49,3-3.71,3H13.41Zm1.76,4.5h1.5c1.59,0,2.29-.53,2.29-1.58a1.47,1.47,0,0,0-1.68-1.52H15.17Zm0,4.75h1.7c1.86,0,2.61-.53,2.61-1.65s-.73-1.76-2.05-1.76H15.17Z"/><path class="cls-5" d="M22.77,45.6c0-1.46,1-2.44,2.92-2.44h2.09v-.78c0-.94-.61-1.39-1.56-1.39s-1.36.39-1.49.94H23.08c.1-1.38,1.14-2.31,3.2-2.31,1.76,0,3.22.73,3.22,2.79V48H27.85V46.93h-.07a2.51,2.51,0,0,1-2.31,1.19A2.47,2.47,0,0,1,22.77,45.6Zm5-.39v-.89H26c-1,0-1.45.51-1.45,1.2,0,.85.72,1.26,1.5,1.26A1.66,1.66,0,0,0,27.78,45.21Z"/><path class="cls-5" d="M31.86,39.74h1.7v1.49h.09a2.34,2.34,0,0,1,2.48-1.61,2.54,2.54,0,0,1,2.78,2.8V48H37.18V42.93c0-1.26-.66-1.84-1.64-1.84-1.28,0-1.95,1-1.95,2.32V48H31.86Z"/><path class="cls-5" d="M43,48H41.3V36.77H43v6.55h.08l3-3.58h2L45,43.32,48.33,48h-2L43.7,44.34l-.68.71Z"/><path class="cls-5" d="M54.6,41h.08V36.77h1.74V48H54.73V46.68h-.09a2.42,2.42,0,0,1-2.44,1.43c-1.9,0-3.13-1.35-3.13-3.53V43.16c0-2.18,1.25-3.53,3.15-3.53A2.39,2.39,0,0,1,54.6,41Zm-3.77,2.43v.91c0,1.51.73,2.37,1.92,2.37s1.93-.85,1.93-2.26V43.18a2,2,0,0,0-2-2.13C51.55,41.05,50.83,41.91,50.83,43.41Z"/><path class="cls-5" d="M59,39.74h1.73V41h.09a2.13,2.13,0,0,1,2.16-1.41,3.17,3.17,0,0,1,.59.05V41.2a3.53,3.53,0,0,0-.74-.06,1.85,1.85,0,0,0-2.07,2V48H59Z"/><path class="cls-5" d="M72.08,48h-1.7V46.62h-.1a2.41,2.41,0,0,1-2.43,1.5,2.47,2.47,0,0,1-2.8-2.71V39.74h1.73V45a1.5,1.5,0,0,0,1.65,1.71,1.85,1.85,0,0,0,1.92-1.83V39.74h1.73ZM66.16,37.58a.94.94,0,0,1,1.87,0,.94.94,0,0,1-1.87,0Zm3,0a.93.93,0,0,1,1.86,0,.93.93,0,0,1-1.86,0Z"/><path class="cls-5" d="M74.09,43.25a3.37,3.37,0,0,1,3.56-3.65c2.11,0,3.25,1.3,3.29,2.7H79.3a1.46,1.46,0,0,0-1.61-1.25c-1.21,0-1.86.87-1.86,2.24v1.16c0,1.39.7,2.25,1.87,2.25s1.53-.52,1.65-1.18H81c0,1.4-1.12,2.62-3.34,2.62a3.36,3.36,0,0,1-3.56-3.69Z"/><path class="cls-5" d="M84.62,48H82.9V36.77h1.72v6.55h.08l3-3.58h2L86.6,43.32,89.93,48H87.88L85.3,44.34l-.68.71Z"/><path class="cls-5" d="M90.66,44.43V43.31a3.54,3.54,0,1,1,7.08,0v1H92.38v.41a1.88,1.88,0,0,0,1.92,2.06c.91,0,1.53-.43,1.65-1h1.69c-.1,1-1.11,2.34-3.33,2.34A3.4,3.4,0,0,1,90.66,44.43ZM96,43.15V43a1.84,1.84,0,1,0-3.66,0v.11Z"/><path class="cls-5" d="M99.72,39.74h1.7v1.49h.09A2.34,2.34,0,0,1,104,39.62a2.54,2.54,0,0,1,2.78,2.8V48H105V42.93c0-1.26-.66-1.84-1.64-1.84-1.28,0-2,1-2,2.32V48H99.72Z"/></g></g><g id="Barbell" class="cls-4"><g class="cls-4"><path class="cls-3" d="M18.19,65H13.36V56.37h.46v8.21h4.37Z"/><path class="cls-3" d="M19.14,63.16c0-1.08.75-1.82,2.21-1.82h2v-1c0-1.13-.73-1.63-1.79-1.63s-1.66.64-1.74,1.11h-.44c.06-.78.79-1.53,2.21-1.53s2.21.66,2.21,2V65H23.4V63.9h0a2.17,2.17,0,0,1-2.1,1.21A1.92,1.92,0,0,1,19.14,63.16Zm4.26-.37v-1h-2c-1.21,0-1.75.59-1.75,1.41a1.54,1.54,0,0,0,1.71,1.55A2,2,0,0,0,23.4,62.79Z"/><path class="cls-3" d="M25.81,58.44h.45v1.32h0a2.09,2.09,0,0,1,2.15-1.43,2.13,2.13,0,0,1,2.25,2.32V65h-.45V60.73a1.8,1.8,0,0,0-1.84-2,2.14,2.14,0,0,0-2.14,2.31V65h-.45Z"/><path class="cls-3" d="M37,65V63.36h0a2.17,2.17,0,0,1-2.15,1.42A2.5,2.5,0,0,1,32.31,62v-1a2.5,2.5,0,0,1,2.52-2.75A2.15,2.15,0,0,1,37,59.74h0v-1.3h.43V65a2.24,2.24,0,0,1-2.55,2.3c-1.62,0-2.35-.92-2.38-1.71H33c.05.59.67,1.3,1.93,1.3A1.84,1.84,0,0,0,37,65Zm-4.23-3.8V62a2.15,2.15,0,0,0,2.09,2.41A2.19,2.19,0,0,0,37,62v-.86a2.2,2.2,0,0,0-2.15-2.39C33.77,58.75,32.77,59.52,32.77,61.19Z"/><path class="cls-3" d="M39.59,55.89H40v3.87h0a2.3,2.3,0,0,1,4.43.89V65H44V60.73a1.81,1.81,0,0,0-1.86-2A2.14,2.14,0,0,0,40,61.06V65h-.45Z"/><path class="cls-3" d="M46.06,63.16c0-1.08.75-1.82,2.22-1.82h2v-1c0-1.13-.72-1.63-1.78-1.63s-1.66.64-1.74,1.11h-.44c0-.78.78-1.53,2.21-1.53s2.2.66,2.2,2V65h-.44V63.9h0a2.15,2.15,0,0,1-2.1,1.21A1.92,1.92,0,0,1,46.06,63.16Zm4.26-.37v-1h-2c-1.21,0-1.75.59-1.75,1.41a1.54,1.54,0,0,0,1.71,1.55A2,2,0,0,0,50.32,62.79Z"/><path class="cls-3" d="M52.74,58.44h.45v1.32h0a2.09,2.09,0,0,1,2.15-1.43,2.12,2.12,0,0,1,2.24,2.32V65h-.45V60.73a1.79,1.79,0,0,0-1.84-2,2.14,2.14,0,0,0-2.13,2.31V65h-.45Z"/><path class="cls-3" d="M59.87,56.86h.45v1.58h1.85v.4H60.32v4.71c0,.82.31,1.09,1.23,1.09l.71,0V65c-.17,0-.54,0-.74,0-1.26,0-1.65-.41-1.65-1.53V58.84H58.58v-.4h1.29Z"/><path class="cls-3" d="M63.31,62.14V61.4c0-2,1-3.07,2.53-3.07s2.54,1.05,2.54,3.07v.34H63.76v.38c0,1.66.84,2.58,2.16,2.58a1.74,1.74,0,0,0,1.91-1.31h.45a2.16,2.16,0,0,1-2.36,1.72C64.29,65.11,63.31,64,63.31,62.14Zm4.62-.78v0c0-1.64-.83-2.57-2.09-2.57s-2.08.93-2.08,2.57v0Z"/><path class="cls-3" d="M70.19,55.89h.45V65h-.45Z"/></g></g><g id="Flat_bench" data-name="Flat bench" class="cls-4"><g class="cls-4"><path class="cls-3" d="M18.89,81V76.68H13.82V81h-.46V72.37h.46v3.89h5.07V72.37h.46V81Z"/><path class="cls-3" d="M21.11,79.16c0-1.08.75-1.82,2.22-1.82h2v-1c0-1.13-.72-1.63-1.78-1.63s-1.67.64-1.74,1.11H21.4c.06-.78.79-1.53,2.21-1.53s2.21.66,2.21,2V81h-.44V79.9h0a2.15,2.15,0,0,1-2.1,1.21A1.92,1.92,0,0,1,21.11,79.16Zm4.26-.37V77.74h-2c-1.2,0-1.74.59-1.74,1.41A1.54,1.54,0,0,0,23.3,80.7,2,2,0,0,0,25.37,78.79Z"/><path class="cls-3" d="M27.79,74.44h.45v1.32h0a2.1,2.1,0,0,1,2.15-1.43,2.12,2.12,0,0,1,2.25,2.32V81h-.45V76.73a1.79,1.79,0,0,0-1.84-2,2.13,2.13,0,0,0-2.13,2.31V81h-.45Z"/><path class="cls-3" d="M34.92,72.86h.45v1.58h1.85v.4H35.37v4.71c0,.82.31,1.09,1.23,1.09l.71,0V81c-.18,0-.54,0-.74,0-1.26,0-1.65-.41-1.65-1.53V74.84H33.63v-.4h1.29Z"/><path class="cls-3" d="M38.36,78.14V77.4c0-2,1-3.07,2.53-3.07s2.54,1,2.54,3.07v.34H38.81v.38c0,1.66.83,2.58,2.15,2.58a1.75,1.75,0,0,0,1.92-1.31h.45A2.16,2.16,0,0,1,41,81.11C39.34,81.11,38.36,80,38.36,78.14ZM43,77.36v0c0-1.64-.83-2.57-2.09-2.57s-2.08.93-2.08,2.57v0Z"/><path class="cls-3" d="M45.24,71.89h.45V81h-.45Z"/><path class="cls-3" d="M48.3,79.7h0V81h-.43V71.89h.44v3.88h0a2.27,2.27,0,0,1,2.18-1.44A2.49,2.49,0,0,1,53,77.08v1.28a2.49,2.49,0,0,1-2.5,2.75A2.21,2.21,0,0,1,48.3,79.7Zm4.2-1.46V77.18c0-1.46-.82-2.43-2.06-2.43a2.19,2.19,0,0,0-2.17,2.38v1.18a2.2,2.2,0,0,0,2.17,2.39C51.69,80.7,52.5,79.72,52.5,78.24Z"/><path class="cls-3" d="M54.25,79.16c0-1.08.75-1.82,2.22-1.82h2v-1c0-1.13-.72-1.63-1.78-1.63s-1.66.64-1.74,1.11h-.44c.05-.78.78-1.53,2.2-1.53S59,75,59,76.3V81h-.44V79.9h0a2.15,2.15,0,0,1-2.1,1.21A1.92,1.92,0,0,1,54.25,79.16Zm4.26-.37V77.74h-2c-1.21,0-1.75.59-1.75,1.41a1.54,1.54,0,0,0,1.71,1.55A2,2,0,0,0,58.51,78.79Z"/><path class="cls-3" d="M60.93,74.44h.45v1.32h0a2.28,2.28,0,0,1,4.4.89V81h-.45V76.73a1.79,1.79,0,0,0-1.84-2,2.14,2.14,0,0,0-2.13,2.31V81h-.45Z"/><path class="cls-3" d="M68.22,81h-.45V71.89h.45v5.85h0l3.54-3.3h.58L69.5,77.13l3,3.87H72l-2.81-3.57-.94.86Z"/></g></g><g id="Weights" class="cls-4"><g class="cls-4"><path class="cls-3" d="M18.74,90.57a2.37,2.37,0,0,0-2.52-2c-1.78,0-2.75,1.31-2.75,3.31v1.47c0,2,.87,3.41,2.82,3.41a2.26,2.26,0,0,0,2.55-2.27V93.28H16.22v-.42h3.05v1.65c0,1.73-1.27,2.69-3,2.69C14,97.2,13,95.55,13,93.37V91.9c0-2.24,1.13-3.73,3.21-3.73a2.73,2.73,0,0,1,3,2.4Z"/><path class="cls-3" d="M20.86,94.14V93.4c0-2,1-3.07,2.54-3.07s2.54,1,2.54,3.07v.34H21.32v.38c0,1.66.83,2.58,2.15,2.58a1.73,1.73,0,0,0,1.91-1.31h.46a2.16,2.16,0,0,1-2.37,1.72C21.85,97.11,20.86,96,20.86,94.14Zm4.63-.78v0c0-1.64-.84-2.57-2.09-2.57s-2.08.93-2.08,2.57v0Z"/><path class="cls-3" d="M33.31,97h-.46L31,91.08h0L29,97h-.46l-1.82-6.56h.5l1.54,5.91h0l1.88-5.91h.46l1.88,5.91h0l1.54-5.91h.48Z"/><path class="cls-3" d="M36.64,88.08a.43.43,0,0,1,.44.43.44.44,0,0,1-.44.44.44.44,0,0,1-.43-.44A.43.43,0,0,1,36.64,88.08Zm-.22,2.36h.45V97h-.45Z"/><path class="cls-3" d="M38.71,93.17a2.53,2.53,0,0,1,2.57-2.84,2.24,2.24,0,0,1,2.43,2h-.44a1.87,1.87,0,0,0-2-1.57c-1.25,0-2.12.89-2.12,2.5v.93c0,1.65.84,2.52,2.17,2.52a1.78,1.78,0,0,0,2-1.47h.44a2.16,2.16,0,0,1-2.42,1.88c-1.55,0-2.59-1-2.59-2.88Z"/><path class="cls-3" d="M45.36,87.89h.45v3.87h0a2.29,2.29,0,0,1,4.42.89V97h-.45V92.73a1.81,1.81,0,0,0-1.86-2,2.15,2.15,0,0,0-2.14,2.31V97h-.45Z"/><path class="cls-3" d="M52.56,88.86H53v1.58h1.84v.4H53v4.71c0,.82.31,1.09,1.23,1.09l.71,0V97c-.18,0-.55,0-.74,0-1.27,0-1.65-.41-1.65-1.53V90.84H51.27v-.4h1.29Z"/><path class="cls-3" d="M56,94.14V93.4c0-2,1-3.07,2.54-3.07s2.53,1,2.53,3.07v.34H56.44v.38c0,1.66.84,2.58,2.16,2.58a1.73,1.73,0,0,0,1.91-1.31H61a2.16,2.16,0,0,1-2.37,1.72C57,97.11,56,96,56,94.14Zm4.62-.78v0c0-1.64-.83-2.57-2.08-2.57s-2.09.93-2.09,2.57v0Z"/></g></g><g id="Icon"><path class="cls-3" d="M139.73,68.65l5-5.41a.73.73,0,0,1,1-.06l.06.06a.89.89,0,0,1,0,1.18L139.73,71l-3.51-3.82a.89.89,0,0,1,0-1.18.73.73,0,0,1,1-.06l.06.06Z"/></g><g id="Background-2" class="cls-2"><rect class="cls-3" x="4" y="108" width="154" height="78" rx="6"/></g><g id="Flys" class="cls-4"><g class="cls-4"><path class="cls-5" d="M13.41,128V117.34H20v1.5h-4.8v3.27h4.39v1.48H15.18V128Z"/><path class="cls-5" d="M21.78,116.77h1.73V128H21.78Z"/><path class="cls-5" d="M30.11,127.89l-.18.47c-.69,1.83-1.6,2.54-3.21,2.54a5.23,5.23,0,0,1-.94-.08V129.5a5.2,5.2,0,0,0,.63.05,1.41,1.41,0,0,0,1.6-1.22l.07-.27-2.95-8.32h1.92l2,6.68h.07l2-6.68h1.84C32.57,120.89,30.12,127.87,30.11,127.89Z"/><path class="cls-5" d="M37.38,119.6c1.81,0,3,.91,3,2.37H38.87c0-.54-.54-1.1-1.54-1.1s-1.49.41-1.49,1.12c0,.92,1.18,1,2.09,1.2,1.54.26,2.73.76,2.73,2.32s-1.32,2.63-3.42,2.63S34,127.26,34,125.78h1.69c.1.67.57,1.09,1.62,1.09s1.64-.52,1.64-1.16c0-.86-.95-1-2.06-1.21-1.5-.31-2.73-.73-2.73-2.35C34.18,120.35,35.7,119.6,37.38,119.6Z"/></g></g><g id="Dumbbell" class="cls-4"><g class="cls-4"><path class="cls-3" d="M15.22,140.23,19,145h-.59l-3.53-4.47-1.07,1.14V145h-.46v-8.63h.46v4.68h0l4.39-4.68h.58Z"/><path class="cls-3" d="M24.74,145h-.45v-1.31h0a2.17,2.17,0,0,1-2.17,1.42,2,2,0,0,1-2.22-2.2v-4.47h.45v4.4a1.71,1.71,0,0,0,1.81,1.86,2.19,2.19,0,0,0,2.16-2.33v-3.93h.45Z"/><path class="cls-3" d="M26.76,138.44h.44v1.31h0a1.87,1.87,0,0,1,1.95-1.41,3.68,3.68,0,0,1,.56,0v.44a2.62,2.62,0,0,0-.6-.06A1.94,1.94,0,0,0,27.2,141v4h-.44Z"/><path class="cls-3" d="M30.56,144.65l4-5.78v0h-4v-.4h4.56v.38l-4,5.75v0h4v.4H30.56Z"/><path class="cls-3" d="M36.85,135.89h.45v3.87h0a2.3,2.3,0,0,1,4.43.89V145h-.46v-4.27a1.81,1.81,0,0,0-1.86-2,2.14,2.14,0,0,0-2.13,2.31V145h-.45Z"/><path class="cls-3" d="M43.32,143.16c0-1.08.75-1.82,2.22-1.82h2v-1c0-1.13-.72-1.63-1.78-1.63s-1.66.64-1.74,1.11h-.45c.06-.78.79-1.53,2.21-1.53s2.21.66,2.21,2V145h-.44v-1.1h0a2.15,2.15,0,0,1-2.1,1.21A1.92,1.92,0,0,1,43.32,143.16Zm4.26-.37v-1h-2c-1.2,0-1.74.59-1.74,1.41a1.54,1.54,0,0,0,1.71,1.55A2,2,0,0,0,47.58,142.79Z"/><path class="cls-3" d="M50,138.44h.45v1.32h0a2.28,2.28,0,0,1,4.4.89V145h-.45v-4.27a1.79,1.79,0,0,0-1.84-2,2.14,2.14,0,0,0-2.13,2.31V145H50Z"/><path class="cls-3" d="M57.13,136.86h.45v1.58h1.85v.4H57.58v4.71c0,.82.31,1.09,1.23,1.09l.71,0v.4c-.18,0-.54.05-.74.05-1.26,0-1.65-.41-1.65-1.53v-4.69H55.84v-.4h1.29Z"/><path class="cls-3" d="M60.57,142.14v-.74c0-2,1-3.07,2.53-3.07s2.54,1,2.54,3.07v.34H61v.38c0,1.66.83,2.58,2.16,2.58a1.74,1.74,0,0,0,1.91-1.31h.45a2.16,2.16,0,0,1-2.36,1.72C61.55,145.11,60.57,144,60.57,142.14Zm4.62-.78v0c0-1.64-.83-2.57-2.09-2.57s-2.08.93-2.08,2.57v0Z"/><path class="cls-3" d="M67.45,135.89h.45V145h-.45Z"/></g></g><g id="Incline_bench" data-name="Incline bench" class="cls-4"><g class="cls-4"><path class="cls-3" d="M13.36,161v-8.63h4.83v.42H13.82v3.65h4v.42h-4V161Z"/><path class="cls-3" d="M19.54,151.89H20V161h-.45Z"/><path class="cls-3" d="M21.7,159.16c0-1.08.75-1.82,2.21-1.82H26v-1c0-1.13-.73-1.63-1.79-1.63s-1.66.64-1.73,1.11H22c.06-.78.79-1.53,2.21-1.53s2.21.66,2.21,2V161H26v-1.1h0a2.16,2.16,0,0,1-2.1,1.21A1.92,1.92,0,0,1,21.7,159.16Zm4.26-.37v-1h-2c-1.21,0-1.74.59-1.74,1.41a1.54,1.54,0,0,0,1.7,1.55A2,2,0,0,0,26,158.79Z"/><path class="cls-3" d="M28.08,157.17a2.53,2.53,0,0,1,2.57-2.84,2.24,2.24,0,0,1,2.43,2h-.44a1.87,1.87,0,0,0-2-1.57c-1.25,0-2.12.89-2.12,2.5v.93c0,1.65.84,2.52,2.17,2.52a1.77,1.77,0,0,0,1.95-1.47h.44a2.16,2.16,0,0,1-2.42,1.88c-1.55,0-2.59-1-2.59-2.88Z"/><path class="cls-3" d="M34.73,151.89h.45v3.87h0a2.29,2.29,0,0,1,4.42.89V161h-.45v-4.27a1.81,1.81,0,0,0-1.86-2,2.15,2.15,0,0,0-2.14,2.31V161h-.45Z"/><path class="cls-3" d="M42.1,159.7h0V161h-.44v-9.11h.45v3.88h0a2.26,2.26,0,0,1,2.18-1.44,2.49,2.49,0,0,1,2.48,2.75v1.28a2.49,2.49,0,0,1-2.5,2.75A2.23,2.23,0,0,1,42.1,159.7Zm4.21-1.46v-1.06c0-1.46-.82-2.43-2.07-2.43a2.19,2.19,0,0,0-2.16,2.38v1.18a2.2,2.2,0,0,0,2.17,2.39C45.49,160.7,46.31,159.72,46.31,158.24Z"/><path class="cls-3" d="M48.06,159.16c0-1.08.75-1.82,2.22-1.82h2v-1c0-1.13-.72-1.63-1.78-1.63s-1.67.64-1.74,1.11h-.45c.06-.78.79-1.53,2.21-1.53s2.21.66,2.21,2V161h-.44v-1.1h0a2.15,2.15,0,0,1-2.1,1.21A1.92,1.92,0,0,1,48.06,159.16Zm4.26-.37v-1h-2c-1.2,0-1.74.59-1.74,1.41a1.54,1.54,0,0,0,1.7,1.55A2,2,0,0,0,52.32,158.79Z"/><path class="cls-3" d="M54.74,154.44h.45v1.32h0a2.1,2.1,0,0,1,2.15-1.43,2.12,2.12,0,0,1,2.25,2.32V161h-.45v-4.27a1.79,1.79,0,0,0-1.84-2,2.13,2.13,0,0,0-2.13,2.31V161h-.45Z"/><path class="cls-3" d="M62,161h-.45v-9.11H62v5.85h0l3.54-3.3h.58l-2.86,2.69,3,3.87h-.57L63,157.43l-.94.86Z"/></g></g><g id="Information_Icon" data-name="Information Icon"><path class="cls-6" d="M141,161.37a9.38,9.38,0,1,1,9.37-9.37A9.38,9.38,0,0,1,141,161.37Zm0-18a8.63,8.63,0,1,0,8.62,8.63A8.64,8.64,0,0,0,141,143.37Z"/></g><g id="Information_Icon_Copy" data-name="Information Icon Copy"><path class="cls-6" d="M141,76.37A9.38,9.38,0,1,1,150.37,67,9.38,9.38,0,0,1,141,76.37Zm0-18A8.63,8.63,0,1,0,149.62,67,8.64,8.64,0,0,0,141,58.37Z"/></g><rect id="Background-3" class="cls-7" x="4" y="188" width="154" height="78" rx="6"/><g id="Status_Bar" data-name="Status Bar"><g id="Rectangle"><rect width="162" height="24"/></g><g id="_10:09" data-name=" 10:09" class="cls-4"><g class="cls-4"><path class="cls-3" d="M114.88,20.5V11.62h-.08l-2.45,1.75V11.68l2.53-1.84h1.75V20.5Z"/><path class="cls-3" d="M119.66,15c0-3.21,1.46-5.33,4-5.33s3.91,2.1,3.91,5.33v.44c0,3.21-1.47,5.32-3.94,5.32s-3.92-2.09-3.92-5.32Zm1.76.42c0,2.42.84,3.86,2.17,3.86s2.17-1.45,2.17-3.86V15c0-2.4-.83-3.86-2.17-3.86s-2.17,1.45-2.17,3.86Z"/><path class="cls-3" d="M131,13a1.21,1.21,0,0,1,1.26,1.24A1.25,1.25,0,1,1,131,13Zm0,5.22a1.21,1.21,0,0,1,1.26,1.24A1.25,1.25,0,1,1,131,18.2Z"/><path class="cls-3" d="M134.57,15c0-3.21,1.47-5.33,4-5.33s3.92,2.1,3.92,5.33v.44c0,3.21-1.47,5.32-3.95,5.32s-3.92-2.09-3.92-5.32Zm1.77.42c0,2.42.83,3.86,2.17,3.86s2.16-1.45,2.16-3.86V15c0-2.4-.83-3.86-2.16-3.86s-2.17,1.45-2.17,3.86Z"/><path class="cls-3" d="M146.38,18.3a1.64,1.64,0,0,0,1.67,1c1.81,0,2.5-1.81,2.44-4h-.1a2.57,2.57,0,0,1-2.58,1.57,3.32,3.32,0,0,1-3.42-3.55,3.55,3.55,0,0,1,3.83-3.64c2,0,4,1.16,4,5.35,0,3.78-1.36,5.74-4.16,5.74-2.13,0-3.24-1.19-3.36-2.4ZM148.14,11a2,2,0,0,0-2,2.21,2.05,2.05,0,1,0,4.1,0A2,2,0,0,0,148.14,11Z"/></g></g><g id="Workout" class="cls-4"><g class="cls-4"><path class="cls-3" d="M33.59,21V11.61H30.37V10.34h7.86v1.27H35V21Z"/><path class="cls-3" d="M39.53,12.78H41v1.27H41a2.21,2.21,0,0,1,2.25-1.39,2.78,2.78,0,0,1,.51,0V14a3.85,3.85,0,0,0-.66,0,1.93,1.93,0,0,0-2.17,2V21H39.53Z"/><path class="cls-3" d="M45.19,18.61c0-1.44,1-2.41,2.89-2.41h2.15v-.82c0-1.05-.67-1.54-1.72-1.54s-1.48.41-1.64,1H45.5c.12-1.39,1.22-2.17,3-2.17s3.1.72,3.1,2.74V21H50.29V19.91h-.06a2.59,2.59,0,0,1-2.36,1.22A2.46,2.46,0,0,1,45.19,18.61Zm5-.42v-.92h-2c-1.11,0-1.57.56-1.57,1.29,0,1,.78,1.39,1.64,1.39A1.83,1.83,0,0,0,50.23,18.19Z"/><path class="cls-3" d="M55.27,9.27a1,1,0,1,1,0,2,1,1,0,1,1,0-2Zm-.69,3.51H56V21H54.58Z"/><path class="cls-3" d="M59,12.78h1.4v1.49h.08a2.31,2.31,0,0,1,2.49-1.62,2.53,2.53,0,0,1,2.79,2.74V21H64.31V15.84c0-1.29-.66-2-1.78-2-1.44,0-2.15,1.12-2.15,2.54V21H59Z"/><path class="cls-3" d="M69.36,9.27a1,1,0,1,1,0,2,1,1,0,1,1,0-2Zm-.7,3.51h1.42V21H68.66Z"/><path class="cls-3" d="M73.05,12.78h1.4v1.49h.08A2.31,2.31,0,0,1,77,12.65a2.52,2.52,0,0,1,2.79,2.74V21H78.4V15.84c0-1.29-.67-2-1.78-2-1.45,0-2.15,1.12-2.15,2.54V21H73.05Z"/><path class="cls-3" d="M87.68,20.76v-1.2H87.6a2.44,2.44,0,0,1-2.3,1.29,3.19,3.19,0,0,1-3.25-3.45V16.12a3.19,3.19,0,0,1,3.24-3.46A2.53,2.53,0,0,1,87.67,14h.07V12.78h1.35v8C89.09,23,87.58,24,85.48,24S82.34,23,82.23,21.76h1.44c.11.58.78,1.06,1.85,1.06A1.9,1.9,0,0,0,87.68,20.76Zm-4.2-4.38v.78a2.24,2.24,0,0,0,2.18,2.5,2.06,2.06,0,0,0,2-2.25V16.16a2.11,2.11,0,0,0-2-2.29C84.3,13.87,83.48,14.88,83.48,16.38Z"/></g></g></g><g id="Combined_Shape_Copy_7" data-name="Combined Shape Copy 7"><path class="cls-3" d="M16,23a8,8,0,1,1,8-8A8,8,0,0,1,16,23Zm.44-11.78h0l-3.22,3.21h0a.8.8,0,0,0,0,1.11h0l3.2,3.2A.78.78,0,0,0,17,19a.8.8,0,0,0,.8-.8.78.78,0,0,0-.24-.56L14.93,15l2.59-2.6a.74.74,0,0,0,.28-.59A.8.8,0,0,0,17,11h0a.79.79,0,0,0-.56.23Z"/></g></svg>