<svg id="Layer_1" data-name="Layer 1" xmlns="http://www.w3.org/2000/svg" xmlns:xlink="http://www.w3.org/1999/xlink" viewBox="0 0 162 197"><defs><style>.cls-1,.cls-8{fill:none;}.cls-2{clip-path:url(#clip-path);}.cls-3,.cls-9{opacity:0.2;}.cls-10,.cls-3,.cls-5,.cls-9{isolation:isolate;}.cls-4,.cls-9{fill:#fff;}.cls-10,.cls-6{fill:#f05050;}.cls-7{fill:#666766;}.cls-8{stroke:#666766;stroke-miterlimit:10;stroke-width:0.75px;}.cls-10{font-size:16px;font-family:SFCompactText-Regular, SF Compact Text;}.cls-11{letter-spacing:-0.02em;}</style><clipPath id="clip-path"><rect class="cls-1" x="410.74" y="63.53" width="162" height="197"/></clipPath></defs><rect class="cls-1" width="162" height="197"/><rect width="162" height="197"/><g id="Background" class="cls-3"><rect class="cls-4" x="4" y="28" width="154" height="78" rx="6"/></g><g id="Bench_press" data-name="Bench press" class="cls-5"><g class="cls-5"><path class="cls-6" d="M13.41,37.34h4.25c1.86,0,3.06,1,3.06,2.62A2.27,2.27,0,0,1,19,42.3v.08A2.49,2.49,0,0,1,21.29,45c0,1.89-1.49,3-3.71,3H13.41Zm1.76,4.5h1.5c1.59,0,2.29-.53,2.29-1.58a1.47,1.47,0,0,0-1.68-1.52H15.17Zm0,4.75h1.7c1.86,0,2.61-.53,2.61-1.65s-.73-1.76-2.05-1.76H15.17Z"/><path class="cls-6" d="M22.82,44.43V43.31a3.54,3.54,0,1,1,7.08,0v1H24.54v.41a1.88,1.88,0,0,0,1.92,2.06c.91,0,1.53-.43,1.65-1h1.7c-.1,1-1.11,2.34-3.34,2.34A3.4,3.4,0,0,1,22.82,44.43Zm5.39-1.28V43a1.85,1.85,0,1,0-3.67,0v.11Z"/><path class="cls-6" d="M31.88,39.74h1.7v1.49h.09a2.34,2.34,0,0,1,2.48-1.61,2.54,2.54,0,0,1,2.79,2.8V48H37.2V42.93c0-1.26-.66-1.84-1.63-1.84-1.28,0-2,1-2,2.32V48H31.88Z"/><path class="cls-6" d="M40.91,43.25a3.37,3.37,0,0,1,3.56-3.65c2.11,0,3.25,1.3,3.29,2.7H46.12a1.46,1.46,0,0,0-1.61-1.25c-1.21,0-1.86.87-1.86,2.24v1.16c0,1.39.69,2.25,1.87,2.25s1.53-.52,1.64-1.18h1.65c-.05,1.4-1.12,2.62-3.34,2.62a3.36,3.36,0,0,1-3.56-3.69Z"/><path class="cls-6" d="M49.72,36.77h1.73v4.46h.08A2.44,2.44,0,0,1,54,39.62a2.56,2.56,0,0,1,2.76,2.81V48H55.07V42.94c0-1.26-.69-1.85-1.68-1.85-1.24,0-1.94,1-1.94,2.32V48H49.72Z"/><path class="cls-6" d="M64.36,46.76h-.08v4H62.54v-11h1.69v1.31h.08a2.46,2.46,0,0,1,2.45-1.42c1.92,0,3.11,1.37,3.11,3.6v1.28c0,2.24-1.2,3.61-3.15,3.61A2.41,2.41,0,0,1,64.36,46.76Zm3.75-2.48v-.8c0-1.54-.69-2.43-1.91-2.43s-1.92.86-1.92,2.26v1.26a1.94,1.94,0,0,0,2,2.13C67.42,46.7,68.11,45.81,68.11,44.28Z"/><path class="cls-6" d="M72,39.74h1.73V41h.09A2.13,2.13,0,0,1,76,39.62a3.13,3.13,0,0,1,.58.05V41.2a3.53,3.53,0,0,0-.74-.06,1.85,1.85,0,0,0-2.07,2V48H72Z"/><path class="cls-6" d="M77.7,44.43V43.31a3.54,3.54,0,1,1,7.08,0v1H79.42v.41a1.88,1.88,0,0,0,1.92,2.06c.91,0,1.53-.43,1.65-1h1.7c-.1,1-1.11,2.34-3.34,2.34A3.4,3.4,0,0,1,77.7,44.43Zm5.39-1.28V43a1.85,1.85,0,1,0-3.67,0v.11Z"/><path class="cls-6" d="M89.6,39.6c1.82,0,3.06.91,3.06,2.37H91.1c0-.54-.54-1.1-1.54-1.1s-1.49.41-1.49,1.12c0,.92,1.17,1,2.09,1.2,1.54.26,2.73.76,2.73,2.32s-1.32,2.63-3.42,2.63-3.22-.88-3.22-2.36h1.69c.09.67.57,1.09,1.62,1.09s1.64-.52,1.64-1.16c0-.86-1-1-2.06-1.21-1.5-.31-2.73-.73-2.73-2.35C86.41,40.35,87.92,39.6,89.6,39.6Z"/><path class="cls-6" d="M97.68,39.6c1.81,0,3,.91,3,2.37H99.17c0-.54-.54-1.1-1.54-1.1s-1.48.41-1.48,1.12c0,.92,1.17,1,2.08,1.2,1.54.26,2.73.76,2.73,2.32s-1.32,2.63-3.42,2.63-3.21-.88-3.21-2.36H96c.1.67.57,1.09,1.62,1.09s1.64-.52,1.64-1.16c0-.86-.94-1-2-1.21-1.51-.31-2.74-.73-2.74-2.35C94.48,40.35,96,39.6,97.68,39.6Z"/></g></g><g id="Barbell" class="cls-5"><g class="cls-5"><path class="cls-4" d="M13.36,56.37h2.75c1.57,0,2.52.79,2.52,2.11a2,2,0,0,1-1.5,2v0a2,2,0,0,1,2,2.14c0,1.4-1,2.33-2.82,2.33H13.36Zm.46,4h2.24c1.13,0,2.1-.58,2.1-1.82s-.79-1.75-2.12-1.75H13.82Zm0,4.22H16.2c1.59,0,2.44-.72,2.44-1.9s-1.05-1.9-2.33-1.9H13.82Z"/><path class="cls-4" d="M20.32,63.16c0-1.08.75-1.82,2.22-1.82h2v-1c0-1.13-.72-1.63-1.78-1.63s-1.66.64-1.74,1.11h-.44c.05-.78.78-1.53,2.21-1.53s2.2.66,2.2,2V65h-.44V63.9h0a2.18,2.18,0,0,1-2.11,1.21A1.93,1.93,0,0,1,20.32,63.16Zm4.26-.37v-1h-2c-1.21,0-1.75.59-1.75,1.41a1.54,1.54,0,0,0,1.71,1.55A2,2,0,0,0,24.58,62.79Z"/><path class="cls-4" d="M27,58.44h.44v1.31h0a1.87,1.87,0,0,1,2-1.41,3.68,3.68,0,0,1,.56,0v.44a2.62,2.62,0,0,0-.6-.06A1.94,1.94,0,0,0,27.46,61v4H27Z"/><path class="cls-4" d="M31.62,63.71h0V65h-.44V55.89h.44v3.88h0a2.27,2.27,0,0,1,2.18-1.44,2.49,2.49,0,0,1,2.48,2.75v1.28a2.49,2.49,0,0,1-2.5,2.75A2.21,2.21,0,0,1,31.62,63.71Zm4.21-1.46V61.18a2.14,2.14,0,0,0-2.07-2.43,2.19,2.19,0,0,0-2.17,2.38v1.18a2.2,2.2,0,0,0,2.17,2.39C35,64.7,35.83,63.72,35.83,62.25Z"/><path class="cls-4" d="M37.7,62.14V61.4c0-2,1-3.07,2.53-3.07s2.54,1.05,2.54,3.07v.34H38.15v.38c0,1.66.83,2.58,2.15,2.58a1.75,1.75,0,0,0,1.92-1.31h.45a2.16,2.16,0,0,1-2.37,1.72C38.68,65.11,37.7,64,37.7,62.14Zm4.62-.78v0c0-1.64-.83-2.57-2.09-2.57s-2.08.93-2.08,2.57v0Z"/><path class="cls-4" d="M44.58,55.89H45V65h-.45Z"/><path class="cls-4" d="M47.26,55.89h.45V65h-.45Z"/></g></g><g id="Flat_bench" data-name="Flat bench" class="cls-5"><g class="cls-5"><path class="cls-4" d="M13.36,81V72.37h4.83v.42H13.82v3.65h4v.42h-4V81Z"/><path class="cls-4" d="M19.54,71.89H20V81h-.45Z"/><path class="cls-4" d="M21.7,79.16c0-1.08.75-1.82,2.21-1.82H26v-1c0-1.13-.72-1.63-1.79-1.63s-1.66.64-1.73,1.11H22c.06-.78.79-1.53,2.21-1.53s2.21.66,2.21,2V81H26V79.9h0a2.16,2.16,0,0,1-2.1,1.21A1.92,1.92,0,0,1,21.7,79.16ZM26,78.79V77.74h-2c-1.21,0-1.74.59-1.74,1.41a1.54,1.54,0,0,0,1.7,1.55A2,2,0,0,0,26,78.79Z"/><path class="cls-4" d="M28.69,72.86h.45v1.58H31v.4H29.14v4.71c0,.82.31,1.09,1.23,1.09l.71,0V81c-.17,0-.54,0-.74,0-1.26,0-1.65-.41-1.65-1.53V74.84H27.4v-.4h1.29Z"/><path class="cls-4" d="M35.17,72.37h2.75c1.57,0,2.53.79,2.53,2.11a2,2,0,0,1-1.51,2v0a2,2,0,0,1,2,2.14c0,1.4-1,2.33-2.81,2.33H35.17Zm.46,4h2.25c1.13,0,2.1-.58,2.1-1.82s-.8-1.75-2.13-1.75H35.63Zm0,4.22H38c1.58,0,2.43-.72,2.43-1.9s-1-1.9-2.33-1.9H35.63Z"/><path class="cls-4" d="M42.26,78.14V77.4c0-2,1-3.07,2.53-3.07s2.54,1,2.54,3.07v.34H42.71v.38c0,1.66.84,2.58,2.16,2.58a1.74,1.74,0,0,0,1.91-1.31h.46a2.17,2.17,0,0,1-2.37,1.72C43.24,81.11,42.26,80,42.26,78.14Zm4.62-.78v0c0-1.64-.83-2.57-2.09-2.57s-2.08.93-2.08,2.57v0Z"/><path class="cls-4" d="M49,74.44h.45v1.32h0a2.09,2.09,0,0,1,2.15-1.43,2.13,2.13,0,0,1,2.25,2.32V81h-.46V76.73a1.79,1.79,0,0,0-1.84-2,2.14,2.14,0,0,0-2.13,2.31V81H49Z"/><path class="cls-4" d="M55.55,77.17a2.53,2.53,0,0,1,2.57-2.84,2.24,2.24,0,0,1,2.43,2h-.44a1.87,1.87,0,0,0-2-1.57c-1.25,0-2.12.89-2.12,2.5v.93c0,1.65.84,2.52,2.17,2.52a1.78,1.78,0,0,0,1.95-1.47h.44a2.16,2.16,0,0,1-2.42,1.88c-1.55,0-2.59-1-2.59-2.88Z"/><path class="cls-4" d="M62.2,71.89h.45v3.87h0a2.29,2.29,0,0,1,4.42.89V81h-.45V76.73a1.81,1.81,0,0,0-1.86-2,2.15,2.15,0,0,0-2.14,2.31V81H62.2Z"/></g></g><g id="Weights" class="cls-5"><g class="cls-5"><path class="cls-4" d="M14.65,97l-2.28-8.63h.51l2,8h0l2.27-8h.49l2.26,8h0l2-8h.51L20.23,97h-.5l-2.27-7.9h0L15.16,97Z"/><path class="cls-4" d="M23.32,94.14V93.4c0-2,1-3.07,2.53-3.07s2.54,1,2.54,3.07v.34H23.77v.38c0,1.66.84,2.58,2.16,2.58a1.74,1.74,0,0,0,1.91-1.31h.46a2.17,2.17,0,0,1-2.37,1.72C24.31,97.11,23.32,96,23.32,94.14Zm4.62-.78v0c0-1.64-.83-2.57-2.09-2.57s-2.08.93-2.08,2.57v0Z"/><path class="cls-4" d="M30.45,88.08a.43.43,0,0,1,.43.43.44.44,0,0,1-.43.44.44.44,0,0,1-.44-.44A.44.44,0,0,1,30.45,88.08Zm-.23,2.36h.45V97h-.45Z"/><path class="cls-4" d="M37.18,97V95.36h0A2.18,2.18,0,0,1,35,96.78,2.5,2.5,0,0,1,32.49,94v-1A2.5,2.5,0,0,1,35,90.33a2.15,2.15,0,0,1,2.14,1.41h0v-1.3h.44V97a2.25,2.25,0,0,1-2.55,2.3c-1.62,0-2.35-.92-2.38-1.71h.46c.05.59.67,1.3,1.93,1.3A1.84,1.84,0,0,0,37.18,97Zm-4.24-3.8V94A2.15,2.15,0,0,0,35,96.36,2.19,2.19,0,0,0,37.18,94v-.86A2.2,2.2,0,0,0,35,90.75,2.14,2.14,0,0,0,32.94,93.19Z"/><path class="cls-4" d="M39.77,87.89h.45v3.87h0a2.3,2.3,0,0,1,4.43.89V97h-.46V92.73a1.8,1.8,0,0,0-1.85-2,2.14,2.14,0,0,0-2.14,2.31V97h-.45Z"/><path class="cls-4" d="M47,88.86h.45v1.58h1.85v.4H47.41v4.71c0,.82.31,1.09,1.23,1.09l.71,0V97c-.17,0-.54,0-.74,0-1.26,0-1.65-.41-1.65-1.53V90.84H45.67v-.4H47Z"/><path class="cls-4" d="M52.68,90.33c1.63,0,2.21,1,2.21,1.71h-.45c0-.47-.42-1.3-1.76-1.3-.93,0-1.71.44-1.71,1.31s.64,1.12,1.78,1.41S55,94.05,55,95.25s-1.12,1.86-2.38,1.86c-1.75,0-2.37-1-2.37-1.77h.45c0,.53.46,1.37,1.92,1.37,1,0,1.92-.45,1.92-1.41s-1-1.18-1.94-1.41c-1.29-.32-2.11-.72-2.11-1.81S51.44,90.33,52.68,90.33Z"/></g></g><path id="Icon" class="cls-4" d="M139.73,68.65l5-5.41a.73.73,0,0,1,1-.06l.06.06a.89.89,0,0,1,0,1.18L139.73,71l-3.51-3.82a.89.89,0,0,1,0-1.18.73.73,0,0,1,1-.06l.06.06Z"/><g id="Background-2" class="cls-3"><rect class="cls-4" x="4" y="108" width="154" height="78" rx="6"/></g><g id="Flys" class="cls-5"><g class="cls-5"><path class="cls-6" d="M13.41,128V117.34H20v1.5h-4.8v3.27h4.39v1.48H15.18V128Z"/><path class="cls-6" d="M21.78,116.77h1.73V128H21.78Z"/><path class="cls-6" d="M30.11,127.89l-.18.47c-.69,1.83-1.6,2.54-3.21,2.54a5.23,5.23,0,0,1-.94-.08V129.5a5.2,5.2,0,0,0,.63.05,1.41,1.41,0,0,0,1.6-1.22l.07-.27-2.95-8.32h1.92l2,6.68h.07l2-6.68h1.84C32.57,120.89,30.11,127.87,30.11,127.89Z"/><path class="cls-6" d="M37.38,119.6c1.81,0,3,.91,3,2.37H38.87c0-.54-.54-1.1-1.54-1.1s-1.49.41-1.49,1.12c0,.92,1.18,1,2.09,1.2,1.54.26,2.73.76,2.73,2.32s-1.32,2.63-3.42,2.63S34,127.26,34,125.78h1.69c.1.67.57,1.09,1.62,1.09s1.64-.52,1.64-1.16c0-.86-.95-1-2.06-1.21-1.5-.31-2.73-.73-2.73-2.35C34.18,120.35,35.7,119.6,37.38,119.6Z"/></g></g><g id="Dumbbell" class="cls-5"><g class="cls-5"><path class="cls-4" d="M15.63,136.37c2.7,0,3.87,1.68,3.87,4.31S18.38,145,15.63,145H13.36v-8.63Zm-1.81,8.21h1.81c2.39,0,3.41-1.5,3.41-3.9s-1-3.89-3.41-3.89H13.82Z"/><path class="cls-4" d="M26.1,145h-.46v-1.31h0a2.17,2.17,0,0,1-2.17,1.42,2,2,0,0,1-2.22-2.2v-4.47h.45v4.4a1.72,1.72,0,0,0,1.82,1.86,2.19,2.19,0,0,0,2.15-2.33v-3.93h.46Z"/><path class="cls-4" d="M28.09,138.44h.45v1.15h0a1.78,1.78,0,0,1,1.85-1.26,1.86,1.86,0,0,1,1.95,1.41h0a2.11,2.11,0,0,1,4.1.75V145H36v-4.39a1.63,1.63,0,0,0-1.69-1.86,1.83,1.83,0,0,0-1.83,1.95V145h-.45v-4.36a1.65,1.65,0,0,0-1.7-1.89,1.84,1.84,0,0,0-1.83,2.06V145h-.45Z"/><path class="cls-4" d="M39,143.71h0V145H38.5v-9.11h.44v3.88h0a2.27,2.27,0,0,1,2.18-1.44,2.49,2.49,0,0,1,2.48,2.75v1.28a2.49,2.49,0,0,1-2.5,2.75A2.21,2.21,0,0,1,39,143.71Zm4.21-1.46v-1.07a2.14,2.14,0,0,0-2.07-2.43,2.19,2.19,0,0,0-2.17,2.38v1.18a2.2,2.2,0,0,0,2.17,2.39C42.36,144.7,43.18,143.72,43.18,142.25Z"/><path class="cls-4" d="M45.82,143.71h0V145h-.44v-9.11h.45v3.88h0A2.24,2.24,0,0,1,48,138.33a2.5,2.5,0,0,1,2.49,2.75v1.28a2.5,2.5,0,0,1-2.5,2.75A2.23,2.23,0,0,1,45.82,143.71ZM50,142.25v-1.07A2.14,2.14,0,0,0,48,138.75a2.19,2.19,0,0,0-2.16,2.38v1.18A2.2,2.2,0,0,0,48,144.7C49.21,144.7,50,143.72,50,142.25Z"/><path class="cls-4" d="M51.9,142.14v-.74c0-2,1-3.07,2.53-3.07s2.54,1,2.54,3.07v.34H52.35v.38c0,1.66.84,2.58,2.16,2.58a1.74,1.74,0,0,0,1.91-1.31h.45a2.16,2.16,0,0,1-2.36,1.72C52.88,145.11,51.9,144,51.9,142.14Zm4.62-.78v0c0-1.64-.83-2.57-2.09-2.57s-2.08.93-2.08,2.57v0Z"/><path class="cls-4" d="M58.78,135.89h.45V145h-.45Z"/><path class="cls-4" d="M61.46,135.89h.45V145h-.45Z"/></g></g><g id="Incline_bench" data-name="Incline bench" class="cls-5"><g class="cls-5"><path class="cls-4" d="M13.47,161v-8.63h.45V161Z"/><path class="cls-4" d="M16.19,154.44h.45v1.32h0a2.09,2.09,0,0,1,2.15-1.43,2.13,2.13,0,0,1,2.25,2.32V161h-.45v-4.27a1.8,1.8,0,0,0-1.84-2,2.14,2.14,0,0,0-2.14,2.31V161h-.45Z"/><path class="cls-4" d="M22.71,157.17a2.53,2.53,0,0,1,2.57-2.84,2.23,2.23,0,0,1,2.43,2h-.44a1.86,1.86,0,0,0-2-1.57c-1.26,0-2.12.89-2.12,2.5v.93c0,1.65.83,2.52,2.16,2.52a1.77,1.77,0,0,0,2-1.47h.44a2.16,2.16,0,0,1-2.42,1.88c-1.55,0-2.59-1-2.59-2.88Z"/><path class="cls-4" d="M29.45,151.89h.45V161h-.45Z"/><path class="cls-4" d="M32.37,152.08a.43.43,0,0,1,.44.43.44.44,0,0,1-.44.44.44.44,0,0,1-.43-.44A.43.43,0,0,1,32.37,152.08Zm-.22,2.36h.45V161h-.45Z"/><path class="cls-4" d="M34.73,154.44h.45v1.32h0a2.28,2.28,0,0,1,4.4.89V161h-.45v-4.27a1.79,1.79,0,0,0-1.84-2,2.14,2.14,0,0,0-2.13,2.31V161h-.45Z"/><path class="cls-4" d="M41.26,158.14v-.74c0-2,1-3.07,2.54-3.07s2.53,1,2.53,3.07v.34H41.71v.38c0,1.66.84,2.58,2.16,2.58a1.73,1.73,0,0,0,1.91-1.31h.46a2.16,2.16,0,0,1-2.37,1.72C42.25,161.11,41.26,160,41.26,158.14Zm4.62-.78v0c0-1.64-.83-2.57-2.08-2.57s-2.09.93-2.09,2.57v0Z"/><path class="cls-4" d="M51.08,159.71h0V161h-.43v-9.11h.44v3.88h0a2.27,2.27,0,0,1,2.18-1.44,2.49,2.49,0,0,1,2.48,2.75v1.28a2.49,2.49,0,0,1-2.5,2.75A2.21,2.21,0,0,1,51.08,159.71Zm4.2-1.46v-1.07c0-1.46-.82-2.43-2.06-2.43a2.19,2.19,0,0,0-2.17,2.38v1.18a2.2,2.2,0,0,0,2.17,2.39C54.47,160.7,55.28,159.72,55.28,158.25Z"/><path class="cls-4" d="M57.16,158.14v-.74c0-2,1-3.07,2.53-3.07s2.54,1,2.54,3.07v.34H57.61v.38c0,1.66.83,2.58,2.15,2.58a1.73,1.73,0,0,0,1.91-1.31h.46a2.16,2.16,0,0,1-2.37,1.72C58.14,161.11,57.16,160,57.16,158.14Zm4.62-.78v0c0-1.64-.84-2.57-2.09-2.57s-2.08.93-2.08,2.57v0Z"/><path class="cls-4" d="M63.92,154.44h.46v1.32h0a2.09,2.09,0,0,1,2.15-1.43,2.13,2.13,0,0,1,2.25,2.32V161h-.45v-4.27a1.79,1.79,0,0,0-1.84-2,2.13,2.13,0,0,0-2.13,2.31V161h-.46Z"/><path class="cls-4" d="M70.45,157.17A2.52,2.52,0,0,1,73,154.33a2.23,2.23,0,0,1,2.43,2H75a1.85,1.85,0,0,0-2-1.57c-1.26,0-2.12.89-2.12,2.5v.93c0,1.65.84,2.52,2.16,2.52a1.79,1.79,0,0,0,2-1.47h.43A2.16,2.16,0,0,1,73,161.11c-1.56,0-2.59-1-2.59-2.88Z"/><path class="cls-4" d="M77.1,151.89h.45v3.87h0a2.3,2.3,0,0,1,4.43.89V161h-.45v-4.27a1.81,1.81,0,0,0-1.86-2,2.14,2.14,0,0,0-2.14,2.31V161H77.1Z"/></g></g><g id="Rotate" class="cls-5"><g class="cls-5"><path class="cls-4" d="M18.76,170.78a2.24,2.24,0,0,1-1.87,2.32l2,3.9h-.53l-2-3.8H13.82V177h-.46v-8.63h2.8A2.35,2.35,0,0,1,18.76,170.78Zm-2.67,2a2,2,0,1,0,0-4H13.82v4Z"/><path class="cls-4" d="M25.4,173.22v1a2.67,2.67,0,1,1-5.32,0v-1a2.67,2.67,0,1,1,5.32,0Zm-4.87.06v.91a2.23,2.23,0,1,0,4.42,0v-.91a2.23,2.23,0,1,0-4.42,0Z"/><path class="cls-4" d="M27.48,168.86h.45v1.58h1.85v.4H27.93v4.71c0,.82.31,1.09,1.23,1.09l.71,0v.4c-.17,0-.54.05-.74.05-1.26,0-1.65-.41-1.65-1.53v-4.69H26.19v-.4h1.29Z"/><path class="cls-4" d="M30.86,175.16c0-1.08.75-1.82,2.21-1.82h2v-1c0-1.13-.72-1.63-1.78-1.63s-1.66.64-1.74,1.11h-.44c.05-.78.79-1.53,2.21-1.53s2.21.66,2.21,2V177h-.45v-1.1h0A2.18,2.18,0,0,1,33,177.11,1.92,1.92,0,0,1,30.86,175.16Zm4.25-.37v-1h-2c-1.21,0-1.75.59-1.75,1.41A1.54,1.54,0,0,0,33,176.7,2,2,0,0,0,35.11,174.79Z"/><path class="cls-4" d="M37.85,168.86h.45v1.58h1.85v.4H38.3v4.71c0,.82.31,1.09,1.23,1.09l.71,0v.4c-.18,0-.54.05-.74.05-1.26,0-1.65-.41-1.65-1.53v-4.69H36.56v-.4h1.29Z"/><path class="cls-4" d="M41.28,174.14v-.74c0-2,1-3.07,2.54-3.07s2.54,1,2.54,3.07v.34H41.74v.38c0,1.66.83,2.58,2.15,2.58s1.85-.74,1.91-1.31h.46a2.16,2.16,0,0,1-2.37,1.72C42.27,177.11,41.28,176,41.28,174.14Zm4.63-.78v0c0-1.64-.84-2.57-2.09-2.57s-2.08.93-2.08,2.57v0Z"/></g></g><g id="Information_Icon" data-name="Information Icon"><path class="cls-7" d="M141,161.37a9.38,9.38,0,1,1,9.38-9.37A9.38,9.38,0,0,1,141,161.37Zm0-18a8.63,8.63,0,1,0,8.63,8.63A8.63,8.63,0,0,0,141,143.37Z"/></g><path id="Information_Icon_Copy" data-name="Information Icon Copy" class="cls-8" d="M132,67a9,9,0,1,1,9,9A9,9,0,0,1,132,67Z"/><rect id="Background-3" class="cls-9" x="4" y="188" width="154" height="78" rx="6"/><g id="Bankdrücken" class="cls-5"><text class="cls-10" transform="translate(12 208)">Ban<tspan class="cls-11" x="28.22" y="0">k</tspan><tspan x="36.34" y="0">drüc</tspan><tspan class="cls-11" x="70" y="0">k</tspan><tspan x="78.13" y="0">en</tspan></text></g><g id="Status_Bar" data-name="Status Bar"><g id="Rectangle"><rect width="162" height="24"/></g><g id="_10:09" data-name=" 10:09" class="cls-5"><g class="cls-5"><path class="cls-4" d="M114.88,20.5V11.62h-.08l-2.45,1.75V11.68l2.53-1.84h1.75V20.5Z"/><path class="cls-4" d="M119.66,15c0-3.21,1.46-5.33,4-5.33s3.91,2.1,3.91,5.33v.44c0,3.21-1.47,5.32-3.94,5.32s-3.92-2.09-3.92-5.32Zm1.76.42c0,2.42.84,3.86,2.17,3.86s2.17-1.45,2.17-3.86V15c0-2.4-.83-3.86-2.17-3.86s-2.17,1.45-2.17,3.86Z"/><path class="cls-4" d="M131,13a1.21,1.21,0,0,1,1.26,1.24A1.25,1.25,0,1,1,131,13Zm0,5.22a1.21,1.21,0,0,1,1.26,1.24A1.25,1.25,0,1,1,131,18.2Z"/><path class="cls-4" d="M134.57,15c0-3.21,1.47-5.33,4-5.33s3.92,2.1,3.92,5.33v.44c0,3.21-1.47,5.32-3.95,5.32s-3.92-2.09-3.92-5.32Zm1.77.42c0,2.42.83,3.86,2.17,3.86s2.16-1.45,2.16-3.86V15c0-2.4-.83-3.86-2.16-3.86s-2.17,1.45-2.17,3.86Z"/><path class="cls-4" d="M146.38,18.3a1.64,1.64,0,0,0,1.67,1c1.81,0,2.5-1.81,2.44-4h-.1a2.57,2.57,0,0,1-2.58,1.57,3.32,3.32,0,0,1-3.42-3.55,3.55,3.55,0,0,1,3.83-3.64c2,0,4,1.16,4,5.35,0,3.78-1.36,5.74-4.16,5.74-2.13,0-3.24-1.19-3.36-2.4ZM148.14,11a2,2,0,0,0-2,2.21,2.05,2.05,0,1,0,4.1,0A2,2,0,0,0,148.14,11Z"/></g></g><g id="Workout" class="cls-5"><g class="cls-5"><path class="cls-4" d="M33.24,21,30.31,10.34H32l1.94,8.47H34l2.09-8.47h1.41l2.09,8.47h.08l1.94-8.47h1.64L40.31,21H39L36.8,12.66h-.06L34.52,21Z"/><path class="cls-4" d="M51.37,16.27v1.22a3.37,3.37,0,0,1-3.55,3.64,3.34,3.34,0,0,1-3.55-3.64V16.28a3.41,3.41,0,0,1,3.55-3.63A3.37,3.37,0,0,1,51.37,16.27Zm-5.69.13v1c0,1.52.77,2.55,2.15,2.55s2.12-1,2.12-2.55v-1c0-1.5-.8-2.55-2.12-2.55S45.68,14.9,45.68,16.4Z"/><path class="cls-4" d="M53.87,12.78h1.41v1.27h.07a2.22,2.22,0,0,1,2.25-1.39,3,3,0,0,1,.52,0V14a4.06,4.06,0,0,0-.67,0,1.92,1.92,0,0,0-2.16,2V21H53.87Z"/><path class="cls-4" d="M61.45,21H60V9.77h1.42v6.71h0l3.31-3.7h1.64l-3.22,3.57L66.66,21H65l-2.78-3.78-.74.76Z"/><path class="cls-4" d="M74.84,16.27v1.22a3.56,3.56,0,1,1-7.11,0V16.28a3.41,3.41,0,0,1,3.56-3.63A3.37,3.37,0,0,1,74.84,16.27Zm-5.69.13v1c0,1.52.77,2.55,2.15,2.55s2.11-1,2.11-2.55v-1c0-1.5-.79-2.55-2.11-2.55S69.15,14.9,69.15,16.4Z"/><path class="cls-4" d="M83.88,21h-1.4V19.63h-.07A2.46,2.46,0,0,1,80,21.13c-1.65,0-2.81-.74-2.81-2.65v-5.7h1.41V18.1a1.6,1.6,0,0,0,1.79,1.8A2,2,0,0,0,82.47,18V12.78h1.41Z"/><path class="cls-4" d="M87.12,10.74h1.4V12.8h1.86V14H88.52v4.74c0,1,.33,1.22,1.33,1.22.2,0,.52,0,.65,0V21a7.79,7.79,0,0,1-1,.07c-1.95,0-2.37-.75-2.37-2.37V14H85.86V12.8h1.26Z"/></g></g></g><g id="Combined_Shape_Copy_7" data-name="Combined Shape Copy 7"><path class="cls-4" d="M16,23a8,8,0,1,1,8-8A8,8,0,0,1,16,23Zm.44-11.78h0l-3.22,3.21h0a.8.8,0,0,0,0,1.11h0l3.2,3.2A.78.78,0,0,0,17,19a.8.8,0,0,0,.8-.8.78.78,0,0,0-.24-.56L14.93,15l2.59-2.6a.74.74,0,0,0,.28-.59A.8.8,0,0,0,17,11h0a.79.79,0,0,0-.56.23Z"/></g></svg>