<svg id="Layer_1" data-name="Layer 1" xmlns="http://www.w3.org/2000/svg" xmlns:xlink="http://www.w3.org/1999/xlink" viewBox="0 0 162 197"><defs><style>.cls-1,.cls-6,.cls-9{fill:none;}.cls-2{clip-path:url(#clip-path);}.cls-3,.cls-7,.cls-8{isolation:isolate;}.cls-4,.cls-7,.cls-8{fill:#fff;}.cls-5{fill:#61bfec;}.cls-6{stroke:#004854;stroke-miterlimit:10;stroke-width:6px;}.cls-7{font-size:27px;font-family:SFCompactText-Semibold, SF Compact Text;font-weight:600;letter-spacing:0.01em;}.cls-8{font-size:13px;font-family:SFCompactText-Regular, SF Compact Text;}.cls-9{stroke:#61bfec;stroke-linecap:round;stroke-linejoin:bevel;stroke-width:6px;stroke-dasharray:99.48;}.cls-10{fill:#323335;}</style><clipPath id="clip-path"><rect class="cls-1" width="162" height="197"/></clipPath></defs><g class="cls-2"><g id="_3.3_Watch" data-name=" 3.3 Watch"><rect width="162" height="197"/><g id="Status_Bar-2" data-name="Status Bar-2"><g id="Rectangle-5"><rect width="162" height="24"/></g><g id="_10:09-4" data-name=" 10:09-4" class="cls-3"><g class="cls-3"><path class="cls-4" d="M114.88,20.5V11.62h-.08l-2.45,1.76v-1.7l2.53-1.84h1.75V20.5Z"/><path class="cls-4" d="M119.66,15c0-3.21,1.46-5.32,4-5.32s3.91,2.09,3.91,5.32v.44c0,3.21-1.47,5.32-3.94,5.32s-3.92-2.09-3.92-5.32Zm1.76.43c0,2.41.84,3.85,2.17,3.85s2.17-1.45,2.17-3.85V15c0-2.4-.83-3.86-2.17-3.86s-2.17,1.45-2.17,3.86Z"/><path class="cls-4" d="M131,13a1.21,1.21,0,0,1,1.26,1.24A1.25,1.25,0,1,1,131,13Zm0,5.22a1.21,1.21,0,0,1,1.26,1.24A1.25,1.25,0,1,1,131,18.2Z"/><path class="cls-4" d="M134.57,15c0-3.21,1.47-5.32,4-5.32s3.92,2.09,3.92,5.32v.44c0,3.21-1.47,5.32-3.95,5.32s-3.92-2.09-3.92-5.32Zm1.77.43c0,2.41.83,3.85,2.17,3.85s2.16-1.45,2.16-3.85V15c0-2.4-.83-3.86-2.16-3.86s-2.17,1.45-2.17,3.86Z"/><path class="cls-4" d="M146.38,18.3a1.64,1.64,0,0,0,1.67,1c1.81,0,2.5-1.81,2.44-4h-.1a2.57,2.57,0,0,1-2.58,1.57,3.32,3.32,0,0,1-3.42-3.55,3.55,3.55,0,0,1,3.83-3.64c2,0,4,1.16,4,5.35,0,3.78-1.36,5.74-4.16,5.74-2.13,0-3.24-1.19-3.36-2.4ZM148.14,11a2,2,0,0,0-2,2.21,2.05,2.05,0,1,0,4.1,0A2,2,0,0,0,148.14,11Z"/></g></g><g id="Rest" class="cls-3"><g class="cls-3"><path class="cls-5" d="M36.83,13a3,3,0,0,1-2,3L37,20.5H35.38l-2-4.22H30.91V20.5H29.48V9.84h3.89C35.49,9.84,36.83,11.09,36.83,13Zm-3.71,2c1.43,0,2.22-.67,2.22-1.94a1.91,1.91,0,0,0-2.16-2H30.91v4Z"/><path class="cls-5" d="M38.92,17V15.77a3.42,3.42,0,1,1,6.82,0v1H40.33v.41a2.05,2.05,0,0,0,2.1,2.27,1.7,1.7,0,0,0,1.75-1h1.45c-.12.87-1.11,2.16-3.19,2.16A3.3,3.3,0,0,1,38.92,17Zm5.42-1.29V15.6a2,2,0,1,0-4,0v.13Z"/><path class="cls-5" d="M50.75,12.15c1.77,0,2.94.91,2.94,2.3H52.38c0-.57-.58-1.19-1.68-1.19s-1.65.44-1.65,1.24c0,1,1.11,1.1,2,1.27,1.54.27,2.82.7,2.82,2.3s-1.32,2.56-3.29,2.56c-1.82,0-3.08-.82-3.08-2.29h1.38c.11.73.62,1.19,1.77,1.19s1.83-.58,1.83-1.3c0-.91-.92-1.08-2.06-1.31-1.53-.31-2.77-.66-2.77-2.28S49.15,12.15,50.75,12.15Z"/><path class="cls-5" d="M56.66,10.24h1.39V12.3h1.86v1.15H58.05v4.74c0,1,.33,1.22,1.33,1.22.21,0,.52,0,.65,0V20.5a7.65,7.65,0,0,1-1,.07c-2,0-2.37-.75-2.37-2.37V13.45H55.39V12.3h1.27Z"/></g></g></g><g id="Group_2" data-name="Group 2"><g id="REST-2" class="cls-3"><g class="cls-3"><path class="cls-4" d="M57.34,158.78l-3-6.64a.15.15,0,0,0-.14-.1H52a.11.11,0,0,0-.12.12v6.55a.29.29,0,0,1-.09.21.28.28,0,0,1-.2.08H48.75a.28.28,0,0,1-.2-.08.29.29,0,0,1-.09-.21V142.49a.29.29,0,0,1,.09-.21.28.28,0,0,1,.2-.08h6.87a5.72,5.72,0,0,1,2.7.62,4.47,4.47,0,0,1,1.8,1.78,5.48,5.48,0,0,1,.63,2.66,4.79,4.79,0,0,1-.81,2.8,4.36,4.36,0,0,1-2.28,1.64c-.08,0-.11.09-.08.17l3.27,6.79a.5.5,0,0,1,0,.15c0,.13-.09.19-.27.19h-3A.35.35,0,0,1,57.34,158.78Zm-5.49-13.56v4.11a.11.11,0,0,0,.12.12h3.14a2.33,2.33,0,0,0,1.65-.6,2.06,2.06,0,0,0,.63-1.56,2.08,2.08,0,0,0-.63-1.57,2.3,2.3,0,0,0-1.65-.62H52A.11.11,0,0,0,51.85,145.22Z"/><path class="cls-4" d="M77.78,145a.26.26,0,0,1-.2.08H69.7a.11.11,0,0,0-.12.12v3.72a.11.11,0,0,0,.12.12h5.16a.29.29,0,0,1,.21.09.28.28,0,0,1,.08.2v2.33a.28.28,0,0,1-.08.2.29.29,0,0,1-.21.09H69.7a.11.11,0,0,0-.12.12V156a.11.11,0,0,0,.12.12h7.88a.27.27,0,0,1,.28.28v2.33a.28.28,0,0,1-.08.21.3.3,0,0,1-.2.08H66.49a.27.27,0,0,1-.29-.29V142.49a.27.27,0,0,1,.29-.29H77.58a.3.3,0,0,1,.2.08.28.28,0,0,1,.08.21v2.33A.26.26,0,0,1,77.78,145Z"/><path class="cls-4" d="M85.62,158.58a5,5,0,0,1-2.22-1.75,4.59,4.59,0,0,1-.78-2.65v-.53a.28.28,0,0,1,.08-.21.3.3,0,0,1,.2-.08h2.74a.28.28,0,0,1,.2.08.29.29,0,0,1,.09.21V154a1.94,1.94,0,0,0,.89,1.62,3.93,3.93,0,0,0,2.4.66,2.82,2.82,0,0,0,1.89-.54,1.69,1.69,0,0,0,.63-1.33,1.35,1.35,0,0,0-.39-1,3.36,3.36,0,0,0-1-.69c-.44-.2-1.14-.48-2.1-.83a20.57,20.57,0,0,1-2.73-1.13,5.55,5.55,0,0,1-1.87-1.57,4,4,0,0,1-.75-2.46,4.3,4.3,0,0,1,.74-2.52,4.8,4.8,0,0,1,2.06-1.66,8.45,8.45,0,0,1,6.3.08,5.25,5.25,0,0,1,2.24,1.81,4.65,4.65,0,0,1,.8,2.7v.36a.28.28,0,0,1-.08.2.29.29,0,0,1-.21.09H92a.31.31,0,0,1-.29-.29v-.19a2.17,2.17,0,0,0-.82-1.72,3.41,3.41,0,0,0-2.27-.71,2.91,2.91,0,0,0-1.77.48,1.57,1.57,0,0,0-.63,1.32,1.43,1.43,0,0,0,.37,1,3.29,3.29,0,0,0,1.1.73c.49.22,1.25.51,2.27.88a26.8,26.8,0,0,1,2.68,1.1,5.34,5.34,0,0,1,1.75,1.43,3.74,3.74,0,0,1,.78,2.46,4.28,4.28,0,0,1-1.66,3.56A7,7,0,0,1,89,159.19,8.5,8.5,0,0,1,85.62,158.58Z"/><path class="cls-4" d="M112.1,142.28a.28.28,0,0,1,.08.21v2.35a.24.24,0,0,1-.08.2.27.27,0,0,1-.2.09h-4.3a.11.11,0,0,0-.12.12v13.46a.27.27,0,0,1-.29.29h-2.81a.3.3,0,0,1-.2-.08.28.28,0,0,1-.08-.21V145.25a.11.11,0,0,0-.12-.12H99.8a.31.31,0,0,1-.29-.29v-2.35a.29.29,0,0,1,.09-.21.28.28,0,0,1,.2-.08h12.1A.3.3,0,0,1,112.1,142.28Z"/></g></g></g><g id="Combined_Shape_Copy_7-4" data-name="Combined Shape Copy 7-4"><path class="cls-5" d="M16,23a8,8,0,1,1,8-8A8,8,0,0,1,16,23Zm.44-11.78h0l-3.22,3.21h0a.8.8,0,0,0,0,1.11h0l3.2,3.2A.78.78,0,0,0,17,19a.8.8,0,0,0,.8-.8.78.78,0,0,0-.24-.56L14.93,15l2.59-2.6a.74.74,0,0,0,.28-.59A.8.8,0,0,0,17,11h0a.79.79,0,0,0-.56.23Z"/></g></g></g><circle id="Oval" class="cls-6" cx="81" cy="84.04" r="38.5"/><g id="Group"><g id="_120" data-name=" 120" class="cls-3"><text class="cls-7" transform="translate(57.5 89.54)">120</text></g><g id="sec" class="cls-3"><text class="cls-8" transform="translate(71.5 104.54)">sec</text></g><circle id="Oval-2" data-name="Oval" class="cls-1" cx="81" cy="84.04" r="38.5"/><circle id="_1" data-name=" 1" class="cls-9" cx="81" cy="84.04" r="38.5"/></g><g id="Dot_-_Page_3" data-name="Dot - Page 3"><circle id="Page_Dot-7" data-name="Page Dot-7" class="cls-4" cx="65.7" cy="184.23" r="2.5"/></g><g id="Dot_-_Page_2" data-name="Dot - Page 2" class="cls-3"><circle id="Page_Dot-8" data-name="Page Dot-8" class="cls-10" cx="57.7" cy="184.23" r="2.5"/></g><g id="Dot_-_Page_2-2" data-name="Dot - Page 2" class="cls-3"><circle id="Page_Dot-8-2" data-name="Page Dot-8" class="cls-10" cx="73.52" cy="184.23" r="2.5"/></g><g id="Dot_-_Page_2-3" data-name="Dot - Page 2" class="cls-3"><circle id="Page_Dot-8-3" data-name="Page Dot-8" class="cls-10" cx="81.68" cy="184.23" r="2.5"/></g><g id="Dot_-_Page_2-4" data-name="Dot - Page 2" class="cls-3"><circle id="Page_Dot-8-4" data-name="Page Dot-8" class="cls-10" cx="89.35" cy="184.23" r="2.5"/></g><g id="Dot_-_Page_2-5" data-name="Dot - Page 2" class="cls-3"><circle id="Page_Dot-8-5" data-name="Page Dot-8" class="cls-10" cx="97.38" cy="184.23" r="2.5"/></g><g id="Dot_-_Page_2-6" data-name="Dot - Page 2" class="cls-3"><circle id="Page_Dot-8-6" data-name="Page Dot-8" class="cls-10" cx="105.42" cy="184.23" r="2.5"/></g><g id="Dot_-_Page_2-7" data-name="Dot - Page 2" class="cls-3"><circle id="Page_Dot-8-7" data-name="Page Dot-8" class="cls-10" cx="113.45" cy="184.23" r="2.5"/></g><g id="Dot_-_Page_1" data-name="Dot - Page 1" class="cls-3"><circle id="Page_Dot:_Selection" data-name="Page Dot: Selection" class="cls-10" cx="49.7" cy="184.23" r="2.5"/></g></svg>