<svg id="Layer_1" data-name="Layer 1" xmlns="http://www.w3.org/2000/svg" xmlns:xlink="http://www.w3.org/1999/xlink" viewBox="0 0 162 197"><defs><style>.cls-1,.cls-10,.cls-7{fill:none;}.cls-2{clip-path:url(#clip-path);}.cls-3{clip-path:url(#clip-path-2);}.cls-11,.cls-4{isolation:isolate;}.cls-11,.cls-5{fill:#fff;}.cls-6{fill:url(#linear-gradient);}.cls-7{stroke:#656666;}.cls-10,.cls-7{stroke-miterlimit:10;stroke-width:1.5px;}.cls-8{clip-path:url(#clip-path-3);}.cls-9{fill:url(#linear-gradient-2);}.cls-10{stroke:#26b34b;}.cls-11{opacity:0.2;}</style><clipPath id="clip-path"><rect class="cls-1" width="162" height="197"/></clipPath><clipPath id="clip-path-2"><rect class="cls-1" x="8" y="36" width="55" height="77" rx="8"/></clipPath><linearGradient id="linear-gradient" x1="-249.46" y1="-2236.15" x2="-249.46" y2="-2237.15" gradientTransform="matrix(55, 0, 0, -77, 13755.99, -172147.88)" gradientUnits="userSpaceOnUse"><stop offset="0"/><stop offset="0.35" stop-opacity="0"/><stop offset="0.63" stop-opacity="0"/><stop offset="1"/></linearGradient><clipPath id="clip-path-3"><rect class="cls-1" x="73" y="36" width="55" height="77" rx="8"/></clipPath><linearGradient id="linear-gradient-2" x1="-249.46" y1="-2236.15" x2="-249.46" y2="-2237.15" gradientTransform="matrix(55, 0, 0, -77, 13820.99, -172147.88)" xlink:href="#linear-gradient"/></defs><g class="cls-2"><g id="_3.2._Watch_Weight" data-name=" 3.2. Watch Weight"><rect width="162" height="197"/><g id="Picker"><g id="Group-2"><rect id="Mask-3" class="cls-1" x="8" y="36" width="55" height="77" rx="8"/><g class="cls-3"><g id="Group-3"><g id="_11" data-name=" 11" class="cls-4"><g class="cls-4"><path class="cls-5" d="M30.41,115.89V102.77h-.1l-3.55,2.57v-2.08l3.65-2.71h2v15.34Z"/><path class="cls-5" d="M41,115.89V102.77h-.1l-3.55,2.57v-2.08L41,100.55h2v15.34Z"/></g></g><g id="_10" data-name=" 10" class="cls-4"><g class="cls-4"><path class="cls-5" d="M28.64,84.47V71.36h-.1L25,73.93V71.85l3.65-2.71h2.05V84.47Z"/><path class="cls-5" d="M35.29,76.53c0-4.64,2-7.7,5.51-7.7s5.46,3,5.46,7.7v.58c0,4.63-2,7.68-5.48,7.68s-5.49-3-5.49-7.68Zm2.06.55c0,3.69,1.32,5.92,3.43,5.92s3.42-2.23,3.42-5.92v-.54c0-3.68-1.31-5.93-3.42-5.93s-3.43,2.25-3.43,5.93Z"/></g></g><g id="_9" data-name=" 9" class="cls-4"><g class="cls-4"><path class="cls-5" d="M32.52,50.19a2.51,2.51,0,0,0,2.58,1.48c2.83,0,3.85-2.82,3.76-6.24h-.11a3.83,3.83,0,0,1-3.81,2.38A4.79,4.79,0,0,1,30,42.65a5,5,0,0,1,5.34-5.17c2.67,0,5.48,1.49,5.48,7.64,0,5.51-1.86,8.31-5.81,8.31-2.84,0-4.4-1.53-4.6-3.24Zm2.73-10.95a3.16,3.16,0,0,0-3.16,3.45,3.21,3.21,0,1,0,6.42.05A3.19,3.19,0,0,0,35.25,39.24Z"/></g></g></g></g></g><g id="Ring_Gradient" data-name="Ring Gradient"><g id="Inner_Shadow_Gradient" data-name="Inner Shadow Gradient"><rect class="cls-6" x="8" y="36" width="55" height="77" rx="8"/><rect class="cls-1" x="9" y="37" width="53" height="75" rx="7"/></g><g id="Ring"><rect class="cls-1" x="8" y="36" width="55" height="77" rx="8"/><rect class="cls-7" x="8.75" y="36.75" width="53.5" height="75.5" rx="7.25"/></g></g></g><g id="Picker-2"><g id="Group-4"><rect id="Mask-4" class="cls-1" x="73" y="36" width="55" height="77" rx="8"/><g class="cls-8"><g id="Group-5"><g id="_50" data-name=" 50" class="cls-4"><g class="cls-4"><path class="cls-5" d="M90.41,112.31a2.91,2.91,0,0,0,3.14,2.14,3.3,3.3,0,0,0,3.24-3.52,3.17,3.17,0,0,0-3.27-3.25,3.42,3.42,0,0,0-3,1.68H88.76l.68-8.81H98.1v1.79H91.19l-.41,4.91h.11A3.73,3.73,0,0,1,94,105.93a4.72,4.72,0,0,1,4.89,4.95,5.11,5.11,0,0,1-5.43,5.32c-2.83,0-4.85-1.64-5-3.89Z"/><path class="cls-5" d="M101.78,108c0-4.64,2-7.71,5.5-7.71s5.46,3.06,5.46,7.71v.57c0,4.64-2,7.68-5.48,7.68s-5.48-3-5.48-7.68Zm2,.55c0,3.68,1.33,5.91,3.43,5.91s3.42-2.23,3.42-5.91V108c0-3.69-1.31-5.93-3.42-5.93s-3.43,2.24-3.43,5.93Z"/></g></g><g id="_25" data-name=" 25" class="cls-4"><g class="cls-4"><path class="cls-5" d="M88.91,73.41v-.08a4.5,4.5,0,0,1,4.88-4.5c2.89,0,4.79,1.8,4.79,4.2,0,1.92-1.17,3.21-2.6,4.85L91.9,82.55v.13h7v1.79H89v-1.3l5.77-6.57a5.34,5.34,0,0,0,1.75-3.42,2.55,2.55,0,0,0-2.75-2.59,2.67,2.67,0,0,0-2.82,2.74v.08Z"/><path class="cls-5" d="M103.94,80.9A2.91,2.91,0,0,0,107.08,83a3.3,3.3,0,0,0,3.24-3.52,3.18,3.18,0,0,0-3.27-3.26A3.42,3.42,0,0,0,104,78h-1.75l.68-8.81h8.66v1.79h-6.9l-.42,4.91h.11a3.73,3.73,0,0,1,3.08-1.32,4.72,4.72,0,0,1,4.9,4.94A5.12,5.12,0,0,1,107,84.79c-2.83,0-4.85-1.64-5-3.89Z"/></g></g><g id="_0" data-name=" 0" class="cls-4"><g class="cls-4"><path class="cls-5" d="M95,45.2c0-4.64,2-7.7,5.5-7.7s5.46,3,5.46,7.7v.57c0,4.64-2,7.69-5.48,7.69S95,50.42,95,45.77Zm2,.55c0,3.69,1.33,5.92,3.43,5.92s3.43-2.23,3.43-5.92v-.54c0-3.68-1.32-5.93-3.43-5.93s-3.43,2.25-3.43,5.93Z"/></g></g></g></g></g><g id="Ring_Gradient-2" data-name="Ring Gradient-2"><g id="Inner_Shadow_Gradient-2" data-name="Inner Shadow Gradient-2"><rect class="cls-9" x="73" y="36" width="55" height="77" rx="8"/><rect class="cls-1" x="74" y="37" width="53" height="75" rx="7"/></g><g id="Ring-2"><rect class="cls-1" x="73" y="36" width="55" height="77" rx="8"/><rect class="cls-10" x="73.75" y="36.75" width="53.5" height="75.5" rx="7.25"/></g></g></g><g id="Regular_Button" data-name="Regular Button"><rect id="Button:_BG" data-name="Button: BG" class="cls-11" x="4" y="135" width="154" height="40" rx="8"/><g id="OK" class="cls-4"><g class="cls-4"><path class="cls-5" d="M76.51,160.21c-2.73,0-4.44-1.8-4.44-4.81V154c0-3,1.71-4.82,4.44-4.82s4.43,1.79,4.43,4.82v1.45C80.94,158.41,79.25,160.21,76.51,160.21Zm0-9.57c-1.52,0-2.64,1.09-2.64,3.29v1.48c0,2.21,1.12,3.29,2.64,3.29s2.64-1.08,2.64-3.29v-1.48C79.15,151.73,78,150.64,76.51,150.64Z"/><path class="cls-5" d="M87.6,153.91,91.67,160H89.5l-3.21-4.9-1.19,1.33V160H83.32V149.34H85.1v4.94h.08l4.31-4.94h2Z"/></g></g></g><g id="kg" class="cls-4"><g class="cls-4"><path class="cls-5" d="M136,82H134V69.37H136v7.37H136l3.42-4h2.22l-3.5,4L141.92,82h-2.3l-2.91-4.12-.76.8Z"/><path class="cls-5" d="M149.2,81.7V80.37h-.11a2.72,2.72,0,0,1-2.6,1.45c-2.05,0-3.59-1.45-3.59-4V76.6c0-2.54,1.53-4,3.59-4a2.76,2.76,0,0,1,2.66,1.54h.1V72.71h1.89v9.05c0,2.6-1.91,3.64-4.24,3.64-2.5,0-3.7-1.24-3.8-2.63H145c.12.63.84,1.1,1.94,1.1A2,2,0,0,0,149.2,81.7Zm-4.32-4.86v.81c0,1.61.93,2.65,2.23,2.65a2.18,2.18,0,0,0,2.09-2.43V76.65a2.21,2.21,0,0,0-2.1-2.46C145.73,74.19,144.88,75.23,144.88,76.84Z"/></g></g><g id="_" data-name=" " class="cls-4"><g class="cls-4"><path class="cls-5" d="M66.91,84.14,67.7,79h1.87l-1.22,5.1Z"/></g></g></g></g></svg>