<svg id="Layer_1" data-name="Layer 1" xmlns="http://www.w3.org/2000/svg" xmlns:xlink="http://www.w3.org/1999/xlink" viewBox="0 0 162 197"><defs><style>.cls-1{fill:none;}.cls-2{clip-path:url(#clip-path);}.cls-3{isolation:isolate;}.cls-4{fill:#fff;}.cls-5{fill:#f05050;}.cls-6{fill:#b3b4b4;}.cls-7{fill:#323335;}</style><clipPath id="clip-path"><rect class="cls-1" width="162" height="197"/></clipPath></defs><g class="cls-2"><rect width="162" height="197"/><g id="Status_Bar_-_Child_View" data-name="Status Bar - Child View"><g id="Rectangle"><rect width="162" height="24"/></g><g id="_10:09" data-name=" 10:09" class="cls-3"><g class="cls-3"><path class="cls-4" d="M114.88,20.5V11.62h-.08l-2.45,1.75V11.68l2.53-1.84h1.75V20.5Z"/><path class="cls-4" d="M119.66,15c0-3.21,1.46-5.33,4-5.33s3.91,2.1,3.91,5.33v.44c0,3.21-1.47,5.32-3.94,5.32s-3.92-2.09-3.92-5.32Zm1.76.42c0,2.42.84,3.86,2.17,3.86s2.17-1.45,2.17-3.86V15c0-2.4-.83-3.86-2.17-3.86s-2.17,1.45-2.17,3.86Z"/><path class="cls-4" d="M131,13a1.21,1.21,0,0,1,1.26,1.24A1.25,1.25,0,1,1,131,13Zm0,5.22a1.21,1.21,0,0,1,1.26,1.24A1.25,1.25,0,1,1,131,18.2Z"/><path class="cls-4" d="M134.57,15c0-3.21,1.47-5.33,4-5.33s3.92,2.1,3.92,5.33v.44c0,3.21-1.47,5.32-3.95,5.32s-3.92-2.09-3.92-5.32Zm1.77.42c0,2.42.83,3.86,2.17,3.86s2.16-1.45,2.16-3.86V15c0-2.4-.83-3.86-2.16-3.86s-2.17,1.45-2.17,3.86Z"/><path class="cls-4" d="M146.38,18.3a1.64,1.64,0,0,0,1.67,1c1.81,0,2.5-1.81,2.44-4h-.1a2.57,2.57,0,0,1-2.58,1.57,3.32,3.32,0,0,1-3.42-3.55,3.55,3.55,0,0,1,3.83-3.64c2,0,4,1.16,4,5.35,0,3.78-1.36,5.74-4.16,5.74-2.13,0-3.24-1.19-3.36-2.4ZM148.14,11a2,2,0,0,0-2,2.21,2.05,2.05,0,1,0,4.1,0A2,2,0,0,0,148.14,11Z"/></g></g><g id="Set_1" data-name="Set 1" class="cls-3"><g class="cls-3"><path class="cls-4" d="M32.15,17.8a2.33,2.33,0,0,0,2.55,1.67c1.49,0,2.4-.72,2.4-1.85,0-.85-.54-1.35-1.73-1.65l-1.85-.49A2.88,2.88,0,0,1,31,12.67c0-1.8,1.56-3.08,3.73-3.08s3.54,1.16,3.7,2.79H37a2.1,2.1,0,0,0-2.28-1.54c-1.35,0-2.25.72-2.25,1.77,0,.75.53,1.27,1.5,1.51l1.82.48c1.87.49,2.78,1.37,2.78,2.92,0,1.93-1.53,3.2-4,3.2-2.25,0-3.71-1.2-3.85-2.92Z"/><path class="cls-4" d="M40.47,17V15.77a3.42,3.42,0,1,1,6.82,0v1H41.88v.41A2.05,2.05,0,0,0,44,19.44a1.7,1.7,0,0,0,1.75-1h1.45c-.13.87-1.12,2.16-3.2,2.16A3.29,3.29,0,0,1,40.47,17Zm5.41-1.29V15.6a2,2,0,1,0-4,0v.13Z"/><path class="cls-4" d="M50.09,10.24h1.39V12.3h1.86v1.15H51.48v4.74c0,1,.33,1.22,1.33,1.22.21,0,.52,0,.65,0V20.5a7.65,7.65,0,0,1-1,.07c-2,0-2.37-.75-2.37-2.37V13.45H48.82V12.3h1.27Z"/><path class="cls-4" d="M61.66,20.5V11.37h-.07l-2.47,1.79V11.72l2.54-1.88h1.42V20.5Z"/></g></g></g><g id="Background"><rect class="cls-5" x="4" y="61" width="154" height="40" rx="6.06"/></g><g id="_2.50_kg" data-name=" 2.50 kg" class="cls-3"><g class="cls-3"><path class="cls-4" d="M54.29,79.41v-.08a3.22,3.22,0,0,1,3.51-3.21c2.11,0,3.49,1.27,3.49,3,0,1.4-.88,2.3-1.84,3.38l-2.64,3v.1h4.67V87H54.35V85.89l4-4.39a3.5,3.5,0,0,0,1.21-2.27,1.63,1.63,0,0,0-1.75-1.65A1.7,1.7,0,0,0,56,79.32v.09Z"/><path class="cls-4" d="M65.06,84.7a1.21,1.21,0,0,1,1.26,1.24,1.25,1.25,0,1,1-1.26-1.24Z"/><path class="cls-4" d="M70.39,84.39a1.9,1.9,0,0,0,2,1.38,2.11,2.11,0,0,0,2.09-2.25,2,2,0,0,0-2.11-2.09,2.14,2.14,0,0,0-1.91,1.08H69l.46-6.17H75.7V77.8H70.87l-.26,3.13h.09A2.62,2.62,0,0,1,72.85,80a3.28,3.28,0,0,1,3.41,3.45,3.61,3.61,0,0,1-3.9,3.74c-2.09,0-3.53-1.2-3.62-2.82Z"/><path class="cls-4" d="M78.27,81.45c0-3.21,1.46-5.33,4-5.33s3.91,2.1,3.91,5.33v.44c0,3.21-1.47,5.32-3.94,5.32s-3.92-2.09-3.92-5.32Zm1.76.42c0,2.42.84,3.86,2.17,3.86s2.17-1.45,2.17-3.86v-.41c0-2.4-.83-3.86-2.17-3.86S80,79.05,80,81.46Z"/><path class="cls-4" d="M94,87H92.29V75.77H94v6.55h.08l3-3.58h2L96,82.32,99.32,87h-2l-2.58-3.66-.68.71Z"/><path class="cls-4" d="M105.9,86.73V85.55h-.1a2.41,2.41,0,0,1-2.31,1.29c-1.82,0-3.19-1.29-3.19-3.55V82.2c0-2.25,1.36-3.57,3.19-3.57A2.48,2.48,0,0,1,105.86,80H106V78.74h1.67v8.05c0,2.31-1.69,3.23-3.76,3.23-2.23,0-3.29-1.1-3.38-2.33h1.72c.1.55.74,1,1.71,1A1.75,1.75,0,0,0,105.9,86.73Zm-3.84-4.32v.72a2.07,2.07,0,0,0,2,2.35,1.93,1.93,0,0,0,1.85-2.15V82.24A2,2,0,0,0,104,80.05C102.82,80.05,102.06,81,102.06,82.41Z"/></g></g><g id="Background-2"><rect class="cls-5" x="4" y="129" width="154" height="40" rx="6.06"/></g><g id="_8_-_12_x" data-name=" 8 - 12 x" class="cls-3"><g class="cls-3"><path class="cls-4" d="M55.4,152.09a2.69,2.69,0,0,1,2.2-2.68v-.08A2.43,2.43,0,0,1,55.82,147c0-1.63,1.46-2.83,3.55-2.83s3.54,1.2,3.54,2.83a2.43,2.43,0,0,1-1.78,2.38v.08a2.7,2.7,0,0,1,2.19,2.66c0,1.86-1.62,3.14-4,3.14S55.4,153.94,55.4,152.09Zm6.18-.11a2.24,2.24,0,1,0-2.21,1.89A2,2,0,0,0,61.58,152Zm-.37-4.86a1.85,1.85,0,0,0-3.68,0,1.85,1.85,0,0,0,3.68,0Z"/><path class="cls-4" d="M68.9,151.4v-1.55h4.92v1.55Z"/><path class="cls-4" d="M82.14,155v-8.88h-.09l-2.44,1.75v-1.69l2.53-1.84h1.75V155Z"/><path class="cls-4" d="M87.09,147.41v-.08a3.22,3.22,0,0,1,3.51-3.21c2.11,0,3.49,1.27,3.49,3,0,1.4-.88,2.3-1.85,3.38l-2.63,3v.1h4.66V155H87.15v-1.11l4-4.39a3.49,3.49,0,0,0,1.2-2.27,1.62,1.62,0,0,0-1.75-1.65,1.7,1.7,0,0,0-1.78,1.74v.09Z"/><path class="cls-4" d="M103.27,152.07h-.07L101.43,155H99.54l2.67-4.09-2.72-4.17h2l1.73,2.92h.07l1.78-2.92H107l-2.75,4.06L107,155h-2Z"/></g></g><g id="Weight" class="cls-3"><g class="cls-3"><path class="cls-6" d="M11.24,55,8.31,44.34H10l1.94,8.47H12l2.09-8.47h1.41l2.09,8.47h.08l1.94-8.47h1.64L18.31,55H17L14.8,46.66h-.06L12.52,55Z"/><path class="cls-6" d="M22.27,51.52V50.27a3.42,3.42,0,1,1,6.82,0v1H23.67v.41a2.06,2.06,0,0,0,2.1,2.27,1.7,1.7,0,0,0,1.75-1H29c-.13.87-1.12,2.16-3.2,2.16A3.29,3.29,0,0,1,22.27,51.52Zm5.41-1.29V50.1a2,2,0,1,0-4,0v.13Z"/><path class="cls-6" d="M32.31,43.27a1,1,0,1,1,0,1.95,1,1,0,1,1,0-1.95Zm-.69,3.51H33V55H31.62Z"/><path class="cls-6" d="M41.13,54.76v-1.2h-.08a2.44,2.44,0,0,1-2.3,1.29,3.18,3.18,0,0,1-3.24-3.45V50.12a3.18,3.18,0,0,1,3.23-3.46A2.52,2.52,0,0,1,41.12,48h.08V46.78h1.35v8C42.55,57,41,58,38.93,58S35.8,57,35.69,55.76h1.43c.11.58.78,1.06,1.86,1.06A1.89,1.89,0,0,0,41.13,54.76Zm-4.2-4.38v.78a2.25,2.25,0,0,0,2.18,2.5,2.06,2.06,0,0,0,2-2.25V50.16a2.11,2.11,0,0,0-2-2.29C37.76,47.87,36.93,48.88,36.93,50.38Z"/><path class="cls-6" d="M45.42,43.77h1.42v4.5h.07a2.43,2.43,0,0,1,2.54-1.62,2.54,2.54,0,0,1,2.76,2.76V55H50.8V49.85a1.73,1.73,0,0,0-1.82-2c-1.41,0-2.14,1.11-2.14,2.54V55H45.42Z"/><path class="cls-6" d="M55.39,44.74h1.4V46.8h1.86V48H56.79v4.74c0,1,.33,1.22,1.33,1.22.2,0,.51,0,.65,0V55a7.79,7.79,0,0,1-1,.07c-2,0-2.38-.75-2.38-2.37V48H54.12V46.8h1.27Z"/></g></g><g id="Repetitions" class="cls-3"><g class="cls-3"><path class="cls-6" d="M16.83,114.53a3,3,0,0,1-2,3L17,122H15.38l-2-4.22H10.91V122H9.48V111.34h3.89C15.49,111.34,16.83,112.59,16.83,114.53Zm-3.71,2c1.43,0,2.22-.67,2.22-1.94a1.91,1.91,0,0,0-2.16-2H10.91v4Z"/><path class="cls-6" d="M18.92,118.52v-1.25a3.42,3.42,0,1,1,6.82,0v1H20.33v.41a2.05,2.05,0,0,0,2.1,2.27,1.7,1.7,0,0,0,1.75-1h1.45c-.12.87-1.11,2.16-3.19,2.16A3.3,3.3,0,0,1,18.92,118.52Zm5.42-1.29v-.13a2,2,0,1,0-4,0v.13Z"/><path class="cls-6" d="M29.57,120.78H29.5v4H28.09v-11h1.36v1.32h.07A2.47,2.47,0,0,1,32,113.66c1.93,0,3.14,1.36,3.14,3.52v1.41c0,2.18-1.23,3.53-3.19,3.53A2.38,2.38,0,0,1,29.57,120.78Zm4.13-2.44v-.88c0-1.65-.76-2.59-2.1-2.59s-2.1.9-2.1,2.39v1.43a2.08,2.08,0,0,0,2.14,2.22C32.94,120.91,33.7,120,33.7,118.34Z"/><path class="cls-6" d="M37.12,118.52v-1.25a3.42,3.42,0,1,1,6.82,0v1H38.52v.41a2.06,2.06,0,0,0,2.1,2.27,1.72,1.72,0,0,0,1.76-1h1.45c-.13.87-1.12,2.16-3.2,2.16A3.29,3.29,0,0,1,37.12,118.52Zm5.41-1.29v-.13a2,2,0,1,0-4,0v.13Z"/><path class="cls-6" d="M46.73,111.74h1.4v2.06H50V115H48.13v4.74c0,1,.33,1.22,1.33,1.22.2,0,.52,0,.65,0V122a7.79,7.79,0,0,1-1,.07c-2,0-2.37-.75-2.37-2.37V115H45.47V113.8h1.26Z"/><path class="cls-6" d="M53.19,110.27a1,1,0,1,1,0,2,1,1,0,1,1,0-2Zm-.7,3.51h1.42V122H52.49Z"/><path class="cls-6" d="M57.33,111.74h1.4v2.06h1.86V115H58.73v4.74c0,1,.32,1.22,1.32,1.22.21,0,.52,0,.65,0V122a7.47,7.47,0,0,1-1,.07c-2,0-2.38-.75-2.38-2.37V115H56.06V113.8h1.27Z"/><path class="cls-6" d="M63.78,110.27a1,1,0,1,1-1,1A1,1,0,0,1,63.78,110.27Zm-.69,3.51H64.5V122H63.09Z"/><path class="cls-6" d="M74.18,117.27v1.22a3.37,3.37,0,0,1-3.55,3.64,3.34,3.34,0,0,1-3.55-3.64v-1.21a3.41,3.41,0,0,1,3.55-3.63A3.37,3.37,0,0,1,74.18,117.27Zm-5.69.13v1c0,1.52.78,2.55,2.15,2.55s2.12-1,2.12-2.55v-1c0-1.5-.8-2.55-2.12-2.55S68.49,115.9,68.49,117.4Z"/><path class="cls-6" d="M76.55,113.78H78v1.49H78a2.31,2.31,0,0,1,2.49-1.62,2.52,2.52,0,0,1,2.79,2.74V122H81.9v-5.16c0-1.29-.67-2-1.78-2-1.45,0-2.15,1.12-2.15,2.54V122H76.55Z"/><path class="cls-6" d="M88.73,113.65c1.77,0,2.94.91,2.94,2.3H90.36c0-.58-.58-1.19-1.68-1.19S87,115.2,87,116c0,1,1.11,1.1,2,1.27,1.54.27,2.81.7,2.81,2.3s-1.31,2.56-3.28,2.56-3.08-.82-3.08-2.29H86.9c.11.73.62,1.19,1.76,1.19,1.3,0,1.83-.58,1.83-1.3,0-.91-.91-1.08-2-1.31-1.53-.31-2.78-.66-2.78-2.28S87.12,113.65,88.73,113.65Z"/></g></g><g id="Combined_Shape_Copy_7" data-name="Combined Shape Copy 7"><path class="cls-4" d="M16,23a8,8,0,1,1,8-8A8,8,0,0,1,16,23Zm.44-11.78h0l-3.22,3.21h0a.8.8,0,0,0,0,1.11h0l3.2,3.2A.78.78,0,0,0,17,19a.8.8,0,0,0,.8-.8.78.78,0,0,0-.24-.56L14.93,15l2.59-2.6a.74.74,0,0,0,.28-.59A.8.8,0,0,0,17,11h0a.79.79,0,0,0-.56.23Z"/></g></g><g id="Dot_-_Page_3" data-name="Dot - Page 3"><g id="Page_Dot-7" data-name="Page Dot-7"><circle class="cls-4" cx="66.08" cy="184.61" r="2.5"/></g></g><g id="Dot_-_Page_2" data-name="Dot - Page 2" class="cls-3"><g id="Page_Dot-8" data-name="Page Dot-8"><circle class="cls-7" cx="58.08" cy="184.61" r="2.5"/></g></g><g id="Dot_-_Page_2-2" data-name="Dot - Page 2" class="cls-3"><g id="Page_Dot-8-2" data-name="Page Dot-8"><circle class="cls-7" cx="73.9" cy="184.61" r="2.5"/></g></g><g id="Dot_-_Page_2-3" data-name="Dot - Page 2" class="cls-3"><g id="Page_Dot-8-3" data-name="Page Dot-8"><circle class="cls-7" cx="82.06" cy="184.61" r="2.5"/></g></g><g id="Dot_-_Page_2-4" data-name="Dot - Page 2" class="cls-3"><g id="Page_Dot-8-4" data-name="Page Dot-8"><circle class="cls-7" cx="89.73" cy="184.61" r="2.5"/></g></g><g id="Dot_-_Page_2-5" data-name="Dot - Page 2" class="cls-3"><g id="Page_Dot-8-5" data-name="Page Dot-8"><circle class="cls-7" cx="97.76" cy="184.61" r="2.5"/></g></g><g id="Dot_-_Page_2-6" data-name="Dot - Page 2" class="cls-3"><g id="Page_Dot-8-6" data-name="Page Dot-8"><circle class="cls-7" cx="105.79" cy="184.61" r="2.5"/></g></g><g id="Dot_-_Page_2-7" data-name="Dot - Page 2" class="cls-3"><g id="Page_Dot-8-7" data-name="Page Dot-8"><circle class="cls-7" cx="113.83" cy="184.61" r="2.5"/></g></g><g id="Dot_-_Page_1" data-name="Dot - Page 1" class="cls-3"><g id="Page_Dot:_Selection" data-name="Page Dot: Selection"><circle class="cls-7" cx="50.08" cy="184.61" r="2.5"/></g></g></svg>